<?xml version="1.0" encoding="UTF-8" standalone="no"?>
<!DOCTYPE svg PUBLIC "-//W3C//DTD SVG 1.1//EN"
 "http://www.w3.org/Graphics/SVG/1.1/DTD/svg11.dtd">
<!-- Generated by graphviz version 2.43.0 (0)
 -->
<!-- Pages: 1 -->
<svg width="1887pt" height="887pt"
 viewBox="0.00 0.00 1887.00 887.00" xmlns="http://www.w3.org/2000/svg" xmlns:xlink="http://www.w3.org/1999/xlink">
<g id="graph0" class="graph" transform="scale(1 1) rotate(0) translate(4 883)">
<polygon fill="white" stroke="transparent" points="-4,4 -4,-883 1883,-883 1883,4 -4,4"/>
<text text-anchor="middle" x="939.5" y="-863.8" font-family="Times,serif" font-size="14.00">[Büchi]</text>
<!-- I -->
<!-- 18 -->
<g id="node2" class="node">
<title>18</title>
<path fill="none" stroke="black" d="M847,-818C847,-818 710,-818 710,-818 704,-818 698,-812 698,-806 698,-806 698,-794 698,-794 698,-788 704,-782 710,-782 710,-782 847,-782 847,-782 853,-782 859,-788 859,-794 859,-794 859,-806 859,-806 859,-812 853,-818 847,-818"/>
<text text-anchor="middle" x="778.5" y="-796.3" font-family="Times,serif" font-size="14.00">Dummy Initial State</text>
</g>
<!-- I&#45;&gt;18 -->
<g id="edge1" class="edge">
<title>I&#45;&gt;18</title>
<path fill="none" stroke="black" d="M778.5,-854.85C778.5,-853.33 778.5,-840.9 778.5,-828.37"/>
<polygon fill="black" stroke="black" points="782,-828.06 778.5,-818.06 775,-828.06 782,-828.06"/>
</g>
<!-- 0 -->
<g id="node3" class="node">
<title>0</title>
<path fill="none" stroke="black" d="M903,-648C903,-648 654,-648 654,-648 648,-648 642,-642 642,-636 642,-636 642,-607 642,-607 642,-601 648,-595 654,-595 654,-595 903,-595 903,-595 909,-595 915,-601 915,-607 915,-607 915,-636 915,-636 915,-642 909,-648 903,-648"/>
<path fill="none" stroke="black" d="M907,-652C907,-652 650,-652 650,-652 644,-652 638,-646 638,-640 638,-640 638,-603 638,-603 638,-597 644,-591 650,-591 650,-591 907,-591 907,-591 913,-591 919,-597 919,-603 919,-603 919,-640 919,-640 919,-646 913,-652 907,-652"/>
<text text-anchor="middle" x="778.5" y="-632.8" font-family="Times,serif" font-size="14.00">7</text>
<text text-anchor="middle" x="778.5" y="-617.8" font-family="Times,serif" font-size="14.00">P = { a = 0 &amp; b &gt;= 2 &amp; &#45;t &gt;= &#45;10 }</text>
<text text-anchor="middle" x="778.5" y="-602.8" font-family="Times,serif" font-size="14.00">X = { a = 0 &amp; b &gt;= 2 &amp; &#45;t &gt;= &#45;10 }</text>
</g>
<!-- 18&#45;&gt;0 -->
<g id="edge21" class="edge">
<title>18&#45;&gt;0</title>
<path fill="none" stroke="black" d="M778.5,-781.76C778.5,-754.24 778.5,-699.7 778.5,-662.18"/>
<polygon fill="black" stroke="black" points="782,-662.08 778.5,-652.08 775,-662.08 782,-662.08"/>
<text text-anchor="middle" x="857" y="-752.8" font-family="Times,serif" font-size="14.00">brink &amp; q &amp; sing &amp; t1</text>
</g>
<!-- 6 -->
<g id="node9" class="node">
<title>6</title>
<path fill="none" stroke="black" d="M1118,-727C1118,-727 869,-727 869,-727 863,-727 857,-721 857,-715 857,-715 857,-686 857,-686 857,-680 863,-674 869,-674 869,-674 1118,-674 1118,-674 1124,-674 1130,-680 1130,-686 1130,-686 1130,-715 1130,-715 1130,-721 1124,-727 1118,-727"/>
<path fill="none" stroke="black" d="M1122,-731C1122,-731 865,-731 865,-731 859,-731 853,-725 853,-719 853,-719 853,-682 853,-682 853,-676 859,-670 865,-670 865,-670 1122,-670 1122,-670 1128,-670 1134,-676 1134,-682 1134,-682 1134,-719 1134,-719 1134,-725 1128,-731 1122,-731"/>
<text text-anchor="middle" x="993.5" y="-711.8" font-family="Times,serif" font-size="14.00">4</text>
<text text-anchor="middle" x="993.5" y="-696.8" font-family="Times,serif" font-size="14.00">P = { b = 0 &amp; a &gt;= 0 &amp; &#45;t &gt;= &#45;10 }</text>
<text text-anchor="middle" x="993.5" y="-681.8" font-family="Times,serif" font-size="14.00">X = { b = 0 &amp; a &gt;= 0 &amp; &#45;t &gt;= &#45;10 }</text>
</g>
<!-- 18&#45;&gt;6 -->
<g id="edge20" class="edge">
<title>18&#45;&gt;6</title>
<path fill="none" stroke="black" d="M859.24,-791.82C886.16,-786.8 915.4,-778.32 939.5,-764 950.19,-757.65 959.83,-748.43 967.91,-739.01"/>
<polygon fill="black" stroke="black" points="970.74,-741.08 974.32,-731.11 965.3,-736.67 970.74,-741.08"/>
<text text-anchor="middle" x="1021" y="-752.8" font-family="Times,serif" font-size="14.00">brink &amp; sing &amp; t1</text>
</g>
<!-- 14 -->
<g id="node17" class="node">
<title>14</title>
<path fill="none" stroke="black" d="M699,-727C699,-727 450,-727 450,-727 444,-727 438,-721 438,-715 438,-715 438,-686 438,-686 438,-680 444,-674 450,-674 450,-674 699,-674 699,-674 705,-674 711,-680 711,-686 711,-686 711,-715 711,-715 711,-721 705,-727 699,-727"/>
<path fill="none" stroke="black" d="M703,-731C703,-731 446,-731 446,-731 440,-731 434,-725 434,-719 434,-719 434,-682 434,-682 434,-676 440,-670 446,-670 446,-670 703,-670 703,-670 709,-670 715,-676 715,-682 715,-682 715,-719 715,-719 715,-725 709,-731 703,-731"/>
<text text-anchor="middle" x="574.5" y="-711.8" font-family="Times,serif" font-size="14.00">4</text>
<text text-anchor="middle" x="574.5" y="-696.8" font-family="Times,serif" font-size="14.00">P = { a = 0 &amp; b &gt;= 0 &amp; &#45;t &gt;= &#45;10 }</text>
<text text-anchor="middle" x="574.5" y="-681.8" font-family="Times,serif" font-size="14.00">X = { a = 0 &amp; b &gt;= 0 &amp; &#45;t &gt;= &#45;10 }</text>
</g>
<!-- 18&#45;&gt;14 -->
<g id="edge19" class="edge">
<title>18&#45;&gt;14</title>
<path fill="none" stroke="black" d="M697.67,-789.44C674.52,-784.27 650.01,-776.29 629.5,-764 618.75,-757.56 608.97,-748.31 600.74,-738.89"/>
<polygon fill="black" stroke="black" points="603.28,-736.47 594.2,-731 597.89,-740.93 603.28,-736.47"/>
<text text-anchor="middle" x="693" y="-752.8" font-family="Times,serif" font-size="14.00">brink &amp; sing &amp; t1</text>
</g>
<!-- 1 -->
<g id="node4" class="node">
<title>1</title>
<path fill="none" stroke="black" d="M1024,-365C1024,-365 533,-365 533,-365 527,-365 521,-359 521,-353 521,-353 521,-324 521,-324 521,-318 527,-312 533,-312 533,-312 1024,-312 1024,-312 1030,-312 1036,-318 1036,-324 1036,-324 1036,-353 1036,-353 1036,-359 1030,-365 1024,-365"/>
<text text-anchor="middle" x="778.5" y="-349.8" font-family="Times,serif" font-size="14.00">11</text>
<text text-anchor="middle" x="778.5" y="-334.8" font-family="Times,serif" font-size="14.00">P = { b &gt;= 0 &amp; a &#45; b &gt; &#45;2 &amp; a &gt;= 0 &amp; &#45;t &gt;= &#45;10 }</text>
<text text-anchor="middle" x="778.5" y="-319.8" font-family="Times,serif" font-size="14.00">X = { &#45;a &#45; t &gt;= &#45;10 &amp; b &#45; 2*t &gt;= &#45;18 &amp; b &gt;= 0 &amp; a &#45; b &gt; &#45;2 &amp; a &gt;= 0 }</text>
</g>
<!-- 0&#45;&gt;1 -->
<g id="edge2" class="edge">
<title>0&#45;&gt;1</title>
<path fill="none" stroke="black" d="M778.5,-590.96C778.5,-539.07 778.5,-431.73 778.5,-375.56"/>
<polygon fill="black" stroke="black" points="782,-375.36 778.5,-365.36 775,-375.36 782,-375.36"/>
<text text-anchor="middle" x="833.5" y="-490.8" font-family="Times,serif" font-size="14.00">!q &amp; !sing &amp; t1</text>
</g>
<!-- 2 -->
<g id="node5" class="node">
<title>2</title>
<path fill="none" stroke="#e31a1c" stroke-width="2" d="M475.5,-261C475.5,-261 131.5,-261 131.5,-261 125.5,-261 119.5,-255 119.5,-249 119.5,-249 119.5,-220 119.5,-220 119.5,-214 125.5,-208 131.5,-208 131.5,-208 475.5,-208 475.5,-208 481.5,-208 487.5,-214 487.5,-220 487.5,-220 487.5,-249 487.5,-249 487.5,-255 481.5,-261 475.5,-261"/>
<text text-anchor="middle" x="303.5" y="-245.8" font-family="Times,serif" font-size="14.00">1</text>
<text text-anchor="middle" x="303.5" y="-230.8" font-family="Times,serif" font-size="14.00">P = { t = 0 &amp; b &gt;= 0 &amp; a &#45; b &gt;= 2 }</text>
<text text-anchor="middle" x="303.5" y="-215.8" font-family="Times,serif" font-size="14.00">X = { t = 0 &amp; b &gt;= 0 &amp; a &#45; b &gt;= 2 &amp; &#45;a &gt;= &#45;10 }</text>
</g>
<!-- 1&#45;&gt;2 -->
<g id="edge3" class="edge">
<title>1&#45;&gt;2</title>
<path fill="none" stroke="black" d="M637.8,-311.91C621.83,-306.92 606.07,-301.01 591.5,-294 581.8,-289.34 582.35,-283.33 572.5,-279 548.98,-268.66 523.33,-260.74 497.52,-254.7"/>
<polygon fill="black" stroke="black" points="498.15,-251.25 487.62,-252.47 496.61,-258.08 498.15,-251.25"/>
<text text-anchor="middle" x="677.5" y="-282.8" font-family="Times,serif" font-size="14.00">p &amp; !q &amp; sing &amp; t0 &amp; t1</text>
</g>
<!-- 3 -->
<g id="node6" class="node">
<title>3</title>
<path fill="none" stroke="black" d="M898,-261C898,-261 593,-261 593,-261 587,-261 581,-255 581,-249 581,-249 581,-220 581,-220 581,-214 587,-208 593,-208 593,-208 898,-208 898,-208 904,-208 910,-214 910,-220 910,-220 910,-249 910,-249 910,-255 904,-261 898,-261"/>
<text text-anchor="middle" x="745.5" y="-245.8" font-family="Times,serif" font-size="14.00">12</text>
<text text-anchor="middle" x="745.5" y="-230.8" font-family="Times,serif" font-size="14.00">P = { b &gt;= 0 &amp; a &#45; b &gt;= 2 &amp; &#45;t &gt;= &#45;10 }</text>
<text text-anchor="middle" x="745.5" y="-215.8" font-family="Times,serif" font-size="14.00">X = { &#45;a &#45; t &gt;= &#45;10 &amp; b &gt;= 0 &amp; a &#45; b &gt;= 2 }</text>
</g>
<!-- 1&#45;&gt;3 -->
<g id="edge4" class="edge">
<title>1&#45;&gt;3</title>
<path fill="none" stroke="black" d="M775.27,-311.76C773.56,-301.41 771.05,-289.47 767.5,-279 766.53,-276.13 765.39,-273.21 764.16,-270.31"/>
<polygon fill="black" stroke="black" points="767.34,-268.84 760,-261.2 760.98,-271.75 767.34,-268.84"/>
<text text-anchor="middle" x="840" y="-282.8" font-family="Times,serif" font-size="14.00">p &amp; !q &amp; sing &amp; t1</text>
</g>
<!-- 4 -->
<g id="node7" class="node">
<title>4</title>
<path fill="none" stroke="black" d="M1047.5,-157C1047.5,-157 443.5,-157 443.5,-157 437.5,-157 431.5,-151 431.5,-145 431.5,-145 431.5,-116 431.5,-116 431.5,-110 437.5,-104 443.5,-104 443.5,-104 1047.5,-104 1047.5,-104 1053.5,-104 1059.5,-110 1059.5,-116 1059.5,-116 1059.5,-145 1059.5,-145 1059.5,-151 1053.5,-157 1047.5,-157"/>
<text text-anchor="middle" x="745.5" y="-141.8" font-family="Times,serif" font-size="14.00">15</text>
<text text-anchor="middle" x="745.5" y="-126.8" font-family="Times,serif" font-size="14.00">P = { &#45;a + b &gt; &#45;2 &amp; b &gt;= 0 &amp; a &gt;= 0 &amp; &#45;t &gt;= &#45;10 }</text>
<text text-anchor="middle" x="745.5" y="-111.8" font-family="Times,serif" font-size="14.00">X = { &#45;a &#45; t &gt;= &#45;10 &amp; &#45;a + b &gt; &#45;2 &amp; &#45;b &#45; 2*t &gt;= &#45;16 &amp; b &gt;= 0 &amp; a &#45; t &gt;= &#45;6 &amp; a &gt;= 0 }</text>
</g>
<!-- 3&#45;&gt;4 -->
<g id="edge5" class="edge">
<title>3&#45;&gt;4</title>
<path fill="none" stroke="black" d="M745.5,-207.76C745.5,-195.56 745.5,-180.78 745.5,-167.49"/>
<polygon fill="black" stroke="black" points="749,-167.23 745.5,-157.23 742,-167.23 749,-167.23"/>
<text text-anchor="middle" x="800.5" y="-178.8" font-family="Times,serif" font-size="14.00">!p &amp; !sing &amp; t1</text>
</g>
<!-- 5 -->
<g id="node8" class="node">
<title>5</title>
<path fill="none" stroke="#e31a1c" stroke-width="2" d="M1001,-53C1001,-53 490,-53 490,-53 484,-53 478,-47 478,-41 478,-41 478,-12 478,-12 478,-6 484,0 490,0 490,0 1001,0 1001,0 1007,0 1013,-6 1013,-12 1013,-12 1013,-41 1013,-41 1013,-47 1007,-53 1001,-53"/>
<text text-anchor="middle" x="745.5" y="-37.8" font-family="Times,serif" font-size="14.00">3</text>
<text text-anchor="middle" x="745.5" y="-22.8" font-family="Times,serif" font-size="14.00">P = { t = 0 &amp; &#45;a + b &gt; &#45;2 &amp; b &gt;= 0 &amp; a &gt;= 0 }</text>
<text text-anchor="middle" x="745.5" y="-7.8" font-family="Times,serif" font-size="14.00">X = { t = 0 &amp; &#45;a + b &gt; &#45;2 &amp; b &gt;= 0 &amp; a &gt;= 0 &amp; &#45;a &gt;= &#45;10 &amp; &#45;b &gt;= &#45;16 }</text>
</g>
<!-- 4&#45;&gt;5 -->
<g id="edge6" class="edge">
<title>4&#45;&gt;5</title>
<path fill="none" stroke="black" d="M745.5,-103.76C745.5,-91.56 745.5,-76.78 745.5,-63.49"/>
<polygon fill="black" stroke="black" points="749,-63.23 745.5,-53.23 742,-63.23 749,-63.23"/>
<text text-anchor="middle" x="816" y="-74.8" font-family="Times,serif" font-size="14.00">!p &amp; sing &amp; t0 &amp; t1</text>
</g>
<!-- 7 -->
<g id="node10" class="node">
<title>7</title>
<path fill="none" stroke="black" d="M1277,-573C1277,-573 902,-573 902,-573 896,-573 890,-567 890,-561 890,-561 890,-532 890,-532 890,-526 896,-520 902,-520 902,-520 1277,-520 1277,-520 1283,-520 1289,-526 1289,-532 1289,-532 1289,-561 1289,-561 1289,-567 1283,-573 1277,-573"/>
<text text-anchor="middle" x="1089.5" y="-557.8" font-family="Times,serif" font-size="14.00">6</text>
<text text-anchor="middle" x="1089.5" y="-542.8" font-family="Times,serif" font-size="14.00">P = { &#45;t &gt;= &#45;10 &amp; b &gt;= 0 &amp; a &gt;= 0 }</text>
<text text-anchor="middle" x="1089.5" y="-527.8" font-family="Times,serif" font-size="14.00">X = { &#45;b &#45; 2*t &gt;= &#45;20 &amp; &#45;t &gt; &#45;10 &amp; b &gt;= 0 &amp; a &gt;= 0 }</text>
</g>
<!-- 6&#45;&gt;7 -->
<g id="edge7" class="edge">
<title>6&#45;&gt;7</title>
<path fill="none" stroke="black" d="M1012.24,-669.83C1028.22,-644.53 1051.2,-608.14 1067.94,-581.63"/>
<polygon fill="black" stroke="black" points="1070.98,-583.38 1073.36,-573.05 1065.06,-579.64 1070.98,-583.38"/>
<text text-anchor="middle" x="1098" y="-617.8" font-family="Times,serif" font-size="14.00">!sing &amp; t1</text>
</g>
<!-- 8 -->
<g id="node11" class="node">
<title>8</title>
<path fill="none" stroke="black" d="M1445,-469C1445,-469 1112,-469 1112,-469 1106,-469 1100,-463 1100,-457 1100,-457 1100,-428 1100,-428 1100,-422 1106,-416 1112,-416 1112,-416 1445,-416 1445,-416 1451,-416 1457,-422 1457,-428 1457,-428 1457,-457 1457,-457 1457,-463 1451,-469 1445,-469"/>
<text text-anchor="middle" x="1278.5" y="-453.8" font-family="Times,serif" font-size="14.00">8</text>
<text text-anchor="middle" x="1278.5" y="-438.8" font-family="Times,serif" font-size="14.00">P = { &#45;a + b &gt;= 2 &amp; a &gt;= 0 &amp; &#45;t &gt;= &#45;10 }</text>
<text text-anchor="middle" x="1278.5" y="-423.8" font-family="Times,serif" font-size="14.00">X = { &#45;a + b &gt;= 2 &amp; &#45;b &#45; 2*t &gt;= &#45;20 &amp; a &gt;= 0 }</text>
</g>
<!-- 7&#45;&gt;8 -->
<g id="edge8" class="edge">
<title>7&#45;&gt;8</title>
<path fill="none" stroke="black" d="M1137.19,-519.76C1163.03,-505.82 1195.12,-488.5 1222.18,-473.89"/>
<polygon fill="black" stroke="black" points="1224.01,-476.88 1231.15,-469.05 1220.69,-470.72 1224.01,-476.88"/>
<text text-anchor="middle" x="1244.5" y="-490.8" font-family="Times,serif" font-size="14.00">q &amp; sing &amp; t1</text>
</g>
<!-- 9 -->
<g id="node12" class="node">
<title>9</title>
<path fill="none" stroke="black" d="M1619,-365C1619,-365 1066,-365 1066,-365 1060,-365 1054,-359 1054,-353 1054,-353 1054,-324 1054,-324 1054,-318 1060,-312 1066,-312 1066,-312 1619,-312 1619,-312 1625,-312 1631,-318 1631,-324 1631,-324 1631,-353 1631,-353 1631,-359 1625,-365 1619,-365"/>
<text text-anchor="middle" x="1342.5" y="-349.8" font-family="Times,serif" font-size="14.00">11</text>
<text text-anchor="middle" x="1342.5" y="-334.8" font-family="Times,serif" font-size="14.00">P = { b &gt;= 0 &amp; a &#45; b &gt; &#45;2 &amp; a &gt;= 0 &amp; &#45;t &gt;= &#45;10 }</text>
<text text-anchor="middle" x="1342.5" y="-319.8" font-family="Times,serif" font-size="14.00">X = { &#45;4*a + b &#45; 6*t &gt;= &#45;52 &amp; b &#45; 2*t &gt;= &#45;16 &amp; b &gt;= 0 &amp; a &#45; b &gt; &#45;2 &amp; a &gt;= 0 }</text>
</g>
<!-- 8&#45;&gt;9 -->
<g id="edge9" class="edge">
<title>8&#45;&gt;9</title>
<path fill="none" stroke="black" d="M1294.65,-415.76C1302.61,-403.08 1312.32,-387.6 1320.9,-373.92"/>
<polygon fill="black" stroke="black" points="1324.01,-375.56 1326.36,-365.23 1318.08,-371.84 1324.01,-375.56"/>
<text text-anchor="middle" x="1369.5" y="-386.8" font-family="Times,serif" font-size="14.00">!q &amp; !sing &amp; t1</text>
</g>
<!-- 10 -->
<g id="node13" class="node">
<title>10</title>
<path fill="none" stroke="#e31a1c" stroke-width="2" d="M1366,-261C1366,-261 977,-261 977,-261 971,-261 965,-255 965,-249 965,-249 965,-220 965,-220 965,-214 971,-208 977,-208 977,-208 1366,-208 1366,-208 1372,-208 1378,-214 1378,-220 1378,-220 1378,-249 1378,-249 1378,-255 1372,-261 1366,-261"/>
<text text-anchor="middle" x="1171.5" y="-245.8" font-family="Times,serif" font-size="14.00">1</text>
<text text-anchor="middle" x="1171.5" y="-230.8" font-family="Times,serif" font-size="14.00">P = { t = 0 &amp; b &gt;= 0 &amp; a &#45; b &gt;= 2 }</text>
<text text-anchor="middle" x="1171.5" y="-215.8" font-family="Times,serif" font-size="14.00">X = { t = 0 &amp; &#45;4*a + b &gt;= &#45;52 &amp; b &gt;= 0 &amp; a &#45; b &gt;= 2 }</text>
</g>
<!-- 9&#45;&gt;10 -->
<g id="edge10" class="edge">
<title>9&#45;&gt;10</title>
<path fill="none" stroke="black" d="M1216.46,-311.95C1207.39,-306.98 1198.91,-301.05 1191.5,-294 1185.02,-287.83 1180.64,-279.47 1177.68,-271.01"/>
<polygon fill="black" stroke="black" points="1180.96,-269.77 1174.81,-261.15 1174.24,-271.73 1180.96,-269.77"/>
<text text-anchor="middle" x="1277.5" y="-282.8" font-family="Times,serif" font-size="14.00">p &amp; !q &amp; sing &amp; t0 &amp; t1</text>
</g>
<!-- 11 -->
<g id="node14" class="node">
<title>11</title>
<path fill="none" stroke="black" d="M1775,-261C1775,-261 1408,-261 1408,-261 1402,-261 1396,-255 1396,-249 1396,-249 1396,-220 1396,-220 1396,-214 1402,-208 1408,-208 1408,-208 1775,-208 1775,-208 1781,-208 1787,-214 1787,-220 1787,-220 1787,-249 1787,-249 1787,-255 1781,-261 1775,-261"/>
<text text-anchor="middle" x="1591.5" y="-245.8" font-family="Times,serif" font-size="14.00">12</text>
<text text-anchor="middle" x="1591.5" y="-230.8" font-family="Times,serif" font-size="14.00">P = { b &gt;= 0 &amp; a &#45; b &gt;= 2 &amp; &#45;t &gt;= &#45;10 }</text>
<text text-anchor="middle" x="1591.5" y="-215.8" font-family="Times,serif" font-size="14.00">X = { &#45;4*a + b &#45; 6*t &gt;= &#45;52 &amp; b &gt;= 0 &amp; a &#45; b &gt;= 2 }</text>
</g>
<!-- 9&#45;&gt;11 -->
<g id="edge11" class="edge">
<title>9&#45;&gt;11</title>
<path fill="none" stroke="black" d="M1405.01,-311.89C1439.79,-297.65 1483.24,-279.85 1519.44,-265.02"/>
<polygon fill="black" stroke="black" points="1521.04,-268.15 1528.96,-261.12 1518.38,-261.67 1521.04,-268.15"/>
<text text-anchor="middle" x="1550" y="-282.8" font-family="Times,serif" font-size="14.00">p &amp; !q &amp; sing &amp; t1</text>
</g>
<!-- 12 -->
<g id="node15" class="node">
<title>12</title>
<path fill="none" stroke="black" d="M1867,-157C1867,-157 1316,-157 1316,-157 1310,-157 1304,-151 1304,-145 1304,-145 1304,-116 1304,-116 1304,-110 1310,-104 1316,-104 1316,-104 1867,-104 1867,-104 1873,-104 1879,-110 1879,-116 1879,-116 1879,-145 1879,-145 1879,-151 1873,-157 1867,-157"/>
<text text-anchor="middle" x="1591.5" y="-141.8" font-family="Times,serif" font-size="14.00">15</text>
<text text-anchor="middle" x="1591.5" y="-126.8" font-family="Times,serif" font-size="14.00">P = { &#45;a + b &gt; &#45;2 &amp; b &gt;= 0 &amp; a &gt;= 0 &amp; &#45;t &gt;= &#45;10 }</text>
<text text-anchor="middle" x="1591.5" y="-111.8" font-family="Times,serif" font-size="14.00">X = { &#45;a + b &gt; &#45;2 &amp; &#45;3*b &#45; 6*t &gt;= &#45;44 &amp; b &gt;= 0 &amp; a &gt;= 0 &amp; 3*a &#45; 3*t &gt;= &#45;16 }</text>
</g>
<!-- 11&#45;&gt;12 -->
<g id="edge12" class="edge">
<title>11&#45;&gt;12</title>
<path fill="none" stroke="black" d="M1591.5,-207.76C1591.5,-195.56 1591.5,-180.78 1591.5,-167.49"/>
<polygon fill="black" stroke="black" points="1595,-167.23 1591.5,-157.23 1588,-167.23 1595,-167.23"/>
<text text-anchor="middle" x="1646.5" y="-178.8" font-family="Times,serif" font-size="14.00">!p &amp; !sing &amp; t1</text>
</g>
<!-- 13 -->
<g id="node16" class="node">
<title>13</title>
<path fill="none" stroke="#e31a1c" stroke-width="2" d="M1810,-53C1810,-53 1373,-53 1373,-53 1367,-53 1361,-47 1361,-41 1361,-41 1361,-12 1361,-12 1361,-6 1367,0 1373,0 1373,0 1810,0 1810,0 1816,0 1822,-6 1822,-12 1822,-12 1822,-41 1822,-41 1822,-47 1816,-53 1810,-53"/>
<text text-anchor="middle" x="1591.5" y="-37.8" font-family="Times,serif" font-size="14.00">3</text>
<text text-anchor="middle" x="1591.5" y="-22.8" font-family="Times,serif" font-size="14.00">P = { t = 0 &amp; &#45;a + b &gt; &#45;2 &amp; b &gt;= 0 &amp; a &gt;= 0 }</text>
<text text-anchor="middle" x="1591.5" y="-7.8" font-family="Times,serif" font-size="14.00">X = { t = 0 &amp; &#45;a + b &gt; &#45;2 &amp; &#45;3*b &gt;= &#45;44 &amp; b &gt;= 0 &amp; a &gt;= 0 }</text>
</g>
<!-- 12&#45;&gt;13 -->
<g id="edge13" class="edge">
<title>12&#45;&gt;13</title>
<path fill="none" stroke="black" d="M1591.5,-103.76C1591.5,-91.56 1591.5,-76.78 1591.5,-63.49"/>
<polygon fill="black" stroke="black" points="1595,-63.23 1591.5,-53.23 1588,-63.23 1595,-63.23"/>
<text text-anchor="middle" x="1662" y="-74.8" font-family="Times,serif" font-size="14.00">!p &amp; sing &amp; t0 &amp; t1</text>
</g>
<!-- 15 -->
<g id="node18" class="node">
<title>15</title>
<path fill="none" stroke="black" d="M698,-573C698,-573 339,-573 339,-573 333,-573 327,-567 327,-561 327,-561 327,-532 327,-532 327,-526 333,-520 339,-520 339,-520 698,-520 698,-520 704,-520 710,-526 710,-532 710,-532 710,-561 710,-561 710,-567 704,-573 698,-573"/>
<text text-anchor="middle" x="518.5" y="-557.8" font-family="Times,serif" font-size="14.00">6</text>
<text text-anchor="middle" x="518.5" y="-542.8" font-family="Times,serif" font-size="14.00">P = { &#45;t &gt;= &#45;10 &amp; b &gt;= 0 &amp; a &gt;= 0 }</text>
<text text-anchor="middle" x="518.5" y="-527.8" font-family="Times,serif" font-size="14.00">X = { &#45;a &#45; t &gt;= &#45;10 &amp; &#45;t &gt; &#45;10 &amp; b &gt;= 0 &amp; a &gt;= 0 }</text>
</g>
<!-- 14&#45;&gt;15 -->
<g id="edge14" class="edge">
<title>14&#45;&gt;15</title>
<path fill="none" stroke="black" d="M562.46,-669.93C560.11,-664.01 557.69,-657.82 555.5,-652 546.87,-629.09 537.68,-603.15 530.62,-582.85"/>
<polygon fill="black" stroke="black" points="533.92,-581.68 527.34,-573.37 527.3,-583.97 533.92,-581.68"/>
<text text-anchor="middle" x="592" y="-617.8" font-family="Times,serif" font-size="14.00">!sing &amp; t1</text>
</g>
<!-- 16 -->
<g id="node19" class="node">
<title>16</title>
<path fill="none" stroke="black" d="M665.5,-469C665.5,-469 273.5,-469 273.5,-469 267.5,-469 261.5,-463 261.5,-457 261.5,-457 261.5,-428 261.5,-428 261.5,-422 267.5,-416 273.5,-416 273.5,-416 665.5,-416 665.5,-416 671.5,-416 677.5,-422 677.5,-428 677.5,-428 677.5,-457 677.5,-457 677.5,-463 671.5,-469 665.5,-469"/>
<text text-anchor="middle" x="469.5" y="-453.8" font-family="Times,serif" font-size="14.00">8</text>
<text text-anchor="middle" x="469.5" y="-438.8" font-family="Times,serif" font-size="14.00">P = { &#45;a + b &gt;= 2 &amp; a &gt;= 0 &amp; &#45;t &gt;= &#45;10 }</text>
<text text-anchor="middle" x="469.5" y="-423.8" font-family="Times,serif" font-size="14.00">X = { &#45;a + b &gt;= 2 &amp; &#45;t &gt; &#45;10 &amp; a &gt;= 0 &amp; &#45;a &#45; t &gt;= &#45;10 }</text>
</g>
<!-- 15&#45;&gt;16 -->
<g id="edge15" class="edge">
<title>15&#45;&gt;16</title>
<path fill="none" stroke="black" d="M506.14,-519.76C500.1,-507.2 492.75,-491.9 486.22,-478.31"/>
<polygon fill="black" stroke="black" points="489.35,-476.73 481.86,-469.23 483.04,-479.76 489.35,-476.73"/>
<text text-anchor="middle" x="546.5" y="-490.8" font-family="Times,serif" font-size="14.00">q &amp; sing &amp; t1</text>
</g>
<!-- 17 -->
<g id="node20" class="node">
<title>17</title>
<path fill="none" stroke="black" d="M491,-365C491,-365 12,-365 12,-365 6,-365 0,-359 0,-353 0,-353 0,-324 0,-324 0,-318 6,-312 12,-312 12,-312 491,-312 491,-312 497,-312 503,-318 503,-324 503,-324 503,-353 503,-353 503,-359 497,-365 491,-365"/>
<text text-anchor="middle" x="251.5" y="-349.8" font-family="Times,serif" font-size="14.00">11</text>
<text text-anchor="middle" x="251.5" y="-334.8" font-family="Times,serif" font-size="14.00">P = { b &gt;= 0 &amp; a &#45; b &gt; &#45;2 &amp; a &gt;= 0 &amp; &#45;t &gt;= &#45;10 }</text>
<text text-anchor="middle" x="251.5" y="-319.8" font-family="Times,serif" font-size="14.00">X = { &#45;a &#45; t &gt;= &#45;10 &amp; b &#45; 2*t &gt; &#45;18 &amp; b &gt;= 0 &amp; a &#45; b &gt; &#45;2 &amp; a &gt;= 0 }</text>
</g>
<!-- 16&#45;&gt;17 -->
<g id="edge16" class="edge">
<title>16&#45;&gt;17</title>
<path fill="none" stroke="black" d="M414.77,-415.89C384.58,-401.77 346.93,-384.15 315.4,-369.4"/>
<polygon fill="black" stroke="black" points="316.79,-366.19 306.25,-365.12 313.83,-372.53 316.79,-366.19"/>
<text text-anchor="middle" x="429.5" y="-386.8" font-family="Times,serif" font-size="14.00">!q &amp; !sing &amp; t1</text>
</g>
<!-- 17&#45;&gt;2 -->
<g id="edge17" class="edge">
<title>17&#45;&gt;2</title>
<path fill="none" stroke="black" d="M241.01,-311.93C238.26,-301.26 237.32,-289.05 242.5,-279 244.48,-275.16 246.97,-271.59 249.8,-268.28"/>
<polygon fill="black" stroke="black" points="252.44,-270.59 256.97,-261.01 247.45,-265.67 252.44,-270.59"/>
<text text-anchor="middle" x="328.5" y="-282.8" font-family="Times,serif" font-size="14.00">p &amp; !q &amp; sing &amp; t0 &amp; t1</text>
</g>
<!-- 17&#45;&gt;3 -->
<g id="edge18" class="edge">
<title>17&#45;&gt;3</title>
<path fill="none" stroke="black" d="M370.25,-311.94C385.5,-306.89 400.62,-300.95 414.5,-294 424.12,-289.18 423.6,-283.22 433.5,-279 459.18,-268.04 514.02,-258.9 570.67,-251.87"/>
<polygon fill="black" stroke="black" points="571.38,-255.31 580.89,-250.63 570.54,-248.36 571.38,-255.31"/>
<text text-anchor="middle" x="501" y="-282.8" font-family="Times,serif" font-size="14.00">p &amp; !q &amp; sing &amp; t1</text>
</g>
</g>
</svg>
