<?xml version="1.0" encoding="UTF-8" standalone="no"?>
<!DOCTYPE svg PUBLIC "-//W3C//DTD SVG 1.1//EN"
 "http://www.w3.org/Graphics/SVG/1.1/DTD/svg11.dtd">
<!-- Generated by graphviz version 2.43.0 (0)
 -->
<!-- Pages: 1 -->
<svg width="1748pt" height="841pt"
 viewBox="0.00 0.00 1747.50 841.00" xmlns="http://www.w3.org/2000/svg" xmlns:xlink="http://www.w3.org/1999/xlink">
<g id="graph0" class="graph" transform="scale(1 1) rotate(0) translate(4 837)">
<polygon fill="white" stroke="transparent" points="-4,4 -4,-837 1743.5,-837 1743.5,4 -4,4"/>
<text text-anchor="middle" x="869.75" y="-817.8" font-family="Times,serif" font-size="14.00">[Büchi]</text>
<!-- I -->
<!-- 14 -->
<g id="node2" class="node">
<title>14</title>
<path fill="none" stroke="black" d="M900.5,-772C900.5,-772 763.5,-772 763.5,-772 757.5,-772 751.5,-766 751.5,-760 751.5,-760 751.5,-748 751.5,-748 751.5,-742 757.5,-736 763.5,-736 763.5,-736 900.5,-736 900.5,-736 906.5,-736 912.5,-742 912.5,-748 912.5,-748 912.5,-760 912.5,-760 912.5,-766 906.5,-772 900.5,-772"/>
<text text-anchor="middle" x="832" y="-750.3" font-family="Times,serif" font-size="14.00">Dummy Initial State</text>
</g>
<!-- I&#45;&gt;14 -->
<g id="edge1" class="edge">
<title>I&#45;&gt;14</title>
<path fill="none" stroke="black" d="M832,-808.85C832,-807.33 832,-794.9 832,-782.37"/>
<polygon fill="black" stroke="black" points="835.5,-782.06 832,-772.06 828.5,-782.06 835.5,-782.06"/>
</g>
<!-- 0 -->
<g id="node3" class="node">
<title>0</title>
<path fill="none" stroke="black" d="M807.5,-681C807.5,-681 558.5,-681 558.5,-681 552.5,-681 546.5,-675 546.5,-669 546.5,-669 546.5,-640 546.5,-640 546.5,-634 552.5,-628 558.5,-628 558.5,-628 807.5,-628 807.5,-628 813.5,-628 819.5,-634 819.5,-640 819.5,-640 819.5,-669 819.5,-669 819.5,-675 813.5,-681 807.5,-681"/>
<path fill="none" stroke="black" d="M811.5,-685C811.5,-685 554.5,-685 554.5,-685 548.5,-685 542.5,-679 542.5,-673 542.5,-673 542.5,-636 542.5,-636 542.5,-630 548.5,-624 554.5,-624 554.5,-624 811.5,-624 811.5,-624 817.5,-624 823.5,-630 823.5,-636 823.5,-636 823.5,-673 823.5,-673 823.5,-679 817.5,-685 811.5,-685"/>
<text text-anchor="middle" x="683" y="-665.8" font-family="Times,serif" font-size="14.00">7</text>
<text text-anchor="middle" x="683" y="-650.8" font-family="Times,serif" font-size="14.00">P = { a = 0 &amp; b &gt;= 1 &amp; &#45;t &gt;= &#45;10 }</text>
<text text-anchor="middle" x="683" y="-635.8" font-family="Times,serif" font-size="14.00">X = { a = 0 &amp; b &gt;= 1 &amp; &#45;t &gt;= &#45;10 }</text>
</g>
<!-- 14&#45;&gt;0 -->
<g id="edge15" class="edge">
<title>14&#45;&gt;0</title>
<path fill="none" stroke="black" d="M802.34,-735.96C792.87,-730.38 782.42,-724.05 773,-718 759.74,-709.48 745.64,-699.93 732.62,-690.9"/>
<polygon fill="black" stroke="black" points="734.46,-687.91 724.25,-685.07 730.45,-693.66 734.46,-687.91"/>
<text text-anchor="middle" x="851.5" y="-706.8" font-family="Times,serif" font-size="14.00">brink &amp; q &amp; sing &amp; t1</text>
</g>
<!-- 6 -->
<g id="node9" class="node">
<title>6</title>
<path fill="none" stroke="black" d="M1128.5,-681C1128.5,-681 879.5,-681 879.5,-681 873.5,-681 867.5,-675 867.5,-669 867.5,-669 867.5,-640 867.5,-640 867.5,-634 873.5,-628 879.5,-628 879.5,-628 1128.5,-628 1128.5,-628 1134.5,-628 1140.5,-634 1140.5,-640 1140.5,-640 1140.5,-669 1140.5,-669 1140.5,-675 1134.5,-681 1128.5,-681"/>
<path fill="none" stroke="black" d="M1132.5,-685C1132.5,-685 875.5,-685 875.5,-685 869.5,-685 863.5,-679 863.5,-673 863.5,-673 863.5,-636 863.5,-636 863.5,-630 869.5,-624 875.5,-624 875.5,-624 1132.5,-624 1132.5,-624 1138.5,-624 1144.5,-630 1144.5,-636 1144.5,-636 1144.5,-673 1144.5,-673 1144.5,-679 1138.5,-685 1132.5,-685"/>
<text text-anchor="middle" x="1004" y="-665.8" font-family="Times,serif" font-size="14.00">4</text>
<text text-anchor="middle" x="1004" y="-650.8" font-family="Times,serif" font-size="14.00">P = { b = 0 &amp; a &gt;= 0 &amp; &#45;t &gt;= &#45;10 }</text>
<text text-anchor="middle" x="1004" y="-635.8" font-family="Times,serif" font-size="14.00">X = { b = 0 &amp; a &gt;= 0 &amp; &#45;t &gt;= &#45;10 }</text>
</g>
<!-- 14&#45;&gt;6 -->
<g id="edge14" class="edge">
<title>14&#45;&gt;6</title>
<path fill="none" stroke="black" d="M890.54,-735.96C903.92,-731.02 917.79,-725.03 930,-718 942.55,-710.78 955.03,-701.34 966.06,-692"/>
<polygon fill="black" stroke="black" points="968.58,-694.45 973.83,-685.25 963.98,-689.17 968.58,-694.45"/>
<text text-anchor="middle" x="1015.5" y="-706.8" font-family="Times,serif" font-size="14.00">brink &amp; sing &amp; t1</text>
</g>
<!-- 1 -->
<g id="node4" class="node">
<title>1</title>
<path fill="none" stroke="black" d="M796.5,-573C796.5,-573 305.5,-573 305.5,-573 299.5,-573 293.5,-567 293.5,-561 293.5,-561 293.5,-532 293.5,-532 293.5,-526 299.5,-520 305.5,-520 305.5,-520 796.5,-520 796.5,-520 802.5,-520 808.5,-526 808.5,-532 808.5,-532 808.5,-561 808.5,-561 808.5,-567 802.5,-573 796.5,-573"/>
<text text-anchor="middle" x="551" y="-557.8" font-family="Times,serif" font-size="14.00">11</text>
<text text-anchor="middle" x="551" y="-542.8" font-family="Times,serif" font-size="14.00">P = { b &gt;= 0 &amp; a &#45; b &gt; &#45;1 &amp; a &gt;= 0 &amp; &#45;t &gt;= &#45;10 }</text>
<text text-anchor="middle" x="551" y="-527.8" font-family="Times,serif" font-size="14.00">X = { &#45;a &#45; t &gt;= &#45;10 &amp; b &#45; 2*t &gt;= &#45;19 &amp; b &gt;= 0 &amp; a &#45; b &gt; &#45;1 &amp; a &gt;= 0 }</text>
</g>
<!-- 0&#45;&gt;1 -->
<g id="edge2" class="edge">
<title>0&#45;&gt;1</title>
<path fill="none" stroke="black" d="M646.23,-623.97C629.03,-610.16 608.51,-593.68 590.93,-579.57"/>
<polygon fill="black" stroke="black" points="593.07,-576.8 583.09,-573.27 588.69,-582.26 593.07,-576.8"/>
<text text-anchor="middle" x="676" y="-594.8" font-family="Times,serif" font-size="14.00">!q &amp; !sing &amp; t1</text>
</g>
<!-- 2 -->
<g id="node5" class="node">
<title>2</title>
<path fill="none" stroke="#e31a1c" stroke-width="2" d="M356,-469C356,-469 12,-469 12,-469 6,-469 0,-463 0,-457 0,-457 0,-428 0,-428 0,-422 6,-416 12,-416 12,-416 356,-416 356,-416 362,-416 368,-422 368,-428 368,-428 368,-457 368,-457 368,-463 362,-469 356,-469"/>
<text text-anchor="middle" x="184" y="-453.8" font-family="Times,serif" font-size="14.00">1</text>
<text text-anchor="middle" x="184" y="-438.8" font-family="Times,serif" font-size="14.00">P = { t = 0 &amp; b &gt;= 0 &amp; a &#45; b &gt;= 1 }</text>
<text text-anchor="middle" x="184" y="-423.8" font-family="Times,serif" font-size="14.00">X = { t = 0 &amp; &#45;a &gt;= &#45;10 &amp; b &gt;= 0 &amp; a &#45; b &gt;= 1 }</text>
</g>
<!-- 1&#45;&gt;2 -->
<g id="edge3" class="edge">
<title>1&#45;&gt;2</title>
<path fill="none" stroke="black" d="M443.72,-519.98C420.97,-514.29 397.15,-508.12 375,-502 341.83,-492.83 305.68,-481.98 273.84,-472.13"/>
<polygon fill="black" stroke="black" points="274.69,-468.73 264.1,-469.1 272.61,-475.41 274.69,-468.73"/>
<text text-anchor="middle" x="461" y="-490.8" font-family="Times,serif" font-size="14.00">p &amp; !q &amp; sing &amp; t0 &amp; t1</text>
</g>
<!-- 3 -->
<g id="node6" class="node">
<title>3</title>
<path fill="none" stroke="black" d="M703.5,-469C703.5,-469 398.5,-469 398.5,-469 392.5,-469 386.5,-463 386.5,-457 386.5,-457 386.5,-428 386.5,-428 386.5,-422 392.5,-416 398.5,-416 398.5,-416 703.5,-416 703.5,-416 709.5,-416 715.5,-422 715.5,-428 715.5,-428 715.5,-457 715.5,-457 715.5,-463 709.5,-469 703.5,-469"/>
<text text-anchor="middle" x="551" y="-453.8" font-family="Times,serif" font-size="14.00">12</text>
<text text-anchor="middle" x="551" y="-438.8" font-family="Times,serif" font-size="14.00">P = { b &gt;= 0 &amp; a &#45; b &gt;= 1 &amp; &#45;t &gt;= &#45;10 }</text>
<text text-anchor="middle" x="551" y="-423.8" font-family="Times,serif" font-size="14.00">X = { &#45;a &#45; t &gt;= &#45;10 &amp; b &gt;= 0 &amp; a &#45; b &gt;= 1 }</text>
</g>
<!-- 1&#45;&gt;3 -->
<g id="edge4" class="edge">
<title>1&#45;&gt;3</title>
<path fill="none" stroke="black" d="M551,-519.76C551,-507.56 551,-492.78 551,-479.49"/>
<polygon fill="black" stroke="black" points="554.5,-479.23 551,-469.23 547.5,-479.23 554.5,-479.23"/>
<text text-anchor="middle" x="618.5" y="-490.8" font-family="Times,serif" font-size="14.00">p &amp; !q &amp; sing &amp; t1</text>
</g>
<!-- 4 -->
<g id="node7" class="node">
<title>4</title>
<path fill="none" stroke="black" d="M778,-365C778,-365 174,-365 174,-365 168,-365 162,-359 162,-353 162,-353 162,-324 162,-324 162,-318 168,-312 174,-312 174,-312 778,-312 778,-312 784,-312 790,-318 790,-324 790,-324 790,-353 790,-353 790,-359 784,-365 778,-365"/>
<text text-anchor="middle" x="476" y="-349.8" font-family="Times,serif" font-size="14.00">15</text>
<text text-anchor="middle" x="476" y="-334.8" font-family="Times,serif" font-size="14.00">P = { &#45;a + b &gt; &#45;1 &amp; b &gt;= 0 &amp; a &gt;= 0 &amp; &#45;t &gt;= &#45;10 }</text>
<text text-anchor="middle" x="476" y="-319.8" font-family="Times,serif" font-size="14.00">X = { &#45;a &#45; t &gt;= &#45;10 &amp; &#45;a + b &gt; &#45;1 &amp; &#45;b &#45; 2*t &gt;= &#45;18 &amp; b &gt;= 0 &amp; a &#45; t &gt;= &#45;8 &amp; a &gt;= 0 }</text>
</g>
<!-- 3&#45;&gt;4 -->
<g id="edge5" class="edge">
<title>3&#45;&gt;4</title>
<path fill="none" stroke="black" d="M532.07,-415.76C522.66,-402.96 511.15,-387.31 501.02,-373.53"/>
<polygon fill="black" stroke="black" points="503.66,-371.21 494.92,-365.23 498.02,-375.36 503.66,-371.21"/>
<text text-anchor="middle" x="573" y="-386.8" font-family="Times,serif" font-size="14.00">!p &amp; !sing &amp; t1</text>
</g>
<!-- 5 -->
<g id="node8" class="node">
<title>5</title>
<path fill="none" stroke="#e31a1c" stroke-width="2" d="M731.5,-261C731.5,-261 220.5,-261 220.5,-261 214.5,-261 208.5,-255 208.5,-249 208.5,-249 208.5,-220 208.5,-220 208.5,-214 214.5,-208 220.5,-208 220.5,-208 731.5,-208 731.5,-208 737.5,-208 743.5,-214 743.5,-220 743.5,-220 743.5,-249 743.5,-249 743.5,-255 737.5,-261 731.5,-261"/>
<text text-anchor="middle" x="476" y="-245.8" font-family="Times,serif" font-size="14.00">3</text>
<text text-anchor="middle" x="476" y="-230.8" font-family="Times,serif" font-size="14.00">P = { t = 0 &amp; &#45;a + b &gt; &#45;1 &amp; b &gt;= 0 &amp; a &gt;= 0 }</text>
<text text-anchor="middle" x="476" y="-215.8" font-family="Times,serif" font-size="14.00">X = { t = 0 &amp; &#45;a + b &gt; &#45;1 &amp; b &gt;= 0 &amp; a &gt;= 0 &amp; &#45;a &gt;= &#45;10 &amp; &#45;b &gt;= &#45;18 }</text>
</g>
<!-- 4&#45;&gt;5 -->
<g id="edge6" class="edge">
<title>4&#45;&gt;5</title>
<path fill="none" stroke="black" d="M476,-311.76C476,-299.56 476,-284.78 476,-271.49"/>
<polygon fill="black" stroke="black" points="479.5,-271.23 476,-261.23 472.5,-271.23 479.5,-271.23"/>
<text text-anchor="middle" x="546.5" y="-282.8" font-family="Times,serif" font-size="14.00">!p &amp; sing &amp; t0 &amp; t1</text>
</g>
<!-- 7 -->
<g id="node10" class="node">
<title>7</title>
<path fill="none" stroke="black" d="M1249.5,-573C1249.5,-573 874.5,-573 874.5,-573 868.5,-573 862.5,-567 862.5,-561 862.5,-561 862.5,-532 862.5,-532 862.5,-526 868.5,-520 874.5,-520 874.5,-520 1249.5,-520 1249.5,-520 1255.5,-520 1261.5,-526 1261.5,-532 1261.5,-532 1261.5,-561 1261.5,-561 1261.5,-567 1255.5,-573 1249.5,-573"/>
<text text-anchor="middle" x="1062" y="-557.8" font-family="Times,serif" font-size="14.00">6</text>
<text text-anchor="middle" x="1062" y="-542.8" font-family="Times,serif" font-size="14.00">P = { &#45;t &gt;= &#45;10 &amp; b &gt;= 0 &amp; a &gt;= 0 }</text>
<text text-anchor="middle" x="1062" y="-527.8" font-family="Times,serif" font-size="14.00">X = { &#45;b &#45; 2*t &gt;= &#45;20 &amp; &#45;t &gt; &#45;10 &amp; b &gt;= 0 &amp; a &gt;= 0 }</text>
</g>
<!-- 6&#45;&gt;7 -->
<g id="edge7" class="edge">
<title>6&#45;&gt;7</title>
<path fill="none" stroke="black" d="M1020.16,-623.97C1027.24,-611.03 1035.6,-595.75 1042.98,-582.26"/>
<polygon fill="black" stroke="black" points="1046.17,-583.72 1047.9,-573.27 1040.03,-580.36 1046.17,-583.72"/>
<text text-anchor="middle" x="1074.5" y="-594.8" font-family="Times,serif" font-size="14.00">!sing &amp; t1</text>
</g>
<!-- 8 -->
<g id="node11" class="node">
<title>8</title>
<path fill="none" stroke="black" d="M1251.5,-469C1251.5,-469 918.5,-469 918.5,-469 912.5,-469 906.5,-463 906.5,-457 906.5,-457 906.5,-428 906.5,-428 906.5,-422 912.5,-416 918.5,-416 918.5,-416 1251.5,-416 1251.5,-416 1257.5,-416 1263.5,-422 1263.5,-428 1263.5,-428 1263.5,-457 1263.5,-457 1263.5,-463 1257.5,-469 1251.5,-469"/>
<text text-anchor="middle" x="1085" y="-453.8" font-family="Times,serif" font-size="14.00">8</text>
<text text-anchor="middle" x="1085" y="-438.8" font-family="Times,serif" font-size="14.00">P = { &#45;a + b &gt;= 1 &amp; a &gt;= 0 &amp; &#45;t &gt;= &#45;10 }</text>
<text text-anchor="middle" x="1085" y="-423.8" font-family="Times,serif" font-size="14.00">X = { &#45;a + b &gt;= 1 &amp; &#45;b &#45; 2*t &gt;= &#45;20 &amp; a &gt;= 0 }</text>
</g>
<!-- 7&#45;&gt;8 -->
<g id="edge8" class="edge">
<title>7&#45;&gt;8</title>
<path fill="none" stroke="black" d="M1067.8,-519.76C1070.58,-507.44 1073.95,-492.49 1076.97,-479.1"/>
<polygon fill="black" stroke="black" points="1080.41,-479.76 1079.2,-469.23 1073.58,-478.22 1080.41,-479.76"/>
<text text-anchor="middle" x="1123" y="-490.8" font-family="Times,serif" font-size="14.00">q &amp; sing &amp; t1</text>
</g>
<!-- 9 -->
<g id="node12" class="node">
<title>9</title>
<path fill="none" stroke="black" d="M1373.5,-365C1373.5,-365 820.5,-365 820.5,-365 814.5,-365 808.5,-359 808.5,-353 808.5,-353 808.5,-324 808.5,-324 808.5,-318 814.5,-312 820.5,-312 820.5,-312 1373.5,-312 1373.5,-312 1379.5,-312 1385.5,-318 1385.5,-324 1385.5,-324 1385.5,-353 1385.5,-353 1385.5,-359 1379.5,-365 1373.5,-365"/>
<text text-anchor="middle" x="1097" y="-349.8" font-family="Times,serif" font-size="14.00">11</text>
<text text-anchor="middle" x="1097" y="-334.8" font-family="Times,serif" font-size="14.00">P = { b &gt;= 0 &amp; a &#45; b &gt; &#45;1 &amp; a &gt;= 0 &amp; &#45;t &gt;= &#45;10 }</text>
<text text-anchor="middle" x="1097" y="-319.8" font-family="Times,serif" font-size="14.00">X = { &#45;4*a + b &#45; 6*t &gt;= &#45;56 &amp; b &#45; 2*t &gt;= &#45;18 &amp; b &gt;= 0 &amp; a &#45; b &gt; &#45;1 &amp; a &gt;= 0 }</text>
</g>
<!-- 8&#45;&gt;9 -->
<g id="edge9" class="edge">
<title>8&#45;&gt;9</title>
<path fill="none" stroke="black" d="M1088.03,-415.76C1089.46,-403.56 1091.2,-388.78 1092.77,-375.49"/>
<polygon fill="black" stroke="black" points="1096.28,-375.57 1093.97,-365.23 1089.33,-374.75 1096.28,-375.57"/>
<text text-anchor="middle" x="1146" y="-386.8" font-family="Times,serif" font-size="14.00">!q &amp; !sing &amp; t1</text>
</g>
<!-- 10 -->
<g id="node13" class="node">
<title>10</title>
<path fill="none" stroke="#e31a1c" stroke-width="2" d="M1226.5,-261C1226.5,-261 837.5,-261 837.5,-261 831.5,-261 825.5,-255 825.5,-249 825.5,-249 825.5,-220 825.5,-220 825.5,-214 831.5,-208 837.5,-208 837.5,-208 1226.5,-208 1226.5,-208 1232.5,-208 1238.5,-214 1238.5,-220 1238.5,-220 1238.5,-249 1238.5,-249 1238.5,-255 1232.5,-261 1226.5,-261"/>
<text text-anchor="middle" x="1032" y="-245.8" font-family="Times,serif" font-size="14.00">1</text>
<text text-anchor="middle" x="1032" y="-230.8" font-family="Times,serif" font-size="14.00">P = { t = 0 &amp; b &gt;= 0 &amp; a &#45; b &gt;= 1 }</text>
<text text-anchor="middle" x="1032" y="-215.8" font-family="Times,serif" font-size="14.00">X = { t = 0 &amp; &#45;4*a + b &gt;= &#45;56 &amp; b &gt;= 0 &amp; a &#45; b &gt;= 1 }</text>
</g>
<!-- 9&#45;&gt;10 -->
<g id="edge10" class="edge">
<title>9&#45;&gt;10</title>
<path fill="none" stroke="black" d="M1080.6,-311.76C1072.51,-299.08 1062.65,-283.6 1053.93,-269.92"/>
<polygon fill="black" stroke="black" points="1056.72,-267.78 1048.4,-261.23 1050.82,-271.54 1056.72,-267.78"/>
<text text-anchor="middle" x="1154" y="-282.8" font-family="Times,serif" font-size="14.00">p &amp; !q &amp; sing &amp; t0 &amp; t1</text>
</g>
<!-- 11 -->
<g id="node14" class="node">
<title>11</title>
<path fill="none" stroke="black" d="M1635.5,-261C1635.5,-261 1268.5,-261 1268.5,-261 1262.5,-261 1256.5,-255 1256.5,-249 1256.5,-249 1256.5,-220 1256.5,-220 1256.5,-214 1262.5,-208 1268.5,-208 1268.5,-208 1635.5,-208 1635.5,-208 1641.5,-208 1647.5,-214 1647.5,-220 1647.5,-220 1647.5,-249 1647.5,-249 1647.5,-255 1641.5,-261 1635.5,-261"/>
<text text-anchor="middle" x="1452" y="-245.8" font-family="Times,serif" font-size="14.00">12</text>
<text text-anchor="middle" x="1452" y="-230.8" font-family="Times,serif" font-size="14.00">P = { b &gt;= 0 &amp; a &#45; b &gt;= 1 &amp; &#45;t &gt;= &#45;10 }</text>
<text text-anchor="middle" x="1452" y="-215.8" font-family="Times,serif" font-size="14.00">X = { &#45;4*a + b &#45; 6*t &gt;= &#45;56 &amp; b &gt;= 0 &amp; a &#45; b &gt;= 1 }</text>
</g>
<!-- 9&#45;&gt;11 -->
<g id="edge11" class="edge">
<title>9&#45;&gt;11</title>
<path fill="none" stroke="black" d="M1186.12,-311.89C1237.07,-297.25 1301.06,-278.87 1353.5,-263.8"/>
<polygon fill="black" stroke="black" points="1354.5,-267.15 1363.15,-261.03 1352.57,-260.43 1354.5,-267.15"/>
<text text-anchor="middle" x="1362.5" y="-282.8" font-family="Times,serif" font-size="14.00">p &amp; !q &amp; sing &amp; t1</text>
</g>
<!-- 12 -->
<g id="node15" class="node">
<title>12</title>
<path fill="none" stroke="black" d="M1727.5,-157C1727.5,-157 1176.5,-157 1176.5,-157 1170.5,-157 1164.5,-151 1164.5,-145 1164.5,-145 1164.5,-116 1164.5,-116 1164.5,-110 1170.5,-104 1176.5,-104 1176.5,-104 1727.5,-104 1727.5,-104 1733.5,-104 1739.5,-110 1739.5,-116 1739.5,-116 1739.5,-145 1739.5,-145 1739.5,-151 1733.5,-157 1727.5,-157"/>
<text text-anchor="middle" x="1452" y="-141.8" font-family="Times,serif" font-size="14.00">15</text>
<text text-anchor="middle" x="1452" y="-126.8" font-family="Times,serif" font-size="14.00">P = { &#45;a + b &gt; &#45;1 &amp; b &gt;= 0 &amp; a &gt;= 0 &amp; &#45;t &gt;= &#45;10 }</text>
<text text-anchor="middle" x="1452" y="-111.8" font-family="Times,serif" font-size="14.00">X = { &#45;a + b &gt; &#45;1 &amp; &#45;3*b &#45; 6*t &gt;= &#45;52 &amp; b &gt;= 0 &amp; a &gt;= 0 &amp; 3*a &#45; 3*t &gt;= &#45;23 }</text>
</g>
<!-- 11&#45;&gt;12 -->
<g id="edge12" class="edge">
<title>11&#45;&gt;12</title>
<path fill="none" stroke="black" d="M1452,-207.76C1452,-195.56 1452,-180.78 1452,-167.49"/>
<polygon fill="black" stroke="black" points="1455.5,-167.23 1452,-157.23 1448.5,-167.23 1455.5,-167.23"/>
<text text-anchor="middle" x="1507" y="-178.8" font-family="Times,serif" font-size="14.00">!p &amp; !sing &amp; t1</text>
</g>
<!-- 13 -->
<g id="node16" class="node">
<title>13</title>
<path fill="none" stroke="#e31a1c" stroke-width="2" d="M1670.5,-53C1670.5,-53 1233.5,-53 1233.5,-53 1227.5,-53 1221.5,-47 1221.5,-41 1221.5,-41 1221.5,-12 1221.5,-12 1221.5,-6 1227.5,0 1233.5,0 1233.5,0 1670.5,0 1670.5,0 1676.5,0 1682.5,-6 1682.5,-12 1682.5,-12 1682.5,-41 1682.5,-41 1682.5,-47 1676.5,-53 1670.5,-53"/>
<text text-anchor="middle" x="1452" y="-37.8" font-family="Times,serif" font-size="14.00">3</text>
<text text-anchor="middle" x="1452" y="-22.8" font-family="Times,serif" font-size="14.00">P = { t = 0 &amp; &#45;a + b &gt; &#45;1 &amp; b &gt;= 0 &amp; a &gt;= 0 }</text>
<text text-anchor="middle" x="1452" y="-7.8" font-family="Times,serif" font-size="14.00">X = { t = 0 &amp; &#45;a + b &gt; &#45;1 &amp; &#45;3*b &gt;= &#45;52 &amp; b &gt;= 0 &amp; a &gt;= 0 }</text>
</g>
<!-- 12&#45;&gt;13 -->
<g id="edge13" class="edge">
<title>12&#45;&gt;13</title>
<path fill="none" stroke="black" d="M1452,-103.76C1452,-91.56 1452,-76.78 1452,-63.49"/>
<polygon fill="black" stroke="black" points="1455.5,-63.23 1452,-53.23 1448.5,-63.23 1455.5,-63.23"/>
<text text-anchor="middle" x="1522.5" y="-74.8" font-family="Times,serif" font-size="14.00">!p &amp; sing &amp; t0 &amp; t1</text>
</g>
</g>
</svg>
