<svg xmlns="http://www.w3.org/2000/svg" xmlns:xlink="http://www.w3.org/1999/xlink" contentStyleType="text/css" height="1840px" preserveAspectRatio="none" style="width:1855px;height:1840px;background:#FFFFFF;" version="1.1" viewBox="0 0 1855 1840" width="1855px" zoomAndPan="magnify"><defs/><g><!--cluster automaton--><g id="cluster_automaton"><path d="M117.88,6.602 L197.4197,6.602 A3.75,3.75 0 0 1 199.9197,9.102 L206.9197,31.6699 L1662.88,31.6699 A2.5,2.5 0 0 1 1665.38,34.1699 L1665.38,1739.102 A2.5,2.5 0 0 1 1662.88,1741.602 L117.88,1741.602 A2.5,2.5 0 0 1 115.38,1739.102 L115.38,9.102 A2.5,2.5 0 0 1 117.88,6.602 " fill="none" style="stroke:#000000;stroke-width:1.5;"/><line style="stroke:#000000;stroke-width:1.5;" x1="115.38" x2="206.9197" y1="31.6699" y2="31.6699"/><text fill="#000000" font-family="sans-serif" font-size="14" font-weight="bold" lengthAdjust="spacing" textLength="78.5397" x="119.38" y="23.5679">automaton</text></g><!--class AtomSet--><g id="elem_AtomSet"><rect codeLine="4" fill="#F1F1F1" height="540.6979" id="AtomSet" rx="2.5" ry="2.5" style="stroke:#181818;stroke-width:0.5;" width="506.5902" x="618.88" y="1184.602"/><ellipse cx="839.8272" cy="1200.602" fill="#ADD1B2" rx="11" ry="11" style="stroke:#181818;stroke-width:1.0;"/><path d="M842.796,1206.2426 Q842.2178,1206.5395 841.5772,1206.6801 Q840.9366,1206.8364 840.2335,1206.8364 Q837.7335,1206.8364 836.4053,1205.1957 Q835.0928,1203.5395 835.0928,1200.4145 Q835.0928,1197.2895 836.4053,1195.6332 Q837.7335,1193.977 840.2335,1193.977 Q840.9366,1193.977 841.5772,1194.1332 Q842.2335,1194.2895 842.796,1194.5864 L842.796,1197.3051 Q842.171,1196.727 841.5772,1196.4614 Q840.9835,1196.1801 840.3585,1196.1801 Q839.0147,1196.1801 838.3272,1197.2582 Q837.6397,1198.3207 837.6397,1200.4145 Q837.6397,1202.5082 838.3272,1203.5864 Q839.0147,1204.6489 840.3585,1204.6489 Q840.9835,1204.6489 841.5772,1204.3832 Q842.171,1204.102 842.796,1203.5239 L842.796,1206.2426 Z " fill="#000000"/><text fill="#000000" font-family="sans-serif" font-size="14" lengthAdjust="spacing" textLength="56.1958" x="860.3272" y="1206.034">AtomSet</text><line style="stroke:#181818;stroke-width:0.5;" x1="619.88" x2="1124.4702" y1="1216.602" y2="1216.602"/><ellipse cx="629.88" cy="1254.7039" fill="none" rx="3" ry="3" style="stroke:#038048;stroke-width:1.0;"/><text fill="#000000" font-family="sans-serif" font-size="14" lengthAdjust="spacing" textLength="208.8792" x="638.88" y="1258.6358">using AtomSetHash = std::size_t</text><ellipse cx="629.88" cy="1273.7718" fill="none" rx="3" ry="3" style="stroke:#038048;stroke-width:1.0;"/><text fill="#000000" font-family="sans-serif" font-size="14" lengthAdjust="spacing" textLength="371.1667" x="638.88" y="1277.7038">using AtomSetIterator = std::set&lt;spot::formula&gt;::iterator</text><line style="stroke:#181818;stroke-width:1.0;" x1="619.88" x2="833.8853" y1="1234.1359" y2="1234.1359"/><text fill="#000000" font-family="sans-serif" font-size="14" lengthAdjust="spacing" textLength="76.5797" x="833.8853" y="1239.0679">type aliases</text><line style="stroke:#181818;stroke-width:1.0;" x1="910.465" x2="1124.4702" y1="1234.1359" y2="1234.1359"/><rect fill="none" height="6" style="stroke:#C82930;stroke-width:1.0;" width="6" x="626.88" y="1312.9076"/><text fill="#000000" font-family="sans-serif" font-size="14" lengthAdjust="spacing" textLength="216.2152" x="638.88" y="1319.8396">m_atoms : spot::atomic_prop_set</text><rect fill="none" height="6" style="stroke:#C82930;stroke-width:1.0;" width="6" x="626.88" y="1331.9755"/><text fill="#000000" font-family="sans-serif" font-size="14" lengthAdjust="spacing" textLength="183.6793" x="638.88" y="1338.9075">m_hashcode : AtomSetHash</text><line style="stroke:#181818;stroke-width:1.0;" x1="619.88" x2="824.1343" y1="1295.3397" y2="1295.3397"/><text fill="#000000" font-family="sans-serif" font-size="14" lengthAdjust="spacing" textLength="96.0816" x="824.1343" y="1300.2717">data members</text><line style="stroke:#181818;stroke-width:1.0;" x1="920.2159" x2="1124.4702" y1="1295.3397" y2="1295.3397"/><ellipse cx="629.88" cy="1377.1114" fill="#84BE84" rx="3" ry="3" style="stroke:#038048;stroke-width:1.0;"/><text fill="#000000" font-family="sans-serif" font-size="14" lengthAdjust="spacing" textLength="64.5958" x="638.88" y="1381.0433">AtomSet()</text><ellipse cx="629.88" cy="1396.1793" fill="#84BE84" rx="3" ry="3" style="stroke:#038048;stroke-width:1.0;"/><text fill="#000000" font-family="sans-serif" font-size="14" lengthAdjust="spacing" textLength="288.5389" x="638.88" y="1400.1113">AtomSet(spot::atomic_prop_set&amp;&amp; atomSet)</text><ellipse cx="629.88" cy="1415.2472" fill="#84BE84" rx="3" ry="3" style="stroke:#038048;stroke-width:1.0;"/><text fill="#000000" font-family="sans-serif" font-size="14" lengthAdjust="spacing" textLength="141.2875" x="638.88" y="1419.1792">AtomSet(AtomSet&amp;&amp;)</text><line style="stroke:#181818;stroke-width:1.0;" x1="619.88" x2="830.7913" y1="1356.5434" y2="1356.5434"/><text fill="#000000" font-family="sans-serif" font-size="14" lengthAdjust="spacing" textLength="82.7677" x="830.7913" y="1361.4754">constructors</text><line style="stroke:#181818;stroke-width:1.0;" x1="913.559" x2="1124.4702" y1="1356.5434" y2="1356.5434"/><ellipse cx="629.88" cy="1457.383" fill="#84BE84" rx="3" ry="3" style="stroke:#038048;stroke-width:1.0;"/><text fill="#000000" font-family="sans-serif" font-size="14" lengthAdjust="spacing" textLength="215.5572" x="638.88" y="1461.315">atoms() : spot::atomic_prop_set&amp;</text><ellipse cx="629.88" cy="1476.4509" fill="#84BE84" rx="3" ry="3" style="stroke:#038048;stroke-width:1.0;"/><text fill="#000000" font-family="sans-serif" font-size="14" lengthAdjust="spacing" textLength="316.0909" x="638.88" y="1480.3829">containsAtom(const spot::formula&amp; atom) : bool</text><ellipse cx="629.88" cy="1495.5189" fill="#84BE84" rx="3" ry="3" style="stroke:#038048;stroke-width:1.0;"/><text fill="#000000" font-family="sans-serif" font-size="14" lengthAdjust="spacing" textLength="141.0775" x="638.88" y="1499.4508">hash() : AtomSetHash</text><ellipse cx="629.88" cy="1514.5868" fill="#84BE84" rx="3" ry="3" style="stroke:#038048;stroke-width:1.0;"/><text fill="#000000" font-family="sans-serif" font-size="14" lengthAdjust="spacing" textLength="61.5437" x="638.88" y="1518.5188">size() : int</text><ellipse cx="629.88" cy="1533.6547" fill="#84BE84" rx="3" ry="3" style="stroke:#038048;stroke-width:1.0;"/><text fill="#000000" font-family="sans-serif" font-size="14" lengthAdjust="spacing" textLength="100.5896" x="638.88" y="1537.5867">isEmpty() : bool</text><ellipse cx="629.88" cy="1552.7226" fill="#84BE84" rx="3" ry="3" style="stroke:#038048;stroke-width:1.0;"/><text fill="#000000" font-family="sans-serif" font-size="14" lengthAdjust="spacing" textLength="163.6454" x="638.88" y="1556.6546">begin() : AtomSetIterator</text><ellipse cx="629.88" cy="1571.7905" fill="#84BE84" rx="3" ry="3" style="stroke:#038048;stroke-width:1.0;"/><text fill="#000000" font-family="sans-serif" font-size="14" lengthAdjust="spacing" textLength="151.4234" x="638.88" y="1575.7225">end() : AtomSetIterator</text><ellipse cx="629.88" cy="1590.8584" fill="#84BE84" rx="3" ry="3" style="stroke:#038048;stroke-width:1.0;"/><text fill="#000000" font-family="sans-serif" font-size="14" lengthAdjust="spacing" textLength="138.6415" x="638.88" y="1594.7904">toString() : std::string</text><line style="stroke:#181818;stroke-width:1.0;" x1="619.88" x2="811.5064" y1="1436.8151" y2="1436.8151"/><text fill="#000000" font-family="sans-serif" font-size="14" lengthAdjust="spacing" textLength="121.3375" x="811.5064" y="1441.7471">member functions</text><line style="stroke:#181818;stroke-width:1.0;" x1="932.8439" x2="1124.4702" y1="1436.8151" y2="1436.8151"/><ellipse cx="629.88" cy="1632.9943" fill="none" rx="3" ry="3" style="stroke:#038048;stroke-width:1.0;"/><text fill="#000000" font-family="sans-serif" font-size="14" lengthAdjust="spacing" textLength="216.5652" x="638.88" y="1636.9263">friend struct std::hash&lt;AtomSet&gt;</text><line style="stroke:#181818;stroke-width:1.0;" x1="619.88" x2="849.1382" y1="1612.4264" y2="1612.4264"/><text fill="#000000" font-family="sans-serif" font-size="14" lengthAdjust="spacing" textLength="46.0738" x="849.1382" y="1617.3583">friends</text><line style="stroke:#181818;stroke-width:1.0;" x1="895.212" x2="1124.4702" y1="1612.4264" y2="1612.4264"/><ellipse cx="629.88" cy="1675.1301" fill="#84BE84" rx="3" ry="3" style="stroke:#038048;stroke-width:1.0;"/><text fill="#000000" font-family="sans-serif" font-size="14" lengthAdjust="spacing" textLength="474.1923" x="638.88" y="1679.0621">operator!= (const AtomSet&amp; atomSet1, const AtomSet&amp; atomSet2) : bool</text><ellipse cx="629.88" cy="1694.198" fill="#84BE84" rx="3" ry="3" style="stroke:#038048;stroke-width:1.0;"/><text fill="#000000" font-family="sans-serif" font-size="14" lengthAdjust="spacing" textLength="478.4343" x="638.88" y="1698.13">operator== (const AtomSet&amp; atomSet1, const AtomSet&amp; atomSet2) : bool</text><ellipse cx="629.88" cy="1713.2659" fill="#84BE84" rx="3" ry="3" style="stroke:#038048;stroke-width:1.0;"/><text fill="#000000" font-family="sans-serif" font-size="14" lengthAdjust="spacing" textLength="480.5902" x="638.88" y="1717.1979">operator&lt;&lt; (std::ostream&amp; out, const AtomSet&amp; atomSet) : std::ostream&amp;</text><line style="stroke:#181818;stroke-width:1.0;" x1="619.88" x2="839.8632" y1="1654.5622" y2="1654.5622"/><text fill="#000000" font-family="sans-serif" font-size="14" lengthAdjust="spacing" textLength="64.6238" x="839.8632" y="1659.4942">operators</text><line style="stroke:#181818;stroke-width:1.0;" x1="904.487" x2="1124.4702" y1="1654.5622" y2="1654.5622"/></g><!--class BackwardNFA--><g id="elem_BackwardNFA"><rect codeLine="32" fill="#F1F1F1" height="616.9696" id="BackwardNFA" rx="2.5" ry="2.5" style="stroke:#181818;stroke-width:0.5;" width="970.2128" x="679.38" y="44.602"/><ellipse cx="1114.6106" cy="60.602" fill="#ADD1B2" rx="11" ry="11" style="stroke:#181818;stroke-width:1.0;"/><path d="M1117.5793,66.2426 Q1117.0012,66.5395 1116.3606,66.6801 Q1115.7199,66.8364 1115.0168,66.8364 Q1112.5168,66.8364 1111.1887,65.1957 Q1109.8762,63.5395 1109.8762,60.4145 Q1109.8762,57.2895 1111.1887,55.6332 Q1112.5168,53.977 1115.0168,53.977 Q1115.7199,53.977 1116.3606,54.1332 Q1117.0168,54.2895 1117.5793,54.5864 L1117.5793,57.3051 Q1116.9543,56.727 1116.3606,56.4614 Q1115.7668,56.1801 1115.1418,56.1801 Q1113.7981,56.1801 1113.1106,57.2582 Q1112.4231,58.3207 1112.4231,60.4145 Q1112.4231,62.5082 1113.1106,63.5864 Q1113.7981,64.6489 1115.1418,64.6489 Q1115.7668,64.6489 1116.3606,64.3832 Q1116.9543,64.102 1117.5793,63.5239 L1117.5793,66.2426 Z " fill="#000000"/><text fill="#000000" font-family="sans-serif" font-size="14" lengthAdjust="spacing" textLength="91.2516" x="1135.1106" y="66.034">BackwardNFA</text><line style="stroke:#181818;stroke-width:0.5;" x1="680.38" x2="1648.5928" y1="76.602" y2="76.602"/><ellipse cx="690.38" cy="114.7039" fill="none" rx="3" ry="3" style="stroke:#038048;stroke-width:1.0;"/><text fill="#000000" font-family="sans-serif" font-size="14" lengthAdjust="spacing" textLength="747.6674" x="699.38" y="118.6358">using EdgeIterator = spot::internal::state_out&lt;spot::digraph&lt;spot::twa_graph_state, spot::twa_graph_edge_data&gt;&gt;</text><line style="stroke:#181818;stroke-width:1.0;" x1="680.38" x2="1126.1965" y1="94.1359" y2="94.1359"/><text fill="#000000" font-family="sans-serif" font-size="14" lengthAdjust="spacing" textLength="76.5797" x="1126.1965" y="99.0679">type aliases</text><line style="stroke:#181818;stroke-width:1.0;" x1="1202.7762" x2="1648.5928" y1="94.1359" y2="94.1359"/><rect fill="none" height="6" style="stroke:#C82930;stroke-width:1.0;" width="6" x="687.38" y="153.8397"/><text fill="#000000" font-family="sans-serif" font-size="14" lengthAdjust="spacing" textLength="277.955" x="699.38" y="160.7717">m_discreteLtlFormula : DiscreteLtlFormula</text><rect fill="none" height="6" style="stroke:#C82930;stroke-width:1.0;" width="6" x="687.38" y="172.9076"/><text fill="#000000" font-family="sans-serif" font-size="14" lengthAdjust="spacing" textLength="421.0904" x="699.38" y="179.8396">m_labelDenotationMap : PolyhedralSystemLabelDenotationMap</text><rect fill="none" height="6" style="stroke:#C82930;stroke-width:1.0;" width="6" x="687.38" y="191.9755"/><text fill="#000000" font-family="sans-serif" font-size="14" lengthAdjust="spacing" textLength="249.1991" x="699.38" y="198.9075">m_backwardNfa : spot::twa_graph_ptr</text><rect fill="none" height="6" style="stroke:#C82930;stroke-width:1.0;" width="6" x="687.38" y="211.0434"/><text fill="#000000" font-family="sans-serif" font-size="14" lengthAdjust="spacing" textLength="448.6283" x="699.38" y="217.9754">m_stateDenotationById : std::unordered_map&lt;int, StateDenotation&gt;</text><rect fill="none" height="6" style="stroke:#C82930;stroke-width:1.0;" width="6" x="687.38" y="230.1114"/><text fill="#000000" font-family="sans-serif" font-size="14" lengthAdjust="spacing" textLength="256.563" x="699.38" y="237.0433">m_finalStates : std::unordered_set&lt;int&gt;</text><line style="stroke:#181818;stroke-width:1.0;" x1="680.38" x2="1116.4456" y1="136.2718" y2="136.2718"/><text fill="#000000" font-family="sans-serif" font-size="14" lengthAdjust="spacing" textLength="96.0816" x="1116.4456" y="141.2038">data members</text><line style="stroke:#181818;stroke-width:1.0;" x1="1212.5272" x2="1648.5928" y1="136.2718" y2="136.2718"/><ellipse cx="690.38" cy="275.2472" fill="#84BE84" rx="3" ry="3" style="stroke:#038048;stroke-width:1.0;"/><text fill="#000000" font-family="sans-serif" font-size="14" lengthAdjust="spacing" textLength="944.2128" x="699.38" y="279.1792">BackwardNFA(const DiscreteLtlFormula&amp; discreteLtlFormula, PolyhedralSystemLabelDenotationMap&amp;&amp; polyhedralSystemLabelDenotationMap)</text><ellipse cx="690.38" cy="294.3151" fill="#84BE84" rx="3" ry="3" style="stroke:#038048;stroke-width:1.0;"/><text fill="#000000" font-family="sans-serif" font-size="14" lengthAdjust="spacing" textLength="915.2188" x="699.38" y="298.2471">BackwardNFA(DiscreteLtlFormula&amp;&amp; discreteLtlFormula, PolyhedralSystemLabelDenotationMap&amp;&amp; polyhedralSystemLabelDenotationMap)</text><line style="stroke:#181818;stroke-width:1.0;" x1="680.38" x2="1123.1025" y1="254.6793" y2="254.6793"/><text fill="#000000" font-family="sans-serif" font-size="14" lengthAdjust="spacing" textLength="82.7677" x="1123.1025" y="259.6113">constructors</text><line style="stroke:#181818;stroke-width:1.0;" x1="1205.8702" x2="1648.5928" y1="254.6793" y2="254.6793"/><ellipse cx="690.38" cy="336.4509" fill="#84BE84" rx="3" ry="3" style="stroke:#038048;stroke-width:1.0;"/><text fill="#000000" font-family="sans-serif" font-size="14" lengthAdjust="spacing" textLength="245.8111" x="699.38" y="340.3829">formula() : const DiscreteLtlFormula&amp;</text><ellipse cx="690.38" cy="355.5189" fill="#84BE84" rx="3" ry="3" style="stroke:#038048;stroke-width:1.0;"/><text fill="#000000" font-family="sans-serif" font-size="14" lengthAdjust="spacing" textLength="244.2711" x="699.38" y="359.4508">predecessors(int state) : EdgeIterator</text><ellipse cx="690.38" cy="374.5868" fill="#84BE84" rx="3" ry="3" style="stroke:#038048;stroke-width:1.0;"/><text fill="#000000" font-family="sans-serif" font-size="14" lengthAdjust="spacing" textLength="336.4187" x="699.38" y="378.5188">stateDenotation(int state) : const StateDenotation&amp;</text><ellipse cx="690.38" cy="393.6547" fill="#84BE84" rx="3" ry="3" style="stroke:#038048;stroke-width:1.0;"/><text fill="#000000" font-family="sans-serif" font-size="14" lengthAdjust="spacing" textLength="212.9672" x="699.38" y="397.5867">hasPredecessors(int state) : bool</text><ellipse cx="690.38" cy="412.7226" fill="#84BE84" rx="3" ry="3" style="stroke:#038048;stroke-width:1.0;"/><text fill="#000000" font-family="sans-serif" font-size="14" lengthAdjust="spacing" textLength="176.9733" x="699.38" y="416.6546">isFinalState(int state) : bool</text><ellipse cx="690.38" cy="431.7905" fill="#84BE84" rx="3" ry="3" style="stroke:#038048;stroke-width:1.0;"/><text fill="#000000" font-family="sans-serif" font-size="14" lengthAdjust="spacing" textLength="183.1193" x="699.38" y="435.7225">isInitialState(int state) : bool</text><ellipse cx="690.38" cy="450.8584" fill="#84BE84" rx="3" ry="3" style="stroke:#038048;stroke-width:1.0;"/><text fill="#000000" font-family="sans-serif" font-size="14" lengthAdjust="spacing" textLength="106.3996" x="699.38" y="454.7904">totalEdges() : int</text><ellipse cx="690.38" cy="469.9264" fill="#84BE84" rx="3" ry="3" style="stroke:#038048;stroke-width:1.0;"/><text fill="#000000" font-family="sans-serif" font-size="14" lengthAdjust="spacing" textLength="138.0395" x="699.38" y="473.8583">totalFinalStates() : int</text><ellipse cx="690.38" cy="488.9943" fill="#84BE84" rx="3" ry="3" style="stroke:#038048;stroke-width:1.0;"/><text fill="#000000" font-family="sans-serif" font-size="14" lengthAdjust="spacing" textLength="107.0436" x="699.38" y="492.9263">totalStates() : int</text><ellipse cx="690.38" cy="508.0622" fill="#84BE84" rx="3" ry="3" style="stroke:#038048;stroke-width:1.0;"/><text fill="#000000" font-family="sans-serif" font-size="14" lengthAdjust="spacing" textLength="295.1469" x="699.38" y="511.9942">finalStates() : const std::unordered_set&lt;int&gt;&amp;</text><ellipse cx="690.38" cy="527.1301" fill="#84BE84" rx="3" ry="3" style="stroke:#038048;stroke-width:1.0;"/><text fill="#000000" font-family="sans-serif" font-size="14" lengthAdjust="spacing" textLength="261.9951" x="699.38" y="531.0621">printDotFormat(std::ostream&amp; os) : void</text><ellipse cx="690.38" cy="546.198" fill="#84BE84" rx="3" ry="3" style="stroke:#038048;stroke-width:1.0;"/><text fill="#000000" font-family="sans-serif" font-size="14" lengthAdjust="spacing" textLength="264.949" x="699.38" y="550.13">printHoaFormat(std::ostream&amp; os) : void</text><line style="stroke:#181818;stroke-width:1.0;" x1="680.38" x2="1103.8176" y1="315.883" y2="315.883"/><text fill="#000000" font-family="sans-serif" font-size="14" lengthAdjust="spacing" textLength="121.3375" x="1103.8176" y="320.815">member functions</text><line style="stroke:#181818;stroke-width:1.0;" x1="1225.1551" x2="1648.5928" y1="315.883" y2="315.883"/><ellipse cx="690.38" cy="588.3339" fill="#84BE84" rx="3" ry="3" style="stroke:#038048;stroke-width:1.0;"/><text fill="#000000" font-family="sans-serif" font-size="14" lengthAdjust="spacing" textLength="547.762" x="699.38" y="592.2658">operator&lt;&lt; (std::ostream&amp; out, const BackwardNFA&amp; backwardNfa) : std::ostream&amp;</text><line style="stroke:#181818;stroke-width:1.0;" x1="680.38" x2="1132.1745" y1="567.7659" y2="567.7659"/><text fill="#000000" font-family="sans-serif" font-size="14" lengthAdjust="spacing" textLength="64.6238" x="1132.1745" y="572.6979">operators</text><line style="stroke:#181818;stroke-width:1.0;" x1="1196.7983" x2="1648.5928" y1="567.7659" y2="567.7659"/><rect fill="#F24D5C" height="6" style="stroke:#C82930;stroke-width:1.0;" width="6" x="687.38" y="627.4697"/><text fill="#000000" font-family="sans-serif" font-size="14" lengthAdjust="spacing" textLength="402.4845" x="699.38" y="634.4017">buildAutomaton(const spot::const_twa_graph_ptr&amp; nfa) : void</text><rect fill="#F24D5C" height="6" style="stroke:#C82930;stroke-width:1.0;" width="6" x="687.38" y="646.5376"/><text fill="#000000" font-family="sans-serif" font-size="14" lengthAdjust="spacing" textLength="854.1511" x="699.38" y="653.4696">extractStateDenotationsFromEdgeGuard(const spot::const_twa_graph_ptr&amp; nfa, const bdd&amp; guard) : std::vector&lt;StateDenotation&gt;</text><line style="stroke:#181818;stroke-width:1.0;" x1="680.38" x2="1109.0396" y1="609.9018" y2="609.9018"/><text fill="#000000" font-family="sans-serif" font-size="14" lengthAdjust="spacing" textLength="110.8936" x="1109.0396" y="614.8338">private functions</text><line style="stroke:#181818;stroke-width:1.0;" x1="1219.9332" x2="1648.5928" y1="609.9018" y2="609.9018"/></g><!--class PolyhedralSystemLabelDenotationMap--><g id="elem_PolyhedralSystemLabelDenotationMap"><rect codeLine="64" fill="#F1F1F1" height="403.2225" id="PolyhedralSystemLabelDenotationMap" rx="2.5" ry="2.5" style="stroke:#181818;stroke-width:0.5;" width="868.3351" x="168.38" y="721.602"/><ellipse cx="470.261" cy="737.602" fill="#ADD1B2" rx="11" ry="11" style="stroke:#181818;stroke-width:1.0;"/><path d="M473.2298,743.2426 Q472.6517,743.5395 472.011,743.6801 Q471.3704,743.8364 470.6673,743.8364 Q468.1673,743.8364 466.8392,742.1957 Q465.5267,740.5395 465.5267,737.4145 Q465.5267,734.2895 466.8392,732.6332 Q468.1673,730.977 470.6673,730.977 Q471.3704,730.977 472.011,731.1332 Q472.6673,731.2895 473.2298,731.5864 L473.2298,734.3051 Q472.6048,733.727 472.011,733.4614 Q471.4173,733.1801 470.7923,733.1801 Q469.4485,733.1801 468.761,734.2582 Q468.0735,735.3207 468.0735,737.4145 Q468.0735,739.5082 468.761,740.5864 Q469.4485,741.6489 470.7923,741.6489 Q471.4173,741.6489 472.011,741.3832 Q472.6048,741.102 473.2298,740.5239 L473.2298,743.2426 Z " fill="#000000"/><text fill="#000000" font-family="sans-serif" font-size="14" lengthAdjust="spacing" textLength="256.073" x="490.761" y="743.034">PolyhedralSystemLabelDenotationMap</text><line style="stroke:#181818;stroke-width:0.5;" x1="169.38" x2="1035.7151" y1="753.602" y2="753.602"/><ellipse cx="179.38" cy="791.7039" fill="none" rx="3" ry="3" style="stroke:#038048;stroke-width:1.0;"/><text fill="#000000" font-family="sans-serif" font-size="14" lengthAdjust="spacing" textLength="233.2951" x="188.38" y="795.6358">using AtomSetToString = std::string</text><line style="stroke:#181818;stroke-width:1.0;" x1="169.38" x2="564.2577" y1="771.1359" y2="771.1359"/><text fill="#000000" font-family="sans-serif" font-size="14" lengthAdjust="spacing" textLength="76.5797" x="564.2577" y="776.0679">type aliases</text><line style="stroke:#181818;stroke-width:1.0;" x1="640.8374" x2="1035.7151" y1="771.1359" y2="771.1359"/><rect fill="none" height="6" style="stroke:#C82930;stroke-width:1.0;" width="6" x="176.38" y="830.8397"/><text fill="#000000" font-family="sans-serif" font-size="14" lengthAdjust="spacing" textLength="331.6028" x="188.38" y="837.7717">m_polyhedralSystem : PolyhedralSystemSharedPtr</text><rect fill="none" height="6" style="stroke:#C82930;stroke-width:1.0;" width="6" x="176.38" y="849.9076"/><text fill="#000000" font-family="sans-serif" font-size="14" lengthAdjust="spacing" textLength="792.5229" x="188.38" y="856.8396">m_powersetByLabelsHash : std::unordered_map&lt;AtomSetHash, std::tuple&lt;PowersetConstSharedPtr, AtomSetToString&gt;&gt;</text><line style="stroke:#181818;stroke-width:1.0;" x1="169.38" x2="554.5067" y1="813.2718" y2="813.2718"/><text fill="#000000" font-family="sans-serif" font-size="14" lengthAdjust="spacing" textLength="96.0816" x="554.5067" y="818.2038">data members</text><line style="stroke:#181818;stroke-width:1.0;" x1="650.5884" x2="1035.7151" y1="813.2718" y2="813.2718"/><ellipse cx="179.38" cy="895.0434" fill="#84BE84" rx="3" ry="3" style="stroke:#038048;stroke-width:1.0;"/><text fill="#000000" font-family="sans-serif" font-size="14" lengthAdjust="spacing" textLength="618.8678" x="188.38" y="898.9754">PolyhedralSystemLabelDenotationMap(const PolyhedralSystemSharedPtr&amp; polyhedralSystem)</text><ellipse cx="179.38" cy="914.1114" fill="#84BE84" rx="3" ry="3" style="stroke:#038048;stroke-width:1.0;"/><text fill="#000000" font-family="sans-serif" font-size="14" lengthAdjust="spacing" textLength="580.5358" x="188.38" y="918.0433">PolyhedralSystemLabelDenotationMap(PolyhedralSystemLabelDenotationMap&amp;&amp; other)</text><rect fill="#F24D5C" height="6" style="stroke:#C82930;stroke-width:1.0;" width="6" x="176.38" y="930.1793"/><text fill="#000000" font-family="sans-serif" font-size="14" lengthAdjust="spacing" textLength="326.2548" x="188.38" y="937.1113">PolyhedralSystemLabelDenotationMap() = default</text><line style="stroke:#181818;stroke-width:1.0;" x1="169.38" x2="561.1637" y1="874.4755" y2="874.4755"/><text fill="#000000" font-family="sans-serif" font-size="14" lengthAdjust="spacing" textLength="82.7677" x="561.1637" y="879.4075">constructors</text><line style="stroke:#181818;stroke-width:1.0;" x1="643.9314" x2="1035.7151" y1="874.4755" y2="874.4755"/><ellipse cx="179.38" cy="975.3151" fill="#84BE84" rx="3" ry="3" style="stroke:#038048;stroke-width:1.0;"/><text fill="#000000" font-family="sans-serif" font-size="14" lengthAdjust="spacing" textLength="325.8208" x="188.38" y="979.2471">getPolyhedralSystem() : const PolyhedralSystem&amp;</text><ellipse cx="179.38" cy="994.383" fill="#84BE84" rx="3" ry="3" style="stroke:#038048;stroke-width:1.0;"/><text fill="#000000" font-family="sans-serif" font-size="14" lengthAdjust="spacing" textLength="504.6701" x="188.38" y="998.315">getOrComputeDenotation(const AtomSet&amp; labels) : PowersetConstSharedPtr</text><ellipse cx="179.38" cy="1013.4509" fill="#84BE84" rx="3" ry="3" style="stroke:#038048;stroke-width:1.0;"/><text fill="#000000" font-family="sans-serif" font-size="14" lengthAdjust="spacing" textLength="325.8628" x="188.38" y="1017.3829">containsDenotation(const AtomSet&amp; labels) : bool</text><rect fill="#F24D5C" height="6" style="stroke:#C82930;stroke-width:1.0;" width="6" x="176.38" y="1029.5189"/><text fill="#000000" font-family="sans-serif" font-size="14" lengthAdjust="spacing" textLength="499.5741" x="188.38" y="1036.4508">computeLabelDenotation(const AtomSet&amp; labels) : PowersetConstSharedPtr</text><rect fill="#F24D5C" height="6" style="stroke:#C82930;stroke-width:1.0;" width="6" x="176.38" y="1048.5868"/><text fill="#000000" font-family="sans-serif" font-size="14" lengthAdjust="spacing" textLength="521.5122" x="188.38" y="1055.5188">getAtomInterpretation(const spot::formula&amp; atom) : const AtomInterpretation*</text><rect fill="#F24D5C" height="6" style="stroke:#C82930;stroke-width:1.0;" width="6" x="176.38" y="1067.6547"/><text fill="#000000" font-family="sans-serif" font-size="14" lengthAdjust="spacing" textLength="589.9439" x="188.38" y="1074.5867">insertLabelDenotation(const AtomSet&amp; labels, PowersetConstSharedPtr denotation) : void</text><line style="stroke:#181818;stroke-width:1.0;" x1="169.38" x2="541.8788" y1="954.7472" y2="954.7472"/><text fill="#000000" font-family="sans-serif" font-size="14" lengthAdjust="spacing" textLength="121.3375" x="541.8788" y="959.6792">member functions</text><line style="stroke:#181818;stroke-width:1.0;" x1="663.2163" x2="1035.7151" y1="954.7472" y2="954.7472"/><ellipse cx="179.38" cy="1112.7905" fill="#84BE84" rx="3" ry="3" style="stroke:#038048;stroke-width:1.0;"/><text fill="#000000" font-family="sans-serif" font-size="14" lengthAdjust="spacing" textLength="842.3351" x="188.38" y="1116.7225">operator&lt;&lt; (std::ostream&amp; out, PolyhedralSystemLabelDenotationMap&amp; polyhedralSystemLabelDenotationMap) : std::ostream&amp;</text><line style="stroke:#181818;stroke-width:1.0;" x1="169.38" x2="570.2357" y1="1092.2226" y2="1092.2226"/><text fill="#000000" font-family="sans-serif" font-size="14" lengthAdjust="spacing" textLength="64.6238" x="570.2357" y="1097.1546">operators</text><line style="stroke:#181818;stroke-width:1.0;" x1="634.8594" x2="1035.7151" y1="1092.2226" y2="1092.2226"/></g><!--class StateDenotation--><g id="elem_StateDenotation"><rect codeLine="85" fill="#F1F1F1" height="261.7471" id="StateDenotation" rx="2.5" ry="2.5" style="stroke:#181818;stroke-width:0.5;" width="576.8141" x="1071.88" y="792.102"/><ellipse cx="1302.2982" cy="808.102" fill="#ADD1B2" rx="11" ry="11" style="stroke:#181818;stroke-width:1.0;"/><path d="M1305.267,813.7426 Q1304.6889,814.0395 1304.0482,814.1801 Q1303.4076,814.3364 1302.7045,814.3364 Q1300.2045,814.3364 1298.8764,812.6957 Q1297.5639,811.0395 1297.5639,807.9145 Q1297.5639,804.7895 1298.8764,803.1332 Q1300.2045,801.477 1302.7045,801.477 Q1303.4076,801.477 1304.0482,801.6332 Q1304.7045,801.7895 1305.267,802.0864 L1305.267,804.8051 Q1304.642,804.227 1304.0482,803.9614 Q1303.4545,803.6801 1302.8295,803.6801 Q1301.4857,803.6801 1300.7982,804.7582 Q1300.1107,805.8207 1300.1107,807.9145 Q1300.1107,810.0082 1300.7982,811.0864 Q1301.4857,812.1489 1302.8295,812.1489 Q1303.4545,812.1489 1304.0482,811.8832 Q1304.642,811.602 1305.267,811.0239 L1305.267,813.7426 Z " fill="#000000"/><text fill="#000000" font-family="sans-serif" font-size="14" lengthAdjust="spacing" textLength="107.4776" x="1322.7982" y="813.534">StateDenotation</text><line style="stroke:#181818;stroke-width:0.5;" x1="1072.88" x2="1647.6941" y1="824.102" y2="824.102"/><rect fill="none" height="6" style="stroke:#C82930;stroke-width:1.0;" width="6" x="1079.88" y="859.2039"/><text fill="#000000" font-family="sans-serif" font-size="14" lengthAdjust="spacing" textLength="124.8235" x="1091.88" y="866.1358">m_labels : AtomSet</text><rect fill="none" height="6" style="stroke:#C82930;stroke-width:1.0;" width="6" x="1079.88" y="878.2718"/><text fill="#000000" font-family="sans-serif" font-size="14" lengthAdjust="spacing" textLength="256.549" x="1091.88" y="885.2038">m_powerset : PowersetConstSharedPtr</text><rect fill="none" height="6" style="stroke:#C82930;stroke-width:1.0;" width="6" x="1079.88" y="897.3397"/><text fill="#000000" font-family="sans-serif" font-size="14" lengthAdjust="spacing" textLength="98.3776" x="1091.88" y="904.2717">m_isSing : bool</text><line style="stroke:#181818;stroke-width:1.0;" x1="1072.88" x2="1312.2462" y1="841.6359" y2="841.6359"/><text fill="#000000" font-family="sans-serif" font-size="14" lengthAdjust="spacing" textLength="96.0816" x="1312.2462" y="846.5679">data members</text><line style="stroke:#181818;stroke-width:1.0;" x1="1408.3279" x2="1647.6941" y1="841.6359" y2="841.6359"/><ellipse cx="1082.88" cy="942.4755" fill="#84BE84" rx="3" ry="3" style="stroke:#038048;stroke-width:1.0;"/><text fill="#000000" font-family="sans-serif" font-size="14" lengthAdjust="spacing" textLength="550.8141" x="1091.88" y="946.4075">StateDenotation(AtomSet&amp;&amp; labels, PowersetConstSharedPtr powerset, bool isSing)</text><ellipse cx="1082.88" cy="961.5434" fill="#84BE84" rx="3" ry="3" style="stroke:#038048;stroke-width:1.0;"/><text fill="#000000" font-family="sans-serif" font-size="14" lengthAdjust="spacing" textLength="283.3449" x="1091.88" y="965.4754">StateDenotation(StateDenotation&amp;&amp; other)</text><line style="stroke:#181818;stroke-width:1.0;" x1="1072.88" x2="1318.9032" y1="921.9076" y2="921.9076"/><text fill="#000000" font-family="sans-serif" font-size="14" lengthAdjust="spacing" textLength="82.7677" x="1318.9032" y="926.8396">constructors</text><line style="stroke:#181818;stroke-width:1.0;" x1="1401.6709" x2="1647.6941" y1="921.9076" y2="921.9076"/><ellipse cx="1082.88" cy="1003.6793" fill="#84BE84" rx="3" ry="3" style="stroke:#038048;stroke-width:1.0;"/><text fill="#000000" font-family="sans-serif" font-size="14" lengthAdjust="spacing" textLength="163.4074" x="1091.88" y="1007.6113">labels() : const AtomSet&amp;</text><ellipse cx="1082.88" cy="1022.7472" fill="#84BE84" rx="3" ry="3" style="stroke:#038048;stroke-width:1.0;"/><text fill="#000000" font-family="sans-serif" font-size="14" lengthAdjust="spacing" textLength="256.549" x="1091.88" y="1026.6792">denotation() : PowersetConstSharedPtr</text><ellipse cx="1082.88" cy="1041.8151" fill="#84BE84" rx="3" ry="3" style="stroke:#038048;stroke-width:1.0;"/><text fill="#000000" font-family="sans-serif" font-size="14" lengthAdjust="spacing" textLength="113.3716" x="1091.88" y="1045.7471">isSingular() : bool</text><line style="stroke:#181818;stroke-width:1.0;" x1="1072.88" x2="1299.6183" y1="983.1114" y2="983.1114"/><text fill="#000000" font-family="sans-serif" font-size="14" lengthAdjust="spacing" textLength="121.3375" x="1299.6183" y="988.0433">member functions</text><line style="stroke:#181818;stroke-width:1.0;" x1="1420.9558" x2="1647.6941" y1="983.1114" y2="983.1114"/></g><!--class std::hash--><g id="elem_std::hash"><rect codeLine="99" fill="#F1F1F1" height="143.3396" id="std::hash" rx="2.5" ry="2.5" style="stroke:#181818;stroke-width:0.5;" width="406.3086" x="131.38" y="281.602"/><ellipse cx="276.4073" cy="297.602" fill="#F1F1F1" rx="11" ry="11" style="stroke:#181818;stroke-width:1.0;"/><path d="M275.8916,298.1645 Q274.0323,297.4614 273.376,296.6957 Q272.7354,295.9145 272.7354,294.602 Q272.7354,292.9145 273.8135,291.9457 Q274.8916,290.977 276.7666,290.977 Q277.626,290.977 278.4698,291.1801 Q279.3291,291.3676 280.1729,291.7582 L280.1729,294.1489 Q279.3916,293.5864 278.5635,293.3051 Q277.751,293.0082 276.9541,293.0082 Q276.0791,293.0082 275.5948,293.3676 Q275.126,293.727 275.126,294.3832 Q275.126,294.8989 275.4698,295.2426 Q275.8135,295.5707 276.9073,295.977 L277.9698,296.3832 Q279.4541,296.9301 280.1573,297.8364 Q280.876,298.7426 280.876,300.1176 Q280.876,301.9926 279.7666,302.9145 Q278.6573,303.8364 276.4073,303.8364 Q275.4854,303.8364 274.5635,303.6176 Q273.6416,303.3989 272.7823,302.977 L272.7823,300.4457 Q273.751,301.1332 274.6729,301.477 Q275.5948,301.8207 276.4854,301.8207 Q277.3916,301.8207 277.8916,301.4145 Q278.3916,300.9926 278.3916,300.2582 Q278.3916,299.6957 278.0479,299.2895 Q277.7198,298.8676 277.0948,298.6176 L275.8916,298.1645 Z " fill="#000000"/><text fill="#000000" font-family="sans-serif" font-size="14" lengthAdjust="spacing" textLength="59.7378" x="296.9073" y="303.034">std::hash</text><rect fill="#FFFFFF" height="18.3441" style="stroke:#181818;stroke-width:1.0;stroke-dasharray:2.0,2.0;" width="46.0163" x="494.6723" y="278.602"/><text fill="#000000" font-family="sans-serif" font-size="12" font-style="italic" lengthAdjust="spacing" textLength="44.0163" x="495.6723" y="292.4301">AtomSet</text><line style="stroke:#181818;stroke-width:0.5;" x1="132.38" x2="536.6886" y1="313.602" y2="313.602"/><ellipse cx="142.38" cy="351.7039" fill="#84BE84" rx="3" ry="3" style="stroke:#038048;stroke-width:1.0;"/><text fill="#000000" font-family="sans-serif" font-size="14" lengthAdjust="spacing" textLength="380.3086" x="151.38" y="355.6358">operator() (const AtomSet* const atomSet) : AtomSetHash</text><ellipse cx="142.38" cy="370.7718" fill="#84BE84" rx="3" ry="3" style="stroke:#038048;stroke-width:1.0;"/><text fill="#000000" font-family="sans-serif" font-size="14" lengthAdjust="spacing" textLength="343.6007" x="151.38" y="374.7038">operator() (const AtomSet&amp; atomSet) : AtomSetHash</text><line style="stroke:#181818;stroke-width:1.0;" x1="132.38" x2="302.2224" y1="331.1359" y2="331.1359"/><text fill="#000000" font-family="sans-serif" font-size="14" lengthAdjust="spacing" textLength="64.6238" x="302.2224" y="336.0679">operators</text><line style="stroke:#181818;stroke-width:1.0;" x1="366.8462" x2="536.6886" y1="331.1359" y2="331.1359"/><ellipse cx="142.38" cy="412.9076" fill="#84BE84" rx="3" ry="3" style="stroke:#038048;stroke-width:1.0;"/><text fill="#000000" font-family="sans-serif" font-size="14" lengthAdjust="spacing" text-decoration="underline" textLength="376.0386" x="151.38" y="416.8396">hashCode(const AtomSet* const atomSet) : AtomSetHash</text><line style="stroke:#181818;stroke-width:1.0;" x1="132.38" x2="284.5475" y1="392.3397" y2="392.3397"/><text fill="#000000" font-family="sans-serif" font-size="14" lengthAdjust="spacing" textLength="99.9736" x="284.5475" y="397.2717">static functions</text><line style="stroke:#181818;stroke-width:1.0;" x1="384.5211" x2="536.6886" y1="392.3397" y2="392.3397"/></g><!--class spot::twa_graph_ptr--><g id="elem_spot::twa_graph_ptr"><rect codeLine="108" fill="#F1F1F1" height="48" id="spot::twa_graph_ptr" rx="2.5" ry="2.5" style="stroke:#181818;stroke-width:0.5;" width="163.6415" x="1684.38" y="899.102"/><ellipse cx="1699.38" cy="915.102" fill="#ADD1B2" rx="11" ry="11" style="stroke:#181818;stroke-width:1.0;"/><path d="M1702.3487,920.7426 Q1701.7706,921.0395 1701.13,921.1801 Q1700.4894,921.3364 1699.7862,921.3364 Q1697.2862,921.3364 1695.9581,919.6957 Q1694.6456,918.0395 1694.6456,914.9145 Q1694.6456,911.7895 1695.9581,910.1332 Q1697.2862,908.477 1699.7862,908.477 Q1700.4894,908.477 1701.13,908.6332 Q1701.7862,908.7895 1702.3487,909.0864 L1702.3487,911.8051 Q1701.7237,911.227 1701.13,910.9614 Q1700.5362,910.6801 1699.9112,910.6801 Q1698.5675,910.6801 1697.88,911.7582 Q1697.1925,912.8207 1697.1925,914.9145 Q1697.1925,917.0082 1697.88,918.0864 Q1698.5675,919.1489 1699.9112,919.1489 Q1700.5362,919.1489 1701.13,918.8832 Q1701.7237,918.602 1702.3487,918.0239 L1702.3487,920.7426 Z " fill="#000000"/><text fill="#000000" font-family="sans-serif" font-size="14" lengthAdjust="spacing" textLength="131.6415" x="1713.38" y="920.534">spot::twa_graph_ptr</text><line style="stroke:#181818;stroke-width:0.5;" x1="1685.38" x2="1847.0215" y1="931.102" y2="931.102"/><line style="stroke:#181818;stroke-width:0.5;" x1="1685.38" x2="1847.0215" y1="939.102" y2="939.102"/></g><!--class spot::formula--><g id="elem_spot::formula"><rect codeLine="109" fill="#F1F1F1" height="48" id="spot::formula" rx="2.5" ry="2.5" style="stroke:#181818;stroke-width:0.5;" width="120.6197" x="811.88" y="1785.602"/><ellipse cx="826.88" cy="1801.602" fill="#ADD1B2" rx="11" ry="11" style="stroke:#181818;stroke-width:1.0;"/><path d="M829.8487,1807.2426 Q829.2706,1807.5395 828.63,1807.6801 Q827.9894,1807.8364 827.2862,1807.8364 Q824.7862,1807.8364 823.4581,1806.1957 Q822.1456,1804.5395 822.1456,1801.4145 Q822.1456,1798.2895 823.4581,1796.6332 Q824.7862,1794.977 827.2862,1794.977 Q827.9894,1794.977 828.63,1795.1332 Q829.2862,1795.2895 829.8487,1795.5864 L829.8487,1798.3051 Q829.2237,1797.727 828.63,1797.4614 Q828.0362,1797.1801 827.4112,1797.1801 Q826.0675,1797.1801 825.38,1798.2582 Q824.6925,1799.3207 824.6925,1801.4145 Q824.6925,1803.5082 825.38,1804.5864 Q826.0675,1805.6489 827.4112,1805.6489 Q828.0362,1805.6489 828.63,1805.3832 Q829.2237,1805.102 829.8487,1804.5239 L829.8487,1807.2426 Z " fill="#000000"/><text fill="#000000" font-family="sans-serif" font-size="14" lengthAdjust="spacing" textLength="88.6197" x="840.88" y="1807.034">spot::formula</text><line style="stroke:#181818;stroke-width:0.5;" x1="812.88" x2="931.4997" y1="1817.602" y2="1817.602"/><line style="stroke:#181818;stroke-width:0.5;" x1="812.88" x2="931.4997" y1="1825.602" y2="1825.602"/></g><!--link BackwardNFA to spot::twa_graph_ptr--><g id="link_BackwardNFA_spot::twa_graph_ptr"><path codeLine="111" d="M1618.2638,670.2083 C1637.8938,689.5683 1648.04,701.122 1665.38,721.602 C1712.71,777.542 1743.0129,853.7871 1756.8229,893.3571 " fill="none" id="BackwardNFA-spot::twa_graph_ptr" style="stroke:#181818;stroke-width:1.0;"/><polygon fill="#181818" points="1609.72,661.782,1611.1831,668.8431,1618.2638,670.2083,1616.8007,663.1472,1609.72,661.782" style="stroke:#181818;stroke-width:1.0;"/><polygon fill="#181818" points="1758.8,899.022,1759.611,889.2066,1757.1524,894.3012,1752.0578,891.8427,1758.8,899.022" style="stroke:#181818;stroke-width:1.0;"/><text fill="#000000" font-family="sans-serif" font-size="13" lengthAdjust="spacing" textLength="7.436" x="1748.929" y="887.258">1</text></g><!--link BackwardNFA to PolyhedralSystemLabelDenotationMap--><g id="link_BackwardNFA_PolyhedralSystemLabelDenotationMap"><path codeLine="112" d="M851.4991,670.3214 C831.4791,690.5514 824.2807,697.8375 804.9907,717.3275 " fill="none" id="BackwardNFA-PolyhedralSystemLabelDenotationMap" style="stroke:#181818;stroke-width:1.0;"/><polygon fill="#181818" points="859.94,661.792,852.8764,663.2431,851.4991,670.3214,858.5627,668.8703,859.94,661.792" style="stroke:#181818;stroke-width:1.0;"/><polygon fill="#181818" points="800.77,721.592,809.944,718.0091,804.2873,718.0383,804.2581,712.3815,800.77,721.592" style="stroke:#181818;stroke-width:1.0;"/><text fill="#000000" font-family="sans-serif" font-size="13" lengthAdjust="spacing" textLength="7.436" x="801.9941" y="709.6394">1</text></g><!--link BackwardNFA to StateDenotation--><g id="link_BackwardNFA_StateDenotation"><path codeLine="113" d="M1274.4641,673.1357 C1290.2741,718.9557 1299.9326,746.9302 1313.5126,786.2802 " fill="none" id="BackwardNFA-StateDenotation" style="stroke:#181818;stroke-width:1.0;"/><polygon fill="#181818" points="1270.55,661.792,1268.7258,668.7685,1274.4641,673.1357,1276.2883,666.1591,1270.55,661.792" style="stroke:#181818;stroke-width:1.0;"/><polygon fill="#181818" points="1315.47,791.952,1316.3151,782.1395,1313.8389,787.2255,1308.7528,784.7493,1315.47,791.952" style="stroke:#181818;stroke-width:1.0;"/><text fill="#000000" font-family="sans-serif" font-size="13" lengthAdjust="spacing" textLength="7.163" x="1305.5306" y="780.3683">*</text></g><!--link StateDenotation to AtomSet--><g id="link_StateDenotation_AtomSet"><path codeLine="114" d="M1232.243,1063.261 C1195.773,1102.881 1166.454,1134.7179 1124.774,1179.9879 " fill="none" id="StateDenotation-AtomSet" style="stroke:#181818;stroke-width:1.0;"/><polygon fill="#181818" points="1240.37,1054.432,1233.3635,1056.1375,1232.243,1063.261,1239.2495,1061.5555,1240.37,1054.432" style="stroke:#181818;stroke-width:1.0;"/><polygon fill="#181818" points="1120.71,1184.402,1129.7487,1180.4902,1124.0967,1180.7236,1123.8633,1175.0716,1120.71,1184.402" style="stroke:#181818;stroke-width:1.0;"/><text fill="#000000" font-family="sans-serif" font-size="13" lengthAdjust="spacing" textLength="7.436" x="1120.9909" y="1173.0252">1</text></g><!--link AtomSet to spot::formula--><g id="link_AtomSet_spot::formula"><path codeLine="115" d="M872.38,1737.952 C872.38,1762.042 872.38,1764.832 872.38,1779.542 " fill="none" id="AtomSet-spot::formula" style="stroke:#181818;stroke-width:1.0;"/><polygon fill="#181818" points="872.38,1725.952,868.38,1731.952,872.38,1737.952,876.38,1731.952,872.38,1725.952" style="stroke:#181818;stroke-width:1.0;"/><polygon fill="#181818" points="872.38,1785.542,876.38,1776.542,872.38,1780.542,868.38,1776.542,872.38,1785.542" style="stroke:#181818;stroke-width:1.0;"/><text fill="#000000" font-family="sans-serif" font-size="13" lengthAdjust="spacing" textLength="7.163" x="864.5124" y="1773.7834">*</text></g><!--link std::hash to AtomSet--><g id="link_std::hash_AtomSet"><path codeLine="116" d="M281.0707,429.6968 C186.3507,572.9468 6,898.322 151.38,1124.602 C253.85,1284.102 448.9956,1365.8323 612.7756,1408.7123 " fill="none" id="std::hash-AtomSet" style="stroke:#181818;stroke-width:1.0;stroke-dasharray:7.0,7.0;"/><polygon fill="#181818" points="284.38,424.692,276.0795,429.993,281.6222,428.8627,282.7526,434.4055,284.38,424.692" style="stroke:#181818;stroke-width:1.0;"/><polygon fill="#181818" points="618.58,1410.232,610.8866,1404.0829,613.743,1408.9656,608.8603,1411.8221,618.58,1410.232" style="stroke:#181818;stroke-width:1.0;"/></g><!--SRC=[lLXRRzis57xth-3oeDg9bQ9xD1m3kJIhWMuDuBqBj4JRx2HH8AbaNf3_taDI5vAIR6KecfT4v3dVkNyay_43-hRzJc8fq8UFamB7_-0zGRYKBCEIvUXrWk0dJh4Gw1OMDqHMQ-ed3EMn0F6KOa5463ORLwMW-RxM-8B50TqW8PF5Gj3_I2G71DUIS33B6s4Ybw9WSh7OCPwLALuj5hIIiPn8iCGe8zcMSDk9C8j0C1DeWGo8-g9nL71MH01j2nx0nPWb16GjfoqRCSk5v6KCbfr0A-dfhBlKQpG843RxFHhLxo2OMPPDO6XNvh6au8LjNSStdGr56BIIuB_4D1VAn5G7WvpC6hSKqfQnjDLJYT46-j9ofQgfTsbkrPIApraXZzCksfRiQMx3hVrgNf4yEIqWsKPoQ1eJjcuJ_MsbRCSfm3YPCal8rD2egT2MbPcLfSqAOzBHhnT_kq5L-kfYrVNyD4Vz6xztyr2ZtVnKjEKIJNLa3C8aE0iGA-KGJfEzMbZZlKsiWRy3EdZ1FFdhyVOTG_yvsHDxa7MNGNyGdkDK5GjB4e5ZrMGdTCznSQY-v0kEz7UavUR8NoQ07gc1Nwr6CK12HSo995zb-cWw7U9-w2pQAYdUalI1v0myW87x4nUWyiJIuu4a7AURev0a-zeHiY6sTUPsk9dDDeP2SbjOHzf2tHtNILsRCcSy8PmaKOQB9IHnZZQkzCf6sb58iHOGNGH5fe2m6a5gLk6hzkncB43TrCv7f0a8i3WhDEltfSUBN-J6QHgkE5Gpqc2-Ml42oa5Y8WIaVGebGRe3bB8zEnRBkYLtLOmzhoi2Xy2V1ksvF4B5OzD0f-NMEPLqXAG4Vr8LbEYU4dglDJWaCRIvypIhCws_vvtamy83aweiMFfyAHJKCwE9f_25uR4APmwGaoHjDNk0B1Bf9sjZ3VnxXYpqTcQuBMcQtDRNEUVWrtz73Yi5A3Ust838lvBZM7ez9XuvorHj_oZ1oL7GTPZR90dGNgarWJqJnKBBNdPp3gNpe_t-2-hVrPMYkNVw5uhXyyKdaPwZOdF0q8jFBkaNx0MmYBmxwW24lYFtihvryPgRVLaMALa-LGZtAgMDZRaVqseCuPzFQbNVmTYwT3fx5_mencRoGBX5oYDmPr3JXEnmcSgHPBudqiUr2CRV2Xp5R_oUPKNfiBLt_TAt2yqQ_GNiNjd7O3cq2sNMJdZf-D-UX12PqbghInmSNWxSm2kYjULgNRQe41hXSfIJym4NeRIrua_YuH5zEERYSFvoxJ6TGrh3T6FIqJwF-YXbH46pY8gD8Zo_SmOPmdEtVQgUgr3jrLnRGiRkR1ZOlybqf_xaz1flfcuBRfodSDipqp5ZQ3o6vkRkWxQgvk2BqgdeoLO4NBVjBolVhQTQx_Dx420ufng6wiP6u_ualfhDDwG2kcS9URTxRnD8ZsdqdjSFUdrpDYlsKCiJ-z5v6OOhTF7felS5rIiuufdMrRkyyATnuazdOw2Uk_gVOGs24ycaQGUqlBw-NjLgFm00]--></g></svg>