<svg xmlns="http://www.w3.org/2000/svg" xmlns:xlink="http://www.w3.org/1999/xlink" contentStyleType="text/css" height="1322px" preserveAspectRatio="none" style="width:876px;height:1322px;background:#FFFFFF;" version="1.1" viewBox="0 0 876 1322" width="876px" zoomAndPan="magnify"><defs/><g><!--cluster discretization--><g id="cluster_discretization"><path d="M8.5,6.602 L105.2596,6.602 A3.75,3.75 0 0 1 107.7596,9.102 L114.7596,31.6699 L726.5,31.6699 A2.5,2.5 0 0 1 729,34.1699 L729,1313.102 A2.5,2.5 0 0 1 726.5,1315.602 L8.5,1315.602 A2.5,2.5 0 0 1 6,1313.102 L6,9.102 A2.5,2.5 0 0 1 8.5,6.602 " fill="none" style="stroke:#000000;stroke-width:1.5;"/><line style="stroke:#000000;stroke-width:1.5;" x1="6" x2="114.7596" y1="31.6699" y2="31.6699"/><text fill="#000000" font-family="sans-serif" font-size="14" font-weight="bold" lengthAdjust="spacing" textLength="95.7596" x="10" y="23.5679">discretization</text></g><!--class DiscreteFiniteLtlFormula--><g id="elem_DiscreteFiniteLtlFormula"><rect codeLine="2" fill="#F1F1F1" height="307.8829" id="DiscreteFiniteLtlFormula" rx="2.5" ry="2.5" style="stroke:#181818;stroke-width:0.5;" width="674.4218" x="39" y="44.602"/><ellipse cx="291.6082" cy="60.602" fill="#ADD1B2" rx="11" ry="11" style="stroke:#181818;stroke-width:1.0;"/><path d="M294.577,66.2426 Q293.9988,66.5395 293.3582,66.6801 Q292.7176,66.8364 292.0145,66.8364 Q289.5145,66.8364 288.1863,65.1957 Q286.8738,63.5395 286.8738,60.4145 Q286.8738,57.2895 288.1863,55.6332 Q289.5145,53.977 292.0145,53.977 Q292.7176,53.977 293.3582,54.1332 Q294.0145,54.2895 294.577,54.5864 L294.577,57.3051 Q293.952,56.727 293.3582,56.4614 Q292.7645,56.1801 292.1395,56.1801 Q290.7957,56.1801 290.1082,57.2582 Q289.4207,58.3207 289.4207,60.4145 Q289.4207,62.5082 290.1082,63.5864 Q290.7957,64.6489 292.1395,64.6489 Q292.7645,64.6489 293.3582,64.3832 Q293.952,64.102 294.577,63.5239 L294.577,66.2426 Z " fill="#000000"/><text fill="#000000" font-family="sans-serif" font-size="14" lengthAdjust="spacing" textLength="160.7054" x="312.1082" y="66.034">DiscreteFiniteLtlFormula</text><line style="stroke:#181818;stroke-width:0.5;" x1="40" x2="712.4218" y1="76.602" y2="76.602"/><rect fill="none" height="6" style="stroke:#C82930;stroke-width:1.0;" width="6" x="47" y="111.7039"/><text fill="#000000" font-family="sans-serif" font-size="14" lengthAdjust="spacing" textLength="278.0529" x="59" y="118.6358">m_discreteFiniteLtlFormula : spot::formula</text><line style="stroke:#181818;stroke-width:1.0;" x1="40" x2="328.1701" y1="94.1359" y2="94.1359"/><text fill="#000000" font-family="sans-serif" font-size="14" lengthAdjust="spacing" textLength="96.0816" x="328.1701" y="99.0679">data members</text><line style="stroke:#181818;stroke-width:1.0;" x1="424.2517" x2="712.4218" y1="94.1359" y2="94.1359"/><rect fill="#F24D5C" height="6" style="stroke:#C82930;stroke-width:1.0;" width="6" x="47" y="153.8397"/><text fill="#000000" font-family="sans-serif" font-size="14" lengthAdjust="spacing" textLength="169.1053" x="59" y="160.7717">DiscreteFiniteLtlFormula()</text><rect fill="#F24D5C" height="6" style="stroke:#C82930;stroke-width:1.0;" width="6" x="47" y="172.9076"/><text fill="#000000" font-family="sans-serif" font-size="14" lengthAdjust="spacing" textLength="334.1368" x="59" y="179.8396">DiscreteFiniteLtlFormula(spot::formula&amp;&amp; formula)</text><line style="stroke:#181818;stroke-width:1.0;" x1="40" x2="334.8271" y1="136.2718" y2="136.2718"/><text fill="#000000" font-family="sans-serif" font-size="14" lengthAdjust="spacing" textLength="82.7677" x="334.8271" y="141.2038">constructors</text><line style="stroke:#181818;stroke-width:1.0;" x1="417.5948" x2="712.4218" y1="136.2718" y2="136.2718"/><ellipse cx="50" cy="218.0434" fill="#84BE84" rx="3" ry="3" style="stroke:#038048;stroke-width:1.0;"/><text fill="#000000" font-family="sans-serif" font-size="14" lengthAdjust="spacing" textLength="170.5753" x="59" y="221.9754">formula() : spot::formula&amp;</text><ellipse cx="50" cy="237.1114" fill="#84BE84" rx="3" ry="3" style="stroke:#038048;stroke-width:1.0;"/><text fill="#000000" font-family="sans-serif" font-size="14" lengthAdjust="spacing" textLength="173.5713" x="59" y="241.0433">toLtl() : DiscreteLtlFormula</text><line style="stroke:#181818;stroke-width:1.0;" x1="40" x2="315.5421" y1="197.4755" y2="197.4755"/><text fill="#000000" font-family="sans-serif" font-size="14" lengthAdjust="spacing" textLength="121.3375" x="315.5421" y="202.4075">member functions</text><line style="stroke:#181818;stroke-width:1.0;" x1="436.8797" x2="712.4218" y1="197.4755" y2="197.4755"/><rect fill="#F24D5C" height="6" style="stroke:#C82930;stroke-width:1.0;" width="6" x="47" y="276.2472"/><text fill="#000000" font-family="sans-serif" font-size="14" lengthAdjust="spacing" text-decoration="underline" textLength="407.6366" x="59" y="283.1792">discretize(spot::formula&amp;&amp; formula) : DiscreteFiniteLtlFormula</text><line style="stroke:#181818;stroke-width:1.0;" x1="40" x2="326.2241" y1="258.6793" y2="258.6793"/><text fill="#000000" font-family="sans-serif" font-size="14" lengthAdjust="spacing" textLength="99.9736" x="326.2241" y="263.6113">static functions</text><line style="stroke:#181818;stroke-width:1.0;" x1="426.1977" x2="712.4218" y1="258.6793" y2="258.6793"/><rect fill="#F24D5C" height="6" style="stroke:#C82930;stroke-width:1.0;" width="6" x="47" y="318.383"/><text fill="#000000" font-family="sans-serif" font-size="14" lengthAdjust="spacing" textLength="648.4218" x="59" y="325.315">operator== (const DiscreteFiniteLtlFormula&amp; discreteFormula, const spot::formula&amp; formula) : bool</text><rect fill="#F24D5C" height="6" style="stroke:#C82930;stroke-width:1.0;" width="6" x="47" y="337.4509"/><text fill="#000000" font-family="sans-serif" font-size="14" lengthAdjust="spacing" textLength="582.552" x="59" y="344.3829">operator&lt;&lt; (std::ostream&amp; os, const DiscreteFiniteLtlFormula&amp; formula) : std :: ostream&amp;</text><line style="stroke:#181818;stroke-width:1.0;" x1="40" x2="343.899" y1="300.8151" y2="300.8151"/><text fill="#000000" font-family="sans-serif" font-size="14" lengthAdjust="spacing" textLength="64.6238" x="343.899" y="305.7471">operators</text><line style="stroke:#181818;stroke-width:1.0;" x1="408.5228" x2="712.4218" y1="300.8151" y2="300.8151"/></g><!--class DiscreteLtlFormula--><g id="elem_DiscreteLtlFormula"><rect codeLine="18" fill="#F1F1F1" height="288.815" id="DiscreteLtlFormula" rx="2.5" ry="2.5" style="stroke:#181818;stroke-width:0.5;" width="654.3318" x="22" y="511.602"/><ellipse cx="282.6092" cy="527.602" fill="#ADD1B2" rx="11" ry="11" style="stroke:#181818;stroke-width:1.0;"/><path d="M285.5779,533.2426 Q284.9998,533.5395 284.3592,533.6801 Q283.7185,533.8364 283.0154,533.8364 Q280.5154,533.8364 279.1873,532.1957 Q277.8748,530.5395 277.8748,527.4145 Q277.8748,524.2895 279.1873,522.6332 Q280.5154,520.977 283.0154,520.977 Q283.7185,520.977 284.3592,521.1332 Q285.0154,521.2895 285.5779,521.5864 L285.5779,524.3051 Q284.9529,523.727 284.3592,523.4614 Q283.7654,523.1801 283.1404,523.1801 Q281.7967,523.1801 281.1092,524.2582 Q280.4217,525.3207 280.4217,527.4145 Q280.4217,529.5082 281.1092,530.5864 Q281.7967,531.6489 283.1404,531.6489 Q283.7654,531.6489 284.3592,531.3832 Q284.9529,531.102 285.5779,530.5239 L285.5779,533.2426 Z " fill="#000000"/><text fill="#000000" font-family="sans-serif" font-size="14" lengthAdjust="spacing" textLength="124.6135" x="303.1092" y="533.034">DiscreteLtlFormula</text><line style="stroke:#181818;stroke-width:0.5;" x1="23" x2="675.3318" y1="543.602" y2="543.602"/><rect fill="none" height="6" style="stroke:#C82930;stroke-width:1.0;" width="6" x="30" y="578.7039"/><text fill="#000000" font-family="sans-serif" font-size="14" lengthAdjust="spacing" textLength="241.9611" x="42" y="585.6358">m_discreteLtlFormula : spot::formula</text><line style="stroke:#181818;stroke-width:1.0;" x1="23" x2="301.1251" y1="561.1359" y2="561.1359"/><text fill="#000000" font-family="sans-serif" font-size="14" lengthAdjust="spacing" textLength="96.0816" x="301.1251" y="566.0679">data members</text><line style="stroke:#181818;stroke-width:1.0;" x1="397.2067" x2="675.3318" y1="561.1359" y2="561.1359"/><rect fill="#F24D5C" height="6" style="stroke:#C82930;stroke-width:1.0;" width="6" x="30" y="620.8397"/><text fill="#000000" font-family="sans-serif" font-size="14" lengthAdjust="spacing" textLength="133.0135" x="42" y="627.7717">DiscreteLtlFormula()</text><rect fill="#F24D5C" height="6" style="stroke:#C82930;stroke-width:1.0;" width="6" x="30" y="639.9076"/><text fill="#000000" font-family="sans-serif" font-size="14" lengthAdjust="spacing" textLength="298.0449" x="42" y="646.8396">DiscreteLtlFormula(spot::formula&amp;&amp; formula)</text><line style="stroke:#181818;stroke-width:1.0;" x1="23" x2="307.7821" y1="603.2718" y2="603.2718"/><text fill="#000000" font-family="sans-serif" font-size="14" lengthAdjust="spacing" textLength="82.7677" x="307.7821" y="608.2038">constructors</text><line style="stroke:#181818;stroke-width:1.0;" x1="390.5498" x2="675.3318" y1="603.2718" y2="603.2718"/><ellipse cx="33" cy="685.0434" fill="#84BE84" rx="3" ry="3" style="stroke:#038048;stroke-width:1.0;"/><text fill="#000000" font-family="sans-serif" font-size="14" lengthAdjust="spacing" textLength="170.5753" x="42" y="688.9754">formula() : spot::formula&amp;</text><line style="stroke:#181818;stroke-width:1.0;" x1="23" x2="288.4972" y1="664.4755" y2="664.4755"/><text fill="#000000" font-family="sans-serif" font-size="14" lengthAdjust="spacing" textLength="121.3375" x="288.4972" y="669.4075">member functions</text><line style="stroke:#181818;stroke-width:1.0;" x1="409.8347" x2="675.3318" y1="664.4755" y2="664.4755"/><rect fill="#F24D5C" height="6" style="stroke:#C82930;stroke-width:1.0;" width="6" x="30" y="724.1793"/><text fill="#000000" font-family="sans-serif" font-size="14" lengthAdjust="spacing" text-decoration="underline" textLength="403.8005" x="42" y="731.1113">discretizeToLtl(spot::formula&amp;&amp; formula) : DiscreteLtlFormula</text><line style="stroke:#181818;stroke-width:1.0;" x1="23" x2="299.1791" y1="706.6114" y2="706.6114"/><text fill="#000000" font-family="sans-serif" font-size="14" lengthAdjust="spacing" textLength="99.9736" x="299.1791" y="711.5433">static functions</text><line style="stroke:#181818;stroke-width:1.0;" x1="399.1527" x2="675.3318" y1="706.6114" y2="706.6114"/><rect fill="#F24D5C" height="6" style="stroke:#C82930;stroke-width:1.0;" width="6" x="30" y="766.3151"/><text fill="#000000" font-family="sans-serif" font-size="14" lengthAdjust="spacing" textLength="628.3318" x="42" y="773.2471">operator== (const DiscreteLtlFormula&amp; discreteLtlFormula, const spot::formula&amp; formula) : bool</text><rect fill="#F24D5C" height="6" style="stroke:#C82930;stroke-width:1.0;" width="6" x="30" y="785.383"/><text fill="#000000" font-family="sans-serif" font-size="14" lengthAdjust="spacing" textLength="546.46" x="42" y="792.315">operator&lt;&lt; (std::ostream&amp; os, const DiscreteLtlFormula&amp; formula) : std :: ostream&amp;</text><line style="stroke:#181818;stroke-width:1.0;" x1="23" x2="316.854" y1="748.7472" y2="748.7472"/><text fill="#000000" font-family="sans-serif" font-size="14" lengthAdjust="spacing" textLength="64.6238" x="316.854" y="753.6792">operators</text><line style="stroke:#181818;stroke-width:1.0;" x1="381.4778" x2="675.3318" y1="748.7472" y2="748.7472"/></g><g id="elem_discretization_h_cpp"><rect fill="#F1F1F1" height="420.4263" style="stroke:#181818;stroke-width:0.5;" width="528.7242" x="134.5" y="879.602"/><text fill="#000000" font-family="sans-serif" font-size="14" lengthAdjust="spacing" textLength="133.2375" x="332.2434" y="896.5679">discretization_h_cpp</text><line style="stroke:#181818;stroke-width:0.5;" x1="135.5" x2="662.2242" y1="902.6699" y2="902.6699"/><ellipse cx="145.5" cy="917.7039" fill="#84BE84" rx="3" ry="3" style="stroke:#038048;stroke-width:1.0;"/><text fill="#000000" font-family="sans-serif" font-size="14" lengthAdjust="spacing" textLength="426.3825" x="154.5" y="921.6358">toDiscretizedLtlFormula(spot::formula&amp;&amp; formula): spot::formula</text><ellipse cx="145.5" cy="936.7718" fill="#84BE84" rx="3" ry="3" style="stroke:#038048;stroke-width:1.0;"/><text fill="#000000" font-family="sans-serif" font-size="14" lengthAdjust="spacing" textLength="502.7242" x="154.5" y="940.7038">imposeSingOpenLastFiniteProperty(spot::formula&amp;&amp; formula): spot::formula</text><ellipse cx="145.5" cy="955.8397" fill="#84BE84" rx="3" ry="3" style="stroke:#038048;stroke-width:1.0;"/><text fill="#000000" font-family="sans-serif" font-size="14" lengthAdjust="spacing" textLength="410.3805" x="154.5" y="959.7717">toDiscretizedFormula(spot::formula&amp;&amp; formula): spot::formula</text><ellipse cx="145.5" cy="974.9076" fill="#84BE84" rx="3" ry="3" style="stroke:#038048;stroke-width:1.0;"/><text fill="#000000" font-family="sans-serif" font-size="14" lengthAdjust="spacing" textLength="466.6324" x="154.5" y="978.8396">imposeSingOpenLastProperty(spot::formula&amp;&amp; formula): spot::formula</text><rect fill="#F24D5C" height="6" style="stroke:#C82930;stroke-width:1.0;" width="6" x="142.5" y="1014.0434"/><text fill="#000000" font-family="sans-serif" font-size="14" lengthAdjust="spacing" textLength="303.7989" x="154.5" y="1020.9754">dsctF(spot::formula&amp;&amp; formula): spot::formula</text><rect fill="#F24D5C" height="6" style="stroke:#C82930;stroke-width:1.0;" width="6" x="142.5" y="1033.1114"/><text fill="#000000" font-family="sans-serif" font-size="14" lengthAdjust="spacing" textLength="306.7249" x="154.5" y="1040.0433">dsctG(spot::formula&amp;&amp; formula): spot::formula</text><rect fill="#F24D5C" height="6" style="stroke:#C82930;stroke-width:1.0;" width="6" x="142.5" y="1052.1793"/><text fill="#000000" font-family="sans-serif" font-size="14" lengthAdjust="spacing" textLength="304.7369" x="154.5" y="1059.1113">dsctX(spot::formula&amp;&amp; formula): spot::formula</text><rect fill="#F24D5C" height="6" style="stroke:#C82930;stroke-width:1.0;" width="6" x="142.5" y="1071.2472"/><text fill="#000000" font-family="sans-serif" font-size="14" lengthAdjust="spacing" textLength="306.7669" x="154.5" y="1078.1792">dsctU(spot::formula&amp;&amp; formula): spot::formula</text><rect fill="#F24D5C" height="6" style="stroke:#C82930;stroke-width:1.0;" width="6" x="142.5" y="1090.3151"/><text fill="#000000" font-family="sans-serif" font-size="14" lengthAdjust="spacing" textLength="305.2409" x="154.5" y="1097.2471">dsctR(spot::formula&amp;&amp; formula): spot::formula</text><rect fill="#F24D5C" height="6" style="stroke:#C82930;stroke-width:1.0;" width="6" x="142.5" y="1109.383"/><text fill="#000000" font-family="sans-serif" font-size="14" lengthAdjust="spacing" textLength="309.2309" x="154.5" y="1116.315">dsctM(spot::formula&amp;&amp; formula): spot::formula</text><rect fill="#F24D5C" height="6" style="stroke:#C82930;stroke-width:1.0;" width="6" x="142.5" y="1128.4509"/><text fill="#000000" font-family="sans-serif" font-size="14" lengthAdjust="spacing" textLength="309.5529" x="154.5" y="1135.3829">dsctW(spot::formula&amp;&amp; formula): spot::formula</text><line style="stroke:#181818;stroke-width:1.0;" x1="135.5" x2="327.3014" y1="996.4755" y2="996.4755"/><text fill="#000000" font-family="sans-serif" font-size="14" lengthAdjust="spacing" textLength="143.1214" x="327.3014" y="1001.4075">discretization + to LTL</text><line style="stroke:#181818;stroke-width:1.0;" x1="470.4228" x2="662.2242" y1="996.4755" y2="996.4755"/><rect fill="#F24D5C" height="6" style="stroke:#C82930;stroke-width:1.0;" width="6" x="142.5" y="1170.5868"/><text fill="#000000" font-family="sans-serif" font-size="14" lengthAdjust="spacing" textLength="298.7449" x="154.5" y="1177.5188">dscF(spot::formula&amp;&amp; formula): spot::formula</text><rect fill="#F24D5C" height="6" style="stroke:#C82930;stroke-width:1.0;" width="6" x="142.5" y="1189.6547"/><text fill="#000000" font-family="sans-serif" font-size="14" lengthAdjust="spacing" textLength="301.6709" x="154.5" y="1196.5867">dscG(spot::formula&amp;&amp; formula): spot::formula</text><rect fill="#F24D5C" height="6" style="stroke:#C82930;stroke-width:1.0;" width="6" x="142.5" y="1208.7226"/><text fill="#000000" font-family="sans-serif" font-size="14" lengthAdjust="spacing" textLength="299.6829" x="154.5" y="1215.6546">dscX(spot::formula&amp;&amp; formula): spot::formula</text><rect fill="#F24D5C" height="6" style="stroke:#C82930;stroke-width:1.0;" width="6" x="142.5" y="1227.7905"/><text fill="#000000" font-family="sans-serif" font-size="14" lengthAdjust="spacing" textLength="301.7129" x="154.5" y="1234.7225">dscU(spot::formula&amp;&amp; formula): spot::formula</text><rect fill="#F24D5C" height="6" style="stroke:#C82930;stroke-width:1.0;" width="6" x="142.5" y="1246.8584"/><text fill="#000000" font-family="sans-serif" font-size="14" lengthAdjust="spacing" textLength="300.1869" x="154.5" y="1253.7904">dscR(spot::formula&amp;&amp; formula): spot::formula</text><rect fill="#F24D5C" height="6" style="stroke:#C82930;stroke-width:1.0;" width="6" x="142.5" y="1265.9264"/><text fill="#000000" font-family="sans-serif" font-size="14" lengthAdjust="spacing" textLength="304.1769" x="154.5" y="1272.8583">dscM(spot::formula&amp;&amp; formula): spot::formula</text><rect fill="#F24D5C" height="6" style="stroke:#C82930;stroke-width:1.0;" width="6" x="142.5" y="1284.9943"/><text fill="#000000" font-family="sans-serif" font-size="14" lengthAdjust="spacing" textLength="304.4989" x="154.5" y="1291.9263">dscW(spot::formula&amp;&amp; formula): spot::formula</text><line style="stroke:#181818;stroke-width:1.0;" x1="135.5" x2="338.9983" y1="1153.0189" y2="1153.0189"/><text fill="#000000" font-family="sans-serif" font-size="14" lengthAdjust="spacing" textLength="119.7275" x="338.9983" y="1157.9508">only discretization</text><line style="stroke:#181818;stroke-width:1.0;" x1="458.7259" x2="662.2242" y1="1153.0189" y2="1153.0189"/></g><!--class spot::formula--><g id="elem_spot::formula"><rect codeLine="57" fill="#F1F1F1" height="48" id="spot::formula" rx="2.5" ry="2.5" style="stroke:#181818;stroke-width:0.5;" width="120.6197" x="748.5" y="632.102"/><ellipse cx="763.5" cy="648.102" fill="#ADD1B2" rx="11" ry="11" style="stroke:#181818;stroke-width:1.0;"/><path d="M766.4688,653.7426 Q765.8906,654.0395 765.25,654.1801 Q764.6094,654.3364 763.9063,654.3364 Q761.4063,654.3364 760.0781,652.6957 Q758.7656,651.0395 758.7656,647.9145 Q758.7656,644.7895 760.0781,643.1332 Q761.4063,641.477 763.9063,641.477 Q764.6094,641.477 765.25,641.6332 Q765.9063,641.7895 766.4688,642.0864 L766.4688,644.8051 Q765.8438,644.227 765.25,643.9614 Q764.6563,643.6801 764.0313,643.6801 Q762.6875,643.6801 762,644.7582 Q761.3125,645.8207 761.3125,647.9145 Q761.3125,650.0082 762,651.0864 Q762.6875,652.1489 764.0313,652.1489 Q764.6563,652.1489 765.25,651.8832 Q765.8438,651.602 766.4688,651.0239 L766.4688,653.7426 Z " fill="#000000"/><text fill="#000000" font-family="sans-serif" font-size="14" lengthAdjust="spacing" textLength="88.6197" x="777.5" y="653.534">spot::formula</text><line style="stroke:#181818;stroke-width:0.5;" x1="749.5" x2="868.1197" y1="664.102" y2="664.102"/><line style="stroke:#181818;stroke-width:0.5;" x1="749.5" x2="868.1197" y1="672.102" y2="672.102"/></g><!--link DiscreteFiniteLtlFormula to DiscreteLtlFormula--><g id="link_DiscreteFiniteLtlFormula_DiscreteLtlFormula"><path codeLine="59" d="M366.92,352.862 C363.88,404.022 360.8753,454.8225 357.8853,505.2325 " fill="none" id="DiscreteFiniteLtlFormula-to-DiscreteLtlFormula" style="stroke:#181818;stroke-width:1.0;stroke-dasharray:7.0,7.0;"/><polygon fill="#181818" points="357.53,511.222,362.0559,502.4746,357.826,506.2308,354.0699,502.0009,357.53,511.222" style="stroke:#181818;stroke-width:1.0;"/><text fill="#000000" font-family="sans-serif" font-size="13" lengthAdjust="spacing" textLength="38.259" x="364" y="428.499">create</text></g><!--link DiscreteFiniteLtlFormula to spot::formula--><g id="link_DiscreteFiniteLtlFormula_spot::formula"><path codeLine="60" d="M678.4273,360.7972 C688.8573,370.3072 689.87,372.182 699,382.602 C765.91,458.962 794.1251,575.3803 803.8851,626.0503 " fill="none" id="DiscreteFiniteLtlFormula-spot::formula" style="stroke:#181818;stroke-width:1.0;"/><polygon fill="#181818" points="669.56,352.712,671.2986,359.7104,678.4273,360.7972,676.6887,353.7988,669.56,352.712" style="stroke:#181818;stroke-width:1.0;"/><polygon fill="#181818" points="805.02,631.942,807.2455,622.3479,804.0743,627.0322,799.3899,623.861,805.02,631.942" style="stroke:#181818;stroke-width:1.0;"/><text fill="#000000" font-family="sans-serif" font-size="13" lengthAdjust="spacing" textLength="7.436" x="796.1194" y="620.1565">1</text></g><!--link DiscreteLtlFormula to spot::formula--><g id="link_DiscreteLtlFormula_spot::formula"><path codeLine="61" d="M688.03,656.102 C712.18,656.102 718.34,656.102 742.49,656.102 " fill="none" id="DiscreteLtlFormula-spot::formula" style="stroke:#181818;stroke-width:1.0;"/><polygon fill="#181818" points="676.03,656.102,682.03,660.102,688.03,656.102,682.03,652.102,676.03,656.102" style="stroke:#181818;stroke-width:1.0;"/><polygon fill="#181818" points="748.49,656.102,739.49,652.102,743.49,656.102,739.49,660.102,748.49,656.102" style="stroke:#181818;stroke-width:1.0;"/><text fill="#000000" font-family="sans-serif" font-size="13" lengthAdjust="spacing" textLength="7.436" x="732.9435" y="651.9042">1</text></g><!--link DiscreteLtlFormula to discretization_h_cpp--><g id="link_DiscreteLtlFormula_discretization_h_cpp"><path codeLine="62" d="M365.65,800.782 C368.58,826.042 370.9779,846.812 374.0679,873.422 " fill="none" id="DiscreteLtlFormula-to-discretization_h_cpp" style="stroke:#181818;stroke-width:1.0;stroke-dasharray:7.0,7.0;"/><polygon fill="#181818" points="374.76,879.382,377.6952,869.9807,374.1833,874.4154,369.7486,870.9034,374.76,879.382" style="stroke:#181818;stroke-width:1.0;"/><text fill="#000000" font-family="sans-serif" font-size="13" lengthAdjust="spacing" textLength="21.593" x="372" y="845.499">use</text></g><!--link DiscreteFiniteLtlFormula to discretization_h_cpp--><g id="link_DiscreteFiniteLtlFormula_discretization_h_cpp"><path codeLine="63" d="M580.94,352.972 C626.73,398.482 669.08,452.232 694,511.602 C718.86,570.822 718.93,741.422 694,800.602 C682.33,828.302 670.1111,849.8431 651.8811,874.5631 " fill="none" id="DiscreteFiniteLtlFormula-to-discretization_h_cpp" style="stroke:#181818;stroke-width:1.0;stroke-dasharray:7.0,7.0;"/><polygon fill="#181818" points="648.32,879.392,656.881,874.5227,651.2876,875.3679,650.4424,869.7745,648.32,879.392" style="stroke:#181818;stroke-width:1.0;"/><text fill="#000000" font-family="sans-serif" font-size="13" lengthAdjust="spacing" textLength="21.593" x="680" y="477.499">use</text></g><!--SRC=[lLP1Ru8m6BtxAxvu86uEarqRzMJSXMNBvhBTJ2tLiG4bzEFWZFzzHKGAWe76ZPD-xVlUQz-Z9QBicsuuk9vaCKVlXw8dGjZrG3tCfrB2B1lYSo_qa3lepqKS93uzJaeVstOfKWXuiEAnjErY85YwJN02CX98o3hxhpLZ8fGO9mn5kLcJai5DYpabCik2uoyDQcVwOPs4BDq5dNkupgcgkgrY3Wh5TvYHgoZuDHg9QfDPBOszomRtXI6yKRd6KrsjnYOY7jFgJkR5oGG6Xzrkx6J1oS2iS0SPeAnA5xKImZ-d6ezX8D4bH2XlEGqi43BlrKokjLLW80Ho-85Xtwi9gd54hnBEox7yrq1sZjhY4E0MURj6qkeoLjJ-CcRT0oPMNvnXvPHSVYvP56aPKmV0xBINRWkhcr8sz898IFxgXPkdY8SEbPYz6iznkaxSTkzOadP5NSQAr0jPldE6W0ASXQEdnvKCvzrRfx07CzY76UpD3FPY1diqWxqRc2H2Vrl9VSKWCt_Cx35pnymSCs_ChEdcpBwdZgNipYiDmaxL6p_NHgFHjEwE9A0g57aZyjQUGl- -Nn5otgdjF4Y5r1wb11B9BwtW8kuN]--></g></svg>