<svg xmlns="http://www.w3.org/2000/svg" xmlns:xlink="http://www.w3.org/1999/xlink" contentStyleType="text/css" height="947px" preserveAspectRatio="none" style="width:1091px;height:947px;background:#FFFFFF;" version="1.1" viewBox="0 0 1091 947" width="1091px" zoomAndPan="magnify"><defs/><g><!--cluster rtlf--><g id="cluster_rtlf"><path d="M8.5,6.602 L31.6199,6.602 A3.75,3.75 0 0 1 34.1199,9.102 L41.1199,31.6699 L1081.5,31.6699 A2.5,2.5 0 0 1 1084,34.1699 L1084,843.102 A2.5,2.5 0 0 1 1081.5,845.602 L8.5,845.602 A2.5,2.5 0 0 1 6,843.102 L6,9.102 A2.5,2.5 0 0 1 8.5,6.602 " fill="none" style="stroke:#000000;stroke-width:1.5;"/><line style="stroke:#000000;stroke-width:1.5;" x1="6" x2="41.1199" y1="31.6699" y2="31.6699"/><text fill="#000000" font-family="sans-serif" font-size="14" font-weight="bold" lengthAdjust="spacing" textLength="22.1199" x="10" y="23.5679">rtlf</text></g><!--class RtlfParsingResult--><g id="elem_RtlfParsingResult"><rect codeLine="2" fill="#F1F1F1" height="555.7658" id="RtlfParsingResult" rx="2.5" ry="2.5" style="stroke:#181818;stroke-width:0.5;" width="1044.5244" x="22.5" y="273.602"/><ellipse cx="484.2604" cy="289.602" fill="#ADD1B2" rx="11" ry="11" style="stroke:#181818;stroke-width:1.0;"/><path d="M487.2292,295.2426 Q486.651,295.5395 486.0104,295.6801 Q485.3698,295.8364 484.6667,295.8364 Q482.1667,295.8364 480.8385,294.1957 Q479.526,292.5395 479.526,289.4145 Q479.526,286.2895 480.8385,284.6332 Q482.1667,282.977 484.6667,282.977 Q485.3698,282.977 486.0104,283.1332 Q486.6667,283.2895 487.2292,283.5864 L487.2292,286.3051 Q486.6042,285.727 486.0104,285.4614 Q485.4167,285.1801 484.7917,285.1801 Q483.4479,285.1801 482.7604,286.2582 Q482.0729,287.3207 482.0729,289.4145 Q482.0729,291.5082 482.7604,292.5864 Q483.4479,293.6489 484.7917,293.6489 Q485.4167,293.6489 486.0104,293.3832 Q486.6042,293.102 487.2292,292.5239 L487.2292,295.2426 Z " fill="#000000"/><text fill="#000000" font-family="sans-serif" font-size="14" lengthAdjust="spacing" textLength="112.5036" x="504.7604" y="295.034">RtlfParsingResult</text><line style="stroke:#181818;stroke-width:0.5;" x1="23.5" x2="1066.0244" y1="305.602" y2="305.602"/><rect fill="none" height="6" style="stroke:#C82930;stroke-width:1.0;" width="6" x="30.5" y="340.7039"/><text fill="#000000" font-family="sans-serif" font-size="14" lengthAdjust="spacing" textLength="125.0615" x="42.5" y="347.6358">m_isLtl : const bool</text><rect fill="none" height="6" style="stroke:#C82930;stroke-width:1.0;" width="6" x="30.5" y="359.7718"/><text fill="#000000" font-family="sans-serif" font-size="14" lengthAdjust="spacing" textLength="313.5288" x="42.5" y="366.7038">m_parserErrors : const std::vector&lt;ParserError&gt;</text><rect fill="none" height="6" style="stroke:#C82930;stroke-width:1.0;" width="6" x="30.5" y="378.8397"/><text fill="#000000" font-family="sans-serif" font-size="14" lengthAdjust="spacing" textLength="284.955" x="42.5" y="385.7717">m_illegalAtoms : std::vector&lt;spot::formula&gt;</text><rect fill="none" height="6" style="stroke:#C82930;stroke-width:1.0;" width="6" x="30.5" y="397.9076"/><text fill="#000000" font-family="sans-serif" font-size="14" lengthAdjust="spacing" textLength="236.4451" x="42.5" y="404.8396">m_rtlf : std::optional&lt;spot::formula&gt;</text><line style="stroke:#181818;stroke-width:1.0;" x1="23.5" x2="496.7214" y1="323.1359" y2="323.1359"/><text fill="#000000" font-family="sans-serif" font-size="14" lengthAdjust="spacing" textLength="96.0816" x="496.7214" y="328.0679">data members</text><line style="stroke:#181818;stroke-width:1.0;" x1="592.803" x2="1066.0244" y1="323.1359" y2="323.1359"/><rect fill="#F24D5C" height="6" style="stroke:#C82930;stroke-width:1.0;" width="6" x="30.5" y="440.0434"/><text fill="#000000" font-family="sans-serif" font-size="14" lengthAdjust="spacing" textLength="1018.5244" x="42.5" y="446.9754">RtlfParsingResult(std::optional&lt;spot::formula&gt;&amp;&amp; rtlf, std::vector&lt;ParserError&gt;&amp;&amp; parserErrors, std::vector&lt;spot::formula&gt;&amp;&amp; illegalAtoms, const bool isLtl)</text><rect fill="#F24D5C" height="6" style="stroke:#C82930;stroke-width:1.0;" width="6" x="30.5" y="459.1114"/><text fill="#000000" font-family="sans-serif" font-size="14" lengthAdjust="spacing" textLength="388.9886" x="42.5" y="466.0433">RtlfParsingResult(std::vector&lt;ParserError&gt;&amp;&amp; parserErrors)</text><rect fill="#F24D5C" height="6" style="stroke:#C82930;stroke-width:1.0;" width="6" x="30.5" y="478.1793"/><text fill="#000000" font-family="sans-serif" font-size="14" lengthAdjust="spacing" textLength="358.6787" x="42.5" y="485.1113">RtlfParsingResult(spot::formula&amp;&amp; rtlf, const bool isLtl)</text><rect fill="#F24D5C" height="6" style="stroke:#C82930;stroke-width:1.0;" width="6" x="30.5" y="497.2472"/><text fill="#000000" font-family="sans-serif" font-size="14" lengthAdjust="spacing" textLength="531.6621" x="42.5" y="504.1792">RtlfParsingResult(std::vector&lt;spot::formula&gt;&amp;&amp; forbiddenAtoms, const bool isLtl)</text><rect fill="#F24D5C" height="6" style="stroke:#C82930;stroke-width:1.0;" width="6" x="30.5" y="516.3151"/><text fill="#000000" font-family="sans-serif" font-size="14" lengthAdjust="spacing" textLength="252.923" x="42.5" y="523.2471">RtlfParsingResult(spot::formula&amp;&amp; rtlf)</text><line style="stroke:#181818;stroke-width:1.0;" x1="23.5" x2="503.3784" y1="422.4755" y2="422.4755"/><text fill="#000000" font-family="sans-serif" font-size="14" lengthAdjust="spacing" textLength="82.7677" x="503.3784" y="427.4075">constructors</text><line style="stroke:#181818;stroke-width:1.0;" x1="586.1461" x2="1066.0244" y1="422.4755" y2="422.4755"/><ellipse cx="33.5" cy="561.4509" fill="#84BE84" rx="3" ry="3" style="stroke:#038048;stroke-width:1.0;"/><text fill="#000000" font-family="sans-serif" font-size="14" lengthAdjust="spacing" textLength="154.6014" x="42.5" y="565.3829">hasParserErrors() : bool</text><ellipse cx="33.5" cy="580.5189" fill="#84BE84" rx="3" ry="3" style="stroke:#038048;stroke-width:1.0;"/><text fill="#000000" font-family="sans-serif" font-size="14" lengthAdjust="spacing" textLength="74.9137" x="42.5" y="584.4508">isLtl() : bool</text><ellipse cx="33.5" cy="599.5868" fill="#84BE84" rx="3" ry="3" style="stroke:#038048;stroke-width:1.0;"/><text fill="#000000" font-family="sans-serif" font-size="14" lengthAdjust="spacing" textLength="178.9333" x="42.5" y="603.5188">isUsingIllegalAtoms() : bool</text><ellipse cx="33.5" cy="618.6547" fill="#84BE84" rx="3" ry="3" style="stroke:#038048;stroke-width:1.0;"/><text fill="#000000" font-family="sans-serif" font-size="14" lengthAdjust="spacing" textLength="64.5397" x="42.5" y="622.5867">ok() : bool</text><ellipse cx="33.5" cy="637.7226" fill="#84BE84" rx="3" ry="3" style="stroke:#038048;stroke-width:1.0;"/><text fill="#000000" font-family="sans-serif" font-size="14" lengthAdjust="spacing" textLength="266.587" x="42.5" y="641.6546">illegalAtoms() : spot::atomic_prop_vector</text><ellipse cx="33.5" cy="656.7905" fill="#84BE84" rx="3" ry="3" style="stroke:#038048;stroke-width:1.0;"/><text fill="#000000" font-family="sans-serif" font-size="14" lengthAdjust="spacing" textLength="263.381" x="42.5" y="660.7225">parserErrors() : std::vector&lt;ParserError&gt;</text><rect fill="#F24D5C" height="6" style="stroke:#C82930;stroke-width:1.0;" width="6" x="30.5" y="672.8584"/><text fill="#000000" font-family="sans-serif" font-size="14" lengthAdjust="spacing" textLength="427.8524" x="42.5" y="679.7904">setIllegalAtoms(std::vector&lt;spot::formula&gt;&amp;&amp; illegalAtoms) : void</text><line style="stroke:#181818;stroke-width:1.0;" x1="23.5" x2="515.5233" y1="540.883" y2="540.883"/><text fill="#000000" font-family="sans-serif" font-size="14" lengthAdjust="spacing" textLength="58.4778" x="515.5233" y="545.815">methods</text><line style="stroke:#181818;stroke-width:1.0;" x1="574.0011" x2="1066.0244" y1="540.883" y2="540.883"/><ellipse cx="33.5" cy="717.9943" fill="#84BE84" rx="3" ry="3" style="stroke:#038048;stroke-width:1.0;"/><text fill="#000000" font-family="sans-serif" font-size="14" lengthAdjust="spacing" textLength="110.2776" x="42.5" y="721.9263">operator!() : bool</text><ellipse cx="33.5" cy="737.0622" fill="#84BE84" rx="3" ry="3" style="stroke:#038048;stroke-width:1.0;"/><text fill="#000000" font-family="sans-serif" font-size="14" lengthAdjust="spacing" textLength="191.2113" x="42.5" y="740.9942">operator*() : spot :: formula&amp;</text><line style="stroke:#181818;stroke-width:1.0;" x1="23.5" x2="512.4503" y1="697.4264" y2="697.4264"/><text fill="#000000" font-family="sans-serif" font-size="14" lengthAdjust="spacing" textLength="64.6238" x="512.4503" y="702.3583">operators</text><line style="stroke:#181818;stroke-width:1.0;" x1="577.0741" x2="1066.0244" y1="697.4264" y2="697.4264"/><ellipse cx="33.5" cy="779.198" fill="#84BE84" rx="3" ry="3" style="stroke:#038048;stroke-width:1.0;"/><text fill="#000000" font-family="sans-serif" font-size="14" lengthAdjust="spacing" text-decoration="underline" textLength="356.8587" x="42.5" y="783.13">notLtlFormula(spot::formula&amp;&amp; rtlf) : RtlfParsingResult</text><ellipse cx="33.5" cy="798.2659" fill="#84BE84" rx="3" ry="3" style="stroke:#038048;stroke-width:1.0;"/><text fill="#000000" font-family="sans-serif" font-size="14" lengthAdjust="spacing" text-decoration="underline" textLength="279.901" x="42.5" y="802.1979">ok(spot::formula&amp;&amp; rtlf) : RtlfParsingResult</text><ellipse cx="33.5" cy="817.3339" fill="#84BE84" rx="3" ry="3" style="stroke:#038048;stroke-width:1.0;"/><text fill="#000000" font-family="sans-serif" font-size="14" lengthAdjust="spacing" text-decoration="underline" textLength="511.1381" x="42.5" y="821.2658">withParserErrors(std::vector&lt;ParserError&gt;&amp;&amp; parserErrors) : RtlfParsingResult</text><line style="stroke:#181818;stroke-width:1.0;" x1="23.5" x2="494.7754" y1="758.6301" y2="758.6301"/><text fill="#000000" font-family="sans-serif" font-size="14" lengthAdjust="spacing" textLength="99.9736" x="494.7754" y="763.5621">static functions</text><line style="stroke:#181818;stroke-width:1.0;" x1="594.749" x2="1066.0244" y1="758.6301" y2="758.6301"/></g><g id="elem_parsertlf_h_cpp"><rect fill="#F1F1F1" height="88.2717" style="stroke:#181818;stroke-width:0.5;" width="679.2937" x="205.5" y="44.602"/><text fill="#000000" font-family="sans-serif" font-size="14" lengthAdjust="spacing" textLength="101.1356" x="494.579" y="61.5679">parsertlf_h_cpp</text><line style="stroke:#181818;stroke-width:0.5;" x1="206.5" x2="883.7937" y1="67.6699" y2="67.6699"/><ellipse cx="216.5" cy="82.7039" fill="#84BE84" rx="3" ry="3" style="stroke:#038048;stroke-width:1.0;"/><text fill="#000000" font-family="sans-serif" font-size="14" lengthAdjust="spacing" textLength="312.3668" x="225.5" y="86.6358">parseRtlf(std::string_view rtlf): RtlfParsingResult</text><ellipse cx="216.5" cy="101.7718" fill="#84BE84" rx="3" ry="3" style="stroke:#038048;stroke-width:1.0;"/><text fill="#000000" font-family="sans-serif" font-size="14" lengthAdjust="spacing" textLength="653.2937" x="225.5" y="105.7038">parseRtlf(std::string_view rtlf, std::set&lt;std::string&gt;&amp;&amp; allowedAtomicPropositions): RtlfParsingResult</text><rect fill="#F24D5C" height="6" style="stroke:#C82930;stroke-width:1.0;" width="6" x="213.5" y="117.8397"/><text fill="#000000" font-family="sans-serif" font-size="14" lengthAdjust="spacing" textLength="485.9243" x="225.5" y="124.7717">toRtlfParsingResult(spot::parse_error_list&amp;&amp; spotErrors): RtlfParsingResult</text></g><!--class spot::formula--><g id="elem_spot::formula"><rect codeLine="38" fill="#F1F1F1" height="48" id="spot::formula" rx="2.5" ry="2.5" style="stroke:#181818;stroke-width:0.5;" width="120.6197" x="484.5" y="892.602"/><ellipse cx="499.5" cy="908.602" fill="#ADD1B2" rx="11" ry="11" style="stroke:#181818;stroke-width:1.0;"/><path d="M502.4688,914.2426 Q501.8906,914.5395 501.25,914.6801 Q500.6094,914.8364 499.9063,914.8364 Q497.4063,914.8364 496.0781,913.1957 Q494.7656,911.5395 494.7656,908.4145 Q494.7656,905.2895 496.0781,903.6332 Q497.4063,901.977 499.9063,901.977 Q500.6094,901.977 501.25,902.1332 Q501.9063,902.2895 502.4688,902.5864 L502.4688,905.3051 Q501.8438,904.727 501.25,904.4614 Q500.6563,904.1801 500.0313,904.1801 Q498.6875,904.1801 498,905.2582 Q497.3125,906.3207 497.3125,908.4145 Q497.3125,910.5082 498,911.5864 Q498.6875,912.6489 500.0313,912.6489 Q500.6563,912.6489 501.25,912.3832 Q501.8438,912.102 502.4688,911.5239 L502.4688,914.2426 Z " fill="#000000"/><text fill="#000000" font-family="sans-serif" font-size="14" lengthAdjust="spacing" textLength="88.6197" x="513.5" y="914.034">spot::formula</text><line style="stroke:#181818;stroke-width:0.5;" x1="485.5" x2="604.1197" y1="924.602" y2="924.602"/><line style="stroke:#181818;stroke-width:0.5;" x1="485.5" x2="604.1197" y1="932.602" y2="932.602"/></g><!--link RtlfParsingResult to spot::formula--><g id="link_RtlfParsingResult_spot::formula"><path codeLine="40" d="M545,830.032 C545,855.342 545,871.152 545,886.422 " fill="none" id="RtlfParsingResult-to-spot::formula" style="stroke:#181818;stroke-width:1.0;"/><polygon fill="#181818" points="545,892.422,549,883.422,545,887.422,541,883.422,545,892.422" style="stroke:#181818;stroke-width:1.0;"/><text fill="#000000" font-family="sans-serif" font-size="13" lengthAdjust="spacing" textLength="21.84" x="521.3421" y="880.6311">0..1</text></g><!--link parsertlf_h_cpp to RtlfParsingResult--><g id="link_parsertlf_h_cpp_RtlfParsingResult"><path codeLine="41" d="M545,132.972 C545,167.322 545,212.522 545,267.412 " fill="none" id="parsertlf_h_cpp-to-RtlfParsingResult" style="stroke:#181818;stroke-width:1.0;stroke-dasharray:7.0,7.0;"/><polygon fill="#181818" points="545,273.412,549,264.412,545,268.412,541,264.412,545,273.412" style="stroke:#181818;stroke-width:1.0;"/><text fill="#000000" font-family="sans-serif" font-size="13" lengthAdjust="spacing" textLength="38.259" x="546" y="208.499">create</text></g><!--SRC=[fLN1Rjim3BtdAxGUYhQ9ZEvg505ws801EmG5UZOKMqcqogOWCSaXwB-Fajr4IcodQ7snBPAFV8-KP4Jv9jQIMTGhTfWmUaejd6CljB0Grgbc_IBTLcDdzG_dbK31QbalfNMSdmnreTnVr2nd9JGEsH90nrP3YDB-iXQiEpevhF9y9qi4-xGuESmJMAtbMkXdXDe7nY7E0ERv2cozrI892gGwPp2ee15wq9s7OkpMOoQSBfIu6mEylGrQpWPPaKEimco42xd6l6UHg2peV7-roki5Z6F4zHofVRcC2thqkLHL9Pil4UmfBWhWjSGDL74lfnlX8YdStJsDHpAZqv2sT_tLf_uJzQF72zxwGizZsi85_QkoC1PCqUfp2Z7dHLxV8qvYKjodnyh3xq1LaN9Wf1Ld-s3wiVYZZtTdUpZoOtdEFbeJ8JiKg4gssZQbtpv9WaDhV6SD83NXTnlTtsRASZ4GFKZKZ- -4xnLkaddvx9uQn7-VX1Si_n585qEEnQOeZOcEs7O2F4QRaquc0YfsIkvR1gC4hWHtPmvDp5DazoI4rh2NrNCOpGLD9ZWL-ZIQZoCCxSvGII6zAeLM3Yc7DtGo3Qj4EhNtKD8-Tg3rovk9ypcxUSoodpUf- -HStopBvZqt6rr4LWgKa_y0]--></g></svg>