<svg xmlns="http://www.w3.org/2000/svg" xmlns:xlink="http://www.w3.org/1999/xlink" contentStyleType="text/css" height="1253px" preserveAspectRatio="none" style="width:2083px;height:1253px;background:#FFFFFF;" version="1.1" viewBox="0 0 2083 1253" width="2083px" zoomAndPan="magnify"><defs/><g><!--cluster system--><g id="cluster_system"><path d="M8.5,6.602 L59.4798,6.602 A3.75,3.75 0 0 1 61.9798,9.102 L68.9798,31.6699 L2073.5,31.6699 A2.5,2.5 0 0 1 2076,34.1699 L2076,1244.102 A2.5,2.5 0 0 1 2073.5,1246.602 L8.5,1246.602 A2.5,2.5 0 0 1 6,1244.102 L6,9.102 A2.5,2.5 0 0 1 8.5,6.602 " fill="none" style="stroke:#000000;stroke-width:1.5;"/><line style="stroke:#000000;stroke-width:1.5;" x1="6" x2="68.9798" y1="31.6699" y2="31.6699"/><text fill="#000000" font-family="sans-serif" font-size="14" font-weight="bold" lengthAdjust="spacing" textLength="49.9798" x="10" y="23.5679">system</text></g><!--class AtomInterpretation--><g id="elem_AtomInterpretation"><rect codeLine="2" fill="#F1F1F1" height="418.2904" id="AtomInterpretation" rx="2.5" ry="2.5" style="stroke:#181818;stroke-width:0.5;" width="723.1418" x="1077.5" y="784.102"/><ellipse cx="1370.4841" cy="800.102" fill="#ADD1B2" rx="11" ry="11" style="stroke:#181818;stroke-width:1.0;"/><path d="M1373.4529,805.7426 Q1372.8747,806.0395 1372.2341,806.1801 Q1371.5935,806.3364 1370.8904,806.3364 Q1368.3904,806.3364 1367.0622,804.6957 Q1365.7497,803.0395 1365.7497,799.9145 Q1365.7497,796.7895 1367.0622,795.1332 Q1368.3904,793.477 1370.8904,793.477 Q1371.5935,793.477 1372.2341,793.6332 Q1372.8904,793.7895 1373.4529,794.0864 L1373.4529,796.8051 Q1372.8279,796.227 1372.2341,795.9614 Q1371.6404,795.6801 1371.0154,795.6801 Q1369.6716,795.6801 1368.9841,796.7582 Q1368.2966,797.8207 1368.2966,799.9145 Q1368.2966,802.0082 1368.9841,803.0864 Q1369.6716,804.1489 1371.0154,804.1489 Q1371.6404,804.1489 1372.2341,803.8832 Q1372.8279,803.602 1373.4529,803.0239 L1373.4529,805.7426 Z " fill="#000000"/><text fill="#000000" font-family="sans-serif" font-size="14" lengthAdjust="spacing" textLength="128.6735" x="1390.9841" y="805.534">AtomInterpretation</text><line style="stroke:#181818;stroke-width:0.5;" x1="1078.5" x2="1799.6418" y1="816.102" y2="816.102"/><rect fill="none" height="6" style="stroke:#C82930;stroke-width:1.0;" width="6" x="1085.5" y="851.2039"/><text fill="#000000" font-family="sans-serif" font-size="14" lengthAdjust="spacing" textLength="183.5953" x="1097.5" y="858.1358">m_interpretation : Powerset</text><rect fill="none" height="6" style="stroke:#C82930;stroke-width:1.0;" width="6" x="1085.5" y="870.2718"/><text fill="#000000" font-family="sans-serif" font-size="14" lengthAdjust="spacing" textLength="206.9052" x="1097.5" y="877.2038">m_notInterpretation : Powerset</text><line style="stroke:#181818;stroke-width:1.0;" x1="1078.5" x2="1391.0301" y1="833.6359" y2="833.6359"/><text fill="#000000" font-family="sans-serif" font-size="14" lengthAdjust="spacing" textLength="96.0816" x="1391.0301" y="838.5679">data members</text><line style="stroke:#181818;stroke-width:1.0;" x1="1487.1117" x2="1799.6418" y1="833.6359" y2="833.6359"/><ellipse cx="1088.5" cy="915.4076" fill="#84BE84" rx="3" ry="3" style="stroke:#038048;stroke-width:1.0;"/><text fill="#000000" font-family="sans-serif" font-size="14" lengthAdjust="spacing" textLength="343.4608" x="1097.5" y="919.3396">AtomInterpretation(const Powerset&amp; interpretation)</text><ellipse cx="1088.5" cy="934.4755" fill="#84BE84" rx="3" ry="3" style="stroke:#038048;stroke-width:1.0;"/><text fill="#000000" font-family="sans-serif" font-size="14" lengthAdjust="spacing" textLength="314.4668" x="1097.5" y="938.4075">AtomInterpretation(Powerset&amp;&amp; interpretation)</text><ellipse cx="1088.5" cy="953.5434" fill="#84BE84" rx="3" ry="3" style="stroke:#038048;stroke-width:1.0;"/><text fill="#000000" font-family="sans-serif" font-size="14" lengthAdjust="spacing" textLength="523.4441" x="1097.5" y="957.4754">AtomInterpretation(const Powerset&amp; interpretation, const Powerset&amp; invariant)</text><ellipse cx="1088.5" cy="972.6114" fill="#84BE84" rx="3" ry="3" style="stroke:#038048;stroke-width:1.0;"/><text fill="#000000" font-family="sans-serif" font-size="14" lengthAdjust="spacing" textLength="465.4562" x="1097.5" y="976.5433">AtomInterpretation(Powerset&amp;&amp; interpretation, Powerset&amp;&amp; invariant)</text><ellipse cx="1088.5" cy="991.6793" fill="#84BE84" rx="3" ry="3" style="stroke:#038048;stroke-width:1.0;"/><text fill="#000000" font-family="sans-serif" font-size="14" lengthAdjust="spacing" textLength="494.4502" x="1097.5" y="995.6113">AtomInterpretation(Powerset&amp;&amp; interpretation, const Powerset&amp; invariant)</text><ellipse cx="1088.5" cy="1010.7472" fill="#84BE84" rx="3" ry="3" style="stroke:#038048;stroke-width:1.0;"/><text fill="#000000" font-family="sans-serif" font-size="14" lengthAdjust="spacing" textLength="410.8566" x="1097.5" y="1014.6792">AtomInterpretation(const AtomInterpretation&amp; interpretation)</text><ellipse cx="1088.5" cy="1029.8151" fill="#84BE84" rx="3" ry="3" style="stroke:#038048;stroke-width:1.0;"/><text fill="#000000" font-family="sans-serif" font-size="14" lengthAdjust="spacing" textLength="381.8626" x="1097.5" y="1033.7471">AtomInterpretation(AtomInterpretation&amp;&amp; interpretation)</text><ellipse cx="1088.5" cy="1048.883" fill="#84BE84" rx="3" ry="3" style="stroke:#038048;stroke-width:1.0;"/><text fill="#000000" font-family="sans-serif" font-size="14" lengthAdjust="spacing" textLength="494.4502" x="1097.5" y="1052.815">AtomInterpretation(const Powerset&amp; interpretation, Powerset&amp;&amp; invariant)</text><line style="stroke:#181818;stroke-width:1.0;" x1="1078.5" x2="1397.687" y1="894.8397" y2="894.8397"/><text fill="#000000" font-family="sans-serif" font-size="14" lengthAdjust="spacing" textLength="82.7677" x="1397.687" y="899.7717">constructors</text><line style="stroke:#181818;stroke-width:1.0;" x1="1480.4547" x2="1799.6418" y1="894.8397" y2="894.8397"/><ellipse cx="1088.5" cy="1091.0189" fill="#84BE84" rx="3" ry="3" style="stroke:#038048;stroke-width:1.0;"/><text fill="#000000" font-family="sans-serif" font-size="14" lengthAdjust="spacing" textLength="182.9373" x="1097.5" y="1094.9508">interpretation() : Powerset&amp;</text><ellipse cx="1088.5" cy="1110.0868" fill="#84BE84" rx="3" ry="3" style="stroke:#038048;stroke-width:1.0;"/><text fill="#000000" font-family="sans-serif" font-size="14" lengthAdjust="spacing" textLength="206.2472" x="1097.5" y="1114.0188">notInterpretation() : Powerset&amp;</text><line style="stroke:#181818;stroke-width:1.0;" x1="1078.5" x2="1378.4021" y1="1070.4509" y2="1070.4509"/><text fill="#000000" font-family="sans-serif" font-size="14" lengthAdjust="spacing" textLength="121.3375" x="1378.4021" y="1075.3829">member functions</text><line style="stroke:#181818;stroke-width:1.0;" x1="1499.7397" x2="1799.6418" y1="1070.4509" y2="1070.4509"/><rect fill="#F24D5C" height="6" style="stroke:#C82930;stroke-width:1.0;" width="6" x="1085.5" y="1149.2226"/><text fill="#000000" font-family="sans-serif" font-size="14" lengthAdjust="spacing" textLength="692.8997" x="1097.5" y="1156.1546">operator!= (const AtomInterpretation&amp; interpretation1, const AtomInterpretation&amp; interpretation2) : bool</text><rect fill="#F24D5C" height="6" style="stroke:#C82930;stroke-width:1.0;" width="6" x="1085.5" y="1168.2905"/><text fill="#000000" font-family="sans-serif" font-size="14" lengthAdjust="spacing" textLength="697.1418" x="1097.5" y="1175.2225">operator== (const AtomInterpretation&amp; interpretation1, const AtomInterpretation&amp; interpretation2) : bool</text><rect fill="#F24D5C" height="6" style="stroke:#C82930;stroke-width:1.0;" width="6" x="1085.5" y="1187.3584"/><text fill="#000000" font-family="sans-serif" font-size="14" lengthAdjust="spacing" textLength="597.224" x="1097.5" y="1194.2904">operator&lt;&lt; (std::ostream&amp; out, const AtomInterpretation&amp; interpretation) : std :: ostream&amp;</text><line style="stroke:#181818;stroke-width:1.0;" x1="1078.5" x2="1406.759" y1="1131.6547" y2="1131.6547"/><text fill="#000000" font-family="sans-serif" font-size="14" lengthAdjust="spacing" textLength="64.6238" x="1406.759" y="1136.5867">operators</text><line style="stroke:#181818;stroke-width:1.0;" x1="1471.3828" x2="1799.6418" y1="1131.6547" y2="1131.6547"/></g><!--class PolyhedralSystem--><g id="elem_PolyhedralSystem"><rect codeLine="24" fill="#F1F1F1" height="651.1054" id="PolyhedralSystem" rx="2.5" ry="2.5" style="stroke:#181818;stroke-width:0.5;" width="1241.1959" x="818.5" y="44.602"/><ellipse cx="1376.0132" cy="60.602" fill="#ADD1B2" rx="11" ry="11" style="stroke:#181818;stroke-width:1.0;"/><path d="M1378.9819,66.2426 Q1378.4038,66.5395 1377.7632,66.6801 Q1377.1226,66.8364 1376.4194,66.8364 Q1373.9194,66.8364 1372.5913,65.1957 Q1371.2788,63.5395 1371.2788,60.4145 Q1371.2788,57.2895 1372.5913,55.6332 Q1373.9194,53.977 1376.4194,53.977 Q1377.1226,53.977 1377.7632,54.1332 Q1378.4194,54.2895 1378.9819,54.5864 L1378.9819,57.3051 Q1378.3569,56.727 1377.7632,56.4614 Q1377.1694,56.1801 1376.5444,56.1801 Q1375.2007,56.1801 1374.5132,57.2582 Q1373.8257,58.3207 1373.8257,60.4145 Q1373.8257,62.5082 1374.5132,63.5864 Q1375.2007,64.6489 1376.5444,64.6489 Q1377.1694,64.6489 1377.7632,64.3832 Q1378.3569,64.102 1378.9819,63.5239 L1378.9819,66.2426 Z " fill="#000000"/><text fill="#000000" font-family="sans-serif" font-size="14" lengthAdjust="spacing" textLength="117.6696" x="1396.5132" y="66.034">PolyhedralSystem</text><line style="stroke:#181818;stroke-width:0.5;" x1="819.5" x2="2058.6959" y1="76.602" y2="76.602"/><rect fill="none" height="6" style="stroke:#C82930;stroke-width:1.0;" width="6" x="826.5" y="111.7039"/><text fill="#000000" font-family="sans-serif" font-size="14" lengthAdjust="spacing" textLength="85.9317" x="838.5" y="118.6358">m_flow : Poly</text><rect fill="none" height="6" style="stroke:#C82930;stroke-width:1.0;" width="6" x="826.5" y="130.7718"/><text fill="#000000" font-family="sans-serif" font-size="14" lengthAdjust="spacing" textLength="110.6696" x="838.5" y="137.7038">m_preFlow : Poly</text><rect fill="none" height="6" style="stroke:#C82930;stroke-width:1.0;" width="6" x="826.5" y="149.8397"/><text fill="#000000" font-family="sans-serif" font-size="14" lengthAdjust="spacing" textLength="315.7549" x="838.5" y="156.7717">m_symbolTable : PolyhedralSystemSymbolTable</text><rect fill="none" height="6" style="stroke:#C82930;stroke-width:1.0;" width="6" x="826.5" y="168.9076"/><text fill="#000000" font-family="sans-serif" font-size="14" lengthAdjust="spacing" textLength="149.7994" x="838.5" y="175.8396">m_invariant : Powerset</text><rect fill="none" height="6" style="stroke:#C82930;stroke-width:1.0;" width="6" x="826.5" y="187.9755"/><text fill="#000000" font-family="sans-serif" font-size="14" lengthAdjust="spacing" textLength="241.9891" x="838.5" y="194.9075">m_minimizeConstraintsOutput : bool</text><rect fill="none" height="6" style="stroke:#C82930;stroke-width:1.0;" width="6" x="826.5" y="207.0434"/><text fill="#000000" font-family="sans-serif" font-size="14" lengthAdjust="spacing" textLength="424.2965" x="838.5" y="213.9754">m_denotation : std::unordered_map&lt;Atom, AtomInterpretation&gt;</text><line style="stroke:#181818;stroke-width:1.0;" x1="819.5" x2="1391.0571" y1="94.1359" y2="94.1359"/><text fill="#000000" font-family="sans-serif" font-size="14" lengthAdjust="spacing" textLength="96.0816" x="1391.0571" y="99.0679">data members</text><line style="stroke:#181818;stroke-width:1.0;" x1="1487.1388" x2="2058.6959" y1="94.1359" y2="94.1359"/><ellipse cx="829.5" cy="252.1793" fill="#84BE84" rx="3" ry="3" style="stroke:#038048;stroke-width:1.0;"/><text fill="#000000" font-family="sans-serif" font-size="14" lengthAdjust="spacing" textLength="126.0695" x="838.5" y="256.1113">PolyhedralSystem()</text><ellipse cx="829.5" cy="271.2472" fill="#84BE84" rx="3" ry="3" style="stroke:#038048;stroke-width:1.0;"/><text fill="#000000" font-family="sans-serif" font-size="14" lengthAdjust="spacing" textLength="264.235" x="838.5" y="275.1792">PolyhedralSystem(PolyhedralSystem&amp;&amp;)</text><rect fill="#F24D5C" height="6" style="stroke:#C82930;stroke-width:1.0;" width="6" x="826.5" y="287.3151"/><text fill="#000000" font-family="sans-serif" font-size="14" lengthAdjust="spacing" textLength="1215.1959" x="838.5" y="294.2471">PolyhedralSystem(const Powerset&amp; invariant, const Poly&amp; flow, const std::unordered_map&lt;Atom, AtomInterpretation&gt;&amp; denotation, const PolyhedralSystemSymbolTable&amp; symbolTable)</text><rect fill="#F24D5C" height="6" style="stroke:#C82930;stroke-width:1.0;" width="6" x="826.5" y="306.383"/><text fill="#000000" font-family="sans-serif" font-size="14" lengthAdjust="spacing" textLength="1099.2202" x="838.5" y="313.315">PolyhedralSystem(Powerset&amp;&amp; invariant, Poly&amp;&amp; flow, std::unordered_map&lt;Atom, AtomInterpretation&gt;&amp;&amp; denotation, PolyhedralSystemSymbolTable&amp;&amp; symbolTable)</text><line style="stroke:#181818;stroke-width:1.0;" x1="819.5" x2="1397.7141" y1="231.6114" y2="231.6114"/><text fill="#000000" font-family="sans-serif" font-size="14" lengthAdjust="spacing" textLength="82.7677" x="1397.7141" y="236.5433">constructors</text><line style="stroke:#181818;stroke-width:1.0;" x1="1480.4818" x2="2058.6959" y1="231.6114" y2="231.6114"/><ellipse cx="829.5" cy="351.5189" fill="#84BE84" rx="3" ry="3" style="stroke:#038048;stroke-width:1.0;"/><text fill="#000000" font-family="sans-serif" font-size="14" lengthAdjust="spacing" textLength="286.6629" x="838.5" y="355.4508">getSpaceDimension() : PPL::dimension_type</text><ellipse cx="829.5" cy="370.5868" fill="#84BE84" rx="3" ry="3" style="stroke:#038048;stroke-width:1.0;"/><text fill="#000000" font-family="sans-serif" font-size="14" lengthAdjust="spacing" textLength="109.2836" x="838.5" y="374.5188">getFlow() : Poly&amp;</text><ellipse cx="829.5" cy="389.6547" fill="#84BE84" rx="3" ry="3" style="stroke:#038048;stroke-width:1.0;"/><text fill="#000000" font-family="sans-serif" font-size="14" lengthAdjust="spacing" textLength="131.4315" x="838.5" y="393.5867">getPreFlow() : Poly&amp;</text><ellipse cx="829.5" cy="408.7226" fill="#84BE84" rx="3" ry="3" style="stroke:#038048;stroke-width:1.0;"/><text fill="#000000" font-family="sans-serif" font-size="14" lengthAdjust="spacing" textLength="337.6368" x="838.5" y="412.6546">getSymbolTable() : PolyhedralSystemSymbolTable&amp;</text><ellipse cx="829.5" cy="427.7905" fill="#84BE84" rx="3" ry="3" style="stroke:#038048;stroke-width:1.0;"/><text fill="#000000" font-family="sans-serif" font-size="14" lengthAdjust="spacing" textLength="171.8353" x="838.5" y="431.7225">getInvariant() : Powerset&amp;</text><ellipse cx="829.5" cy="446.8584" fill="#84BE84" rx="3" ry="3" style="stroke:#038048;stroke-width:1.0;"/><text fill="#000000" font-family="sans-serif" font-size="14" lengthAdjust="spacing" textLength="133.3495" x="838.5" y="450.7904">getTotalAtoms() : int</text><ellipse cx="829.5" cy="465.9264" fill="#84BE84" rx="3" ry="3" style="stroke:#038048;stroke-width:1.0;"/><text fill="#000000" font-family="sans-serif" font-size="14" lengthAdjust="spacing" textLength="587.4379" x="838.5" y="469.8583">getInterpretation(std::string_view atom) : std::optional&lt;const AtomInterpretation* const&gt;</text><ellipse cx="829.5" cy="484.9943" fill="#84BE84" rx="3" ry="3" style="stroke:#038048;stroke-width:1.0;"/><text fill="#000000" font-family="sans-serif" font-size="14" lengthAdjust="spacing" textLength="623.4177" x="838.5" y="488.9263">getInterpretation(const spot::formula&amp; atom) : std::optional&lt;const AtomInterpretation* const&gt;</text><ellipse cx="829.5" cy="504.0622" fill="#84BE84" rx="3" ry="3" style="stroke:#038048;stroke-width:1.0;"/><text fill="#000000" font-family="sans-serif" font-size="14" lengthAdjust="spacing" textLength="280.0549" x="838.5" y="507.9942">setConstraintOutputMinimized(bool) : void</text><rect fill="#F24D5C" height="6" style="stroke:#C82930;stroke-width:1.0;" width="6" x="826.5" y="520.1301"/><text fill="#000000" font-family="sans-serif" font-size="14" lengthAdjust="spacing" textLength="158.2274" x="838.5" y="527.0621">computePreFlow() : void</text><line style="stroke:#181818;stroke-width:1.0;" x1="819.5" x2="1378.4292" y1="330.9509" y2="330.9509"/><text fill="#000000" font-family="sans-serif" font-size="14" lengthAdjust="spacing" textLength="121.3375" x="1378.4292" y="335.8829">member functions</text><line style="stroke:#181818;stroke-width:1.0;" x1="1499.7667" x2="2058.6959" y1="330.9509" y2="330.9509"/><ellipse cx="829.5" cy="565.2659" fill="#84BE84" rx="3" ry="3" style="stroke:#038048;stroke-width:1.0;"/><text fill="#000000" font-family="sans-serif" font-size="14" lengthAdjust="spacing" text-decoration="underline" textLength="231.1391" x="838.5" y="569.1979">builder() : PolyhedralSystemBuilder</text><line style="stroke:#181818;stroke-width:1.0;" x1="819.5" x2="1389.1112" y1="544.698" y2="544.698"/><text fill="#000000" font-family="sans-serif" font-size="14" lengthAdjust="spacing" textLength="99.9736" x="1389.1112" y="549.63">static functions</text><line style="stroke:#181818;stroke-width:1.0;" x1="1489.0848" x2="2058.6959" y1="544.698" y2="544.698"/><rect fill="#F24D5C" height="6" style="stroke:#C82930;stroke-width:1.0;" width="6" x="826.5" y="604.4018"/><text fill="#000000" font-family="sans-serif" font-size="14" lengthAdjust="spacing" textLength="358.7206" x="838.5" y="611.3338">operator= (PolyhedralSystem&amp; &amp;) : PolyhedralSystem&amp;</text><ellipse cx="829.5" cy="626.4697" fill="#84BE84" rx="3" ry="3" style="stroke:#038048;stroke-width:1.0;"/><text fill="#000000" font-family="sans-serif" font-size="14" lengthAdjust="spacing" textLength="475.1582" x="838.5" y="630.4017">operator== (const PolyhedralSystem &amp;, const PolyhedralSystem &amp;) : bool</text><ellipse cx="829.5" cy="645.5376" fill="#84BE84" rx="3" ry="3" style="stroke:#038048;stroke-width:1.0;"/><text fill="#000000" font-family="sans-serif" font-size="14" lengthAdjust="spacing" textLength="423.1064" x="838.5" y="649.4696">operator&gt;&gt; (std::istream &amp;, PolyhedralSystem &amp;) : std :: istream&amp;</text><rect fill="#F24D5C" height="6" style="stroke:#C82930;stroke-width:1.0;" width="6" x="826.5" y="661.6055"/><text fill="#000000" font-family="sans-serif" font-size="14" lengthAdjust="spacing" textLength="472.0642" x="838.5" y="668.5375">operator&lt;&lt; (std::ostream &amp;, const PolyhedralSystem &amp;) : std :: ostream&amp;</text><rect fill="#F24D5C" height="6" style="stroke:#C82930;stroke-width:1.0;" width="6" x="826.5" y="680.6734"/><text fill="#000000" font-family="sans-serif" font-size="14" lengthAdjust="spacing" textLength="472.0642" x="838.5" y="687.6054">operator&lt;&lt; (std::ostream &amp;, const PolyhedralSystem &amp;) : std :: ostream&amp;</text><line style="stroke:#181818;stroke-width:1.0;" x1="819.5" x2="1406.7861" y1="586.8339" y2="586.8339"/><text fill="#000000" font-family="sans-serif" font-size="14" lengthAdjust="spacing" textLength="64.6238" x="1406.7861" y="591.7658">operators</text><line style="stroke:#181818;stroke-width:1.0;" x1="1471.4099" x2="2058.6959" y1="586.8339" y2="586.8339"/></g><!--class PolyhedralSystemBuilder--><g id="elem_PolyhedralSystemBuilder"><rect codeLine="58" fill="#F1F1F1" height="528.6979" id="PolyhedralSystemBuilder" rx="2.5" ry="2.5" style="stroke:#181818;stroke-width:0.5;" width="761.3335" x="22.5" y="105.602"/><ellipse cx="316.4501" cy="121.602" fill="#ADD1B2" rx="11" ry="11" style="stroke:#181818;stroke-width:1.0;"/><path d="M319.4188,127.2426 Q318.8407,127.5395 318.2001,127.6801 Q317.5594,127.8364 316.8563,127.8364 Q314.3563,127.8364 313.0282,126.1957 Q311.7157,124.5395 311.7157,121.4145 Q311.7157,118.2895 313.0282,116.6332 Q314.3563,114.977 316.8563,114.977 Q317.5594,114.977 318.2001,115.1332 Q318.8563,115.2895 319.4188,115.5864 L319.4188,118.3051 Q318.7938,117.727 318.2001,117.4614 Q317.6063,117.1801 316.9813,117.1801 Q315.6376,117.1801 314.9501,118.2582 Q314.2626,119.3207 314.2626,121.4145 Q314.2626,123.5082 314.9501,124.5864 Q315.6376,125.6489 316.9813,125.6489 Q317.6063,125.6489 318.2001,125.3832 Q318.7938,125.102 319.4188,124.5239 L319.4188,127.2426 Z " fill="#000000"/><text fill="#000000" font-family="sans-serif" font-size="14" lengthAdjust="spacing" textLength="164.9334" x="336.9501" y="127.034">PolyhedralSystemBuilder</text><line style="stroke:#181818;stroke-width:0.5;" x1="23.5" x2="782.8335" y1="137.602" y2="137.602"/><rect fill="none" height="6" style="stroke:#C82930;stroke-width:1.0;" width="6" x="30.5" y="172.7039"/><text fill="#000000" font-family="sans-serif" font-size="14" lengthAdjust="spacing" textLength="201.5572" x="42.5" y="179.6358">m_flow : std::unique_ptr&lt;Poly&gt;</text><rect fill="none" height="6" style="stroke:#C82930;stroke-width:1.0;" width="6" x="30.5" y="191.7718"/><text fill="#000000" font-family="sans-serif" font-size="14" lengthAdjust="spacing" textLength="431.3804" x="42.5" y="198.7038">m_symbolTable : std::unique_ptr&lt;PolyhedralSystemSymbolTable&gt;</text><rect fill="none" height="6" style="stroke:#C82930;stroke-width:1.0;" width="6" x="30.5" y="210.8397"/><text fill="#000000" font-family="sans-serif" font-size="14" lengthAdjust="spacing" textLength="265.425" x="42.5" y="217.7717">m_invariant : std::unique_ptr&lt;Powerset&gt;</text><rect fill="none" height="6" style="stroke:#C82930;stroke-width:1.0;" width="6" x="30.5" y="229.9076"/><text fill="#000000" font-family="sans-serif" font-size="14" lengthAdjust="spacing" textLength="472.5262" x="42.5" y="236.8396">m_denotation : std::unique_ptr&lt;std::unordered_map&lt;Atom, Powerset&gt;&gt;</text><line style="stroke:#181818;stroke-width:1.0;" x1="23.5" x2="355.1259" y1="155.1359" y2="155.1359"/><text fill="#000000" font-family="sans-serif" font-size="14" lengthAdjust="spacing" textLength="96.0816" x="355.1259" y="160.0679">data members</text><line style="stroke:#181818;stroke-width:1.0;" x1="451.2076" x2="782.8335" y1="155.1359" y2="155.1359"/><ellipse cx="33.5" cy="275.0434" fill="#84BE84" rx="3" ry="3" style="stroke:#038048;stroke-width:1.0;"/><text fill="#000000" font-family="sans-serif" font-size="14" lengthAdjust="spacing" textLength="173.3333" x="42.5" y="278.9754">PolyhedralSystemBuilder()</text><ellipse cx="33.5" cy="294.1114" fill="#84BE84" rx="3" ry="3" style="stroke:#038048;stroke-width:1.0;"/><text fill="#000000" font-family="sans-serif" font-size="14" lengthAdjust="spacing" textLength="181.3413" x="42.5" y="298.0433">~PolyhedralSystemBuilder()</text><line style="stroke:#181818;stroke-width:1.0;" x1="23.5" x2="361.7829" y1="254.4755" y2="254.4755"/><text fill="#000000" font-family="sans-serif" font-size="14" lengthAdjust="spacing" textLength="82.7677" x="361.7829" y="259.4075">constructors</text><line style="stroke:#181818;stroke-width:1.0;" x1="444.5506" x2="782.8335" y1="254.4755" y2="254.4755"/><ellipse cx="33.5" cy="336.2472" fill="#84BE84" rx="3" ry="3" style="stroke:#038048;stroke-width:1.0;"/><text fill="#000000" font-family="sans-serif" font-size="14" lengthAdjust="spacing" textLength="170.1973" x="42.5" y="340.1792">build() : PolyhedralSystem</text><ellipse cx="33.5" cy="355.3151" fill="#84BE84" rx="3" ry="3" style="stroke:#038048;stroke-width:1.0;"/><text fill="#000000" font-family="sans-serif" font-size="14" lengthAdjust="spacing" textLength="677.3596" x="42.5" y="359.2471">denotation(const std::unordered_map&lt;std::string, Powerset&gt;&amp; denotation) : PolyhedralSystemBuilder&amp;</text><ellipse cx="33.5" cy="374.383" fill="#84BE84" rx="3" ry="3" style="stroke:#038048;stroke-width:1.0;"/><text fill="#000000" font-family="sans-serif" font-size="14" lengthAdjust="spacing" textLength="648.3657" x="42.5" y="378.315">denotation(std::unordered_map&lt;std::string, Powerset&gt;&amp;&amp; denotation) : PolyhedralSystemBuilder&amp;</text><ellipse cx="33.5" cy="393.4509" fill="#84BE84" rx="3" ry="3" style="stroke:#038048;stroke-width:1.0;"/><text fill="#000000" font-family="sans-serif" font-size="14" lengthAdjust="spacing" textLength="331.2388" x="42.5" y="397.3829">flow(const Poly&amp; flow) : PolyhedralSystemBuilder&amp;</text><ellipse cx="33.5" cy="412.5189" fill="#84BE84" rx="3" ry="3" style="stroke:#038048;stroke-width:1.0;"/><text fill="#000000" font-family="sans-serif" font-size="14" lengthAdjust="spacing" textLength="302.2448" x="42.5" y="416.4508">flow(Poly&amp;&amp; flow) : PolyhedralSystemBuilder&amp;</text><ellipse cx="33.5" cy="431.5868" fill="#84BE84" rx="3" ry="3" style="stroke:#038048;stroke-width:1.0;"/><text fill="#000000" font-family="sans-serif" font-size="14" lengthAdjust="spacing" textLength="425.3884" x="42.5" y="435.5188">invariant(const Powerset&amp; invariant) : PolyhedralSystemBuilder&amp;</text><ellipse cx="33.5" cy="450.6547" fill="#84BE84" rx="3" ry="3" style="stroke:#038048;stroke-width:1.0;"/><text fill="#000000" font-family="sans-serif" font-size="14" lengthAdjust="spacing" textLength="396.3945" x="42.5" y="454.5867">invariant(Powerset&amp;&amp; invariant) : PolyhedralSystemBuilder&amp;</text><ellipse cx="33.5" cy="469.7226" fill="#84BE84" rx="3" ry="3" style="stroke:#038048;stroke-width:1.0;"/><text fill="#000000" font-family="sans-serif" font-size="14" lengthAdjust="spacing" textLength="735.3335" x="42.5" y="473.6546">symbolTable(const PolyhedralSystemSymbolTable&amp; polyhedralSystemSymbolTable) : PolyhedralSystemBuilder&amp;</text><ellipse cx="33.5" cy="488.7905" fill="#84BE84" rx="3" ry="3" style="stroke:#038048;stroke-width:1.0;"/><text fill="#000000" font-family="sans-serif" font-size="14" lengthAdjust="spacing" textLength="706.3396" x="42.5" y="492.7225">symbolTable(PolyhedralSystemSymbolTable&amp;&amp; polyhedralSystemSymbolTable) : PolyhedralSystemBuilder&amp;</text><rect fill="#F24D5C" height="6" style="stroke:#C82930;stroke-width:1.0;" width="6" x="30.5" y="504.8584"/><text fill="#000000" font-family="sans-serif" font-size="14" lengthAdjust="spacing" textLength="287.8669" x="42.5" y="511.7904">buildPolyhedralSystem() : PolyhedralSystem</text><rect fill="#F24D5C" height="6" style="stroke:#C82930;stroke-width:1.0;" width="6" x="30.5" y="523.9264"/><text fill="#000000" font-family="sans-serif" font-size="14" lengthAdjust="spacing" textLength="451.7363" x="42.5" y="530.8583">buildDenotation() : std::unordered_map&lt;Atom , AtomInterpretation&gt;</text><rect fill="#F24D5C" height="6" style="stroke:#C82930;stroke-width:1.0;" width="6" x="30.5" y="542.9943"/><text fill="#000000" font-family="sans-serif" font-size="14" lengthAdjust="spacing" textLength="223.2991" x="42.5" y="549.9263">assertDenotationIsNotNull() : void</text><rect fill="#F24D5C" height="6" style="stroke:#C82930;stroke-width:1.0;" width="6" x="30.5" y="562.0622"/><text fill="#000000" font-family="sans-serif" font-size="14" lengthAdjust="spacing" textLength="179.7173" x="42.5" y="568.9942">assertFlowIsNotNull() : void</text><rect fill="#F24D5C" height="6" style="stroke:#C82930;stroke-width:1.0;" width="6" x="30.5" y="581.1301"/><text fill="#000000" font-family="sans-serif" font-size="14" lengthAdjust="spacing" textLength="208.6832" x="42.5" y="588.0621">assertInvariantIsNotNull() : void</text><rect fill="#F24D5C" height="6" style="stroke:#C82930;stroke-width:1.0;" width="6" x="30.5" y="600.198"/><text fill="#000000" font-family="sans-serif" font-size="14" lengthAdjust="spacing" textLength="233.7291" x="42.5" y="607.13">assertSymbolTableIsNotNull() : void</text><rect fill="#F24D5C" height="6" style="stroke:#C82930;stroke-width:1.0;" width="6" x="30.5" y="619.2659"/><text fill="#000000" font-family="sans-serif" font-size="14" lengthAdjust="spacing" textLength="269.499" x="42.5" y="626.1979">assertThatAllDimensionsAreEqual() : void</text><line style="stroke:#181818;stroke-width:1.0;" x1="23.5" x2="342.498" y1="315.6793" y2="315.6793"/><text fill="#000000" font-family="sans-serif" font-size="14" lengthAdjust="spacing" textLength="121.3375" x="342.498" y="320.6113">member functions</text><line style="stroke:#181818;stroke-width:1.0;" x1="463.8355" x2="782.8335" y1="315.6793" y2="315.6793"/></g><!--class PolyhedralSystemSymbolTable--><g id="elem_PolyhedralSystemSymbolTable"><rect codeLine="86" fill="#F1F1F1" height="475.4942" id="PolyhedralSystemSymbolTable" rx="2.5" ry="2.5" style="stroke:#181818;stroke-width:0.5;" width="852.6693" x="106.5" y="755.602"/><ellipse cx="427.568" cy="771.602" fill="#ADD1B2" rx="11" ry="11" style="stroke:#181818;stroke-width:1.0;"/><path d="M430.5368,777.2426 Q429.9586,777.5395 429.318,777.6801 Q428.6774,777.8364 427.9743,777.8364 Q425.4743,777.8364 424.1461,776.1957 Q422.8336,774.5395 422.8336,771.4145 Q422.8336,768.2895 424.1461,766.6332 Q425.4743,764.977 427.9743,764.977 Q428.6774,764.977 429.318,765.1332 Q429.9743,765.2895 430.5368,765.5864 L430.5368,768.3051 Q429.9118,767.727 429.318,767.4614 Q428.7243,767.1801 428.0993,767.1801 Q426.7555,767.1801 426.068,768.2582 Q425.3805,769.3207 425.3805,771.4145 Q425.3805,773.5082 426.068,774.5864 Q426.7555,775.6489 428.0993,775.6489 Q428.7243,775.6489 429.318,775.3832 Q429.9118,775.102 430.5368,774.5239 L430.5368,777.2426 Z " fill="#000000"/><text fill="#000000" font-family="sans-serif" font-size="14" lengthAdjust="spacing" textLength="202.0332" x="448.068" y="777.034">PolyhedralSystemSymbolTable</text><line style="stroke:#181818;stroke-width:0.5;" x1="107.5" x2="958.1693" y1="787.602" y2="787.602"/><rect fill="none" height="6" style="stroke:#C82930;stroke-width:1.0;" width="6" x="114.5" y="822.7039"/><text fill="#000000" font-family="sans-serif" font-size="14" lengthAdjust="spacing" textLength="242.3391" x="126.5" y="829.6358">m_dimensions : PPL::dimension_type</text><rect fill="none" height="6" style="stroke:#C82930;stroke-width:1.0;" width="6" x="114.5" y="841.7718"/><text fill="#000000" font-family="sans-serif" font-size="14" lengthAdjust="spacing" textLength="216.2152" x="126.5" y="848.7038">m_atoms : spot::atomic_prop_set</text><rect fill="none" height="6" style="stroke:#C82930;stroke-width:1.0;" width="6" x="114.5" y="860.8397"/><text fill="#000000" font-family="sans-serif" font-size="14" lengthAdjust="spacing" textLength="528.162" x="126.5" y="867.7717">m_idBySpaceDimension : std::unordered_map&lt;PPL::dimension_type, std::string&gt;</text><rect fill="none" height="6" style="stroke:#C82930;stroke-width:1.0;" width="6" x="114.5" y="879.9076"/><text fill="#000000" font-family="sans-serif" font-size="14" lengthAdjust="spacing" textLength="421.3564" x="126.5" y="886.8396">m_variableById : std::unordered_map&lt;std::string, PPL::Variable&gt;</text><line style="stroke:#181818;stroke-width:1.0;" x1="107.5" x2="484.7938" y1="805.1359" y2="805.1359"/><text fill="#000000" font-family="sans-serif" font-size="14" lengthAdjust="spacing" textLength="96.0816" x="484.7938" y="810.0679">data members</text><line style="stroke:#181818;stroke-width:1.0;" x1="580.8755" x2="958.1693" y1="805.1359" y2="805.1359"/><ellipse cx="117.5" cy="925.0434" fill="#84BE84" rx="3" ry="3" style="stroke:#038048;stroke-width:1.0;"/><text fill="#000000" font-family="sans-serif" font-size="14" lengthAdjust="spacing" textLength="210.4332" x="126.5" y="928.9754">PolyhedralSystemSymbolTable()</text><line style="stroke:#181818;stroke-width:1.0;" x1="107.5" x2="491.4508" y1="904.4755" y2="904.4755"/><text fill="#000000" font-family="sans-serif" font-size="14" lengthAdjust="spacing" textLength="82.7677" x="491.4508" y="909.4075">constructors</text><line style="stroke:#181818;stroke-width:1.0;" x1="574.2185" x2="958.1693" y1="904.4755" y2="904.4755"/><ellipse cx="117.5" cy="967.1793" fill="#84BE84" rx="3" ry="3" style="stroke:#038048;stroke-width:1.0;"/><text fill="#000000" font-family="sans-serif" font-size="14" lengthAdjust="spacing" textLength="432.5844" x="126.5" y="971.1113">addAtom(std::string_view atom) : PolyhedralSystemSymbolTable&amp;</text><ellipse cx="117.5" cy="986.2472" fill="#84BE84" rx="3" ry="3" style="stroke:#038048;stroke-width:1.0;"/><text fill="#000000" font-family="sans-serif" font-size="14" lengthAdjust="spacing" textLength="574.9639" x="126.5" y="990.1792">addAtoms(std::initializer_list&lt;std::string_view&gt; atoms) : PolyhedralSystemSymbolTable&amp;</text><ellipse cx="117.5" cy="1005.3151" fill="#84BE84" rx="3" ry="3" style="stroke:#038048;stroke-width:1.0;"/><text fill="#000000" font-family="sans-serif" font-size="14" lengthAdjust="spacing" textLength="428.3984" x="126.5" y="1009.2471">addVariable(std::string_view id) : PolyhedralSystemSymbolTable&amp;</text><ellipse cx="117.5" cy="1024.383" fill="#84BE84" rx="3" ry="3" style="stroke:#038048;stroke-width:1.0;"/><text fill="#000000" font-family="sans-serif" font-size="14" lengthAdjust="spacing" textLength="570.778" x="126.5" y="1028.315">addVariables(std::initializer_list&lt;std::string_view&gt; ids) : PolyhedralSystemSymbolTable&amp;</text><ellipse cx="117.5" cy="1043.4509" fill="#84BE84" rx="3" ry="3" style="stroke:#038048;stroke-width:1.0;"/><text fill="#000000" font-family="sans-serif" font-size="14" lengthAdjust="spacing" textLength="286.6629" x="126.5" y="1047.3829">getSpaceDimension() : PPL::dimension_type</text><ellipse cx="117.5" cy="1062.5189" fill="#84BE84" rx="3" ry="3" style="stroke:#038048;stroke-width:1.0;"/><text fill="#000000" font-family="sans-serif" font-size="14" lengthAdjust="spacing" textLength="280.111" x="126.5" y="1066.4508">containsAtom(std::string_view atom) : bool</text><ellipse cx="117.5" cy="1081.5868" fill="#84BE84" rx="3" ry="3" style="stroke:#038048;stroke-width:1.0;"/><text fill="#000000" font-family="sans-serif" font-size="14" lengthAdjust="spacing" textLength="275.9249" x="126.5" y="1085.5188">containsVariable(std::string_view id) : bool</text><ellipse cx="117.5" cy="1100.6547" fill="#84BE84" rx="3" ry="3" style="stroke:#038048;stroke-width:1.0;"/><text fill="#000000" font-family="sans-serif" font-size="14" lengthAdjust="spacing" textLength="133.3495" x="126.5" y="1104.5867">getTotalAtoms() : int</text><ellipse cx="117.5" cy="1119.7226" fill="#84BE84" rx="3" ry="3" style="stroke:#038048;stroke-width:1.0;"/><text fill="#000000" font-family="sans-serif" font-size="14" lengthAdjust="spacing" textLength="205.3092" x="126.5" y="1123.6546">atoms() : spot::atomic_prop_set</text><ellipse cx="117.5" cy="1138.7905" fill="#84BE84" rx="3" ry="3" style="stroke:#038048;stroke-width:1.0;"/><text fill="#000000" font-family="sans-serif" font-size="14" lengthAdjust="spacing" textLength="396.2264" x="126.5" y="1142.7225">getVariable(std::string_view id) : std::optional&lt;PPL::Variable&gt;</text><ellipse cx="117.5" cy="1157.8584" fill="#84BE84" rx="3" ry="3" style="stroke:#038048;stroke-width:1.0;"/><text fill="#000000" font-family="sans-serif" font-size="14" lengthAdjust="spacing" textLength="489.4661" x="126.5" y="1161.7904">getVariableName(const PPL::Variable&amp; variable) : std::optional&lt;std::string&gt;</text><line style="stroke:#181818;stroke-width:1.0;" x1="107.5" x2="472.1659" y1="946.6114" y2="946.6114"/><text fill="#000000" font-family="sans-serif" font-size="14" lengthAdjust="spacing" textLength="121.3375" x="472.1659" y="951.5433">member functions</text><line style="stroke:#181818;stroke-width:1.0;" x1="593.5034" x2="958.1693" y1="946.6114" y2="946.6114"/><ellipse cx="117.5" cy="1199.9943" fill="#84BE84" rx="3" ry="3" style="stroke:#038048;stroke-width:1.0;"/><text fill="#000000" font-family="sans-serif" font-size="14" lengthAdjust="spacing" textLength="822.4273" x="126.5" y="1203.9263">operator!= (const PolyhedralSystemSymbolTable&amp; symbolTable1, const PolyhedralSystemSymbolTable&amp; symbolTable2) : bool</text><ellipse cx="117.5" cy="1219.0622" fill="#84BE84" rx="3" ry="3" style="stroke:#038048;stroke-width:1.0;"/><text fill="#000000" font-family="sans-serif" font-size="14" lengthAdjust="spacing" textLength="826.6693" x="126.5" y="1222.9942">operator== (const PolyhedralSystemSymbolTable&amp; symbolTable1, const PolyhedralSystemSymbolTable&amp; symbolTable2) : bool</text><line style="stroke:#181818;stroke-width:1.0;" x1="107.5" x2="500.5227" y1="1179.4264" y2="1179.4264"/><text fill="#000000" font-family="sans-serif" font-size="14" lengthAdjust="spacing" textLength="64.6238" x="500.5227" y="1184.3583">operators</text><line style="stroke:#181818;stroke-width:1.0;" x1="565.1465" x2="958.1693" y1="1179.4264" y2="1179.4264"/></g><!--link PolyhedralSystem to AtomInterpretation--><g id="link_PolyhedralSystem_AtomInterpretation"><path codeLine="111" d="M1439,707.702 C1439,737.662 1439,749.452 1439,777.942 " fill="none" id="PolyhedralSystem-AtomInterpretation" style="stroke:#181818;stroke-width:1.0;"/><polygon fill="#181818" points="1439,695.702,1435,701.702,1439,707.702,1443,701.702,1439,695.702" style="stroke:#181818;stroke-width:1.0;"/><polygon fill="#181818" points="1439,783.942,1443,774.942,1439,778.942,1435,774.942,1439,783.942" style="stroke:#181818;stroke-width:1.0;"/><text fill="#000000" font-family="sans-serif" font-size="13" lengthAdjust="spacing" textLength="7.163" x="1431.8637" y="772.3448">*</text></g><!--link PolyhedralSystem to PolyhedralSystemSymbolTable--><g id="link_PolyhedralSystem_PolyhedralSystemSymbolTable"><path codeLine="112" d="M955.5413,702.4854 C926.1813,722.6054 911.7785,732.469 883.1485,752.099 " fill="none" id="PolyhedralSystem-PolyhedralSystemSymbolTable" style="stroke:#181818;stroke-width:1.0;"/><polygon fill="#181818" points="965.44,695.702,958.2295,695.7941,955.5413,702.4854,962.7518,702.3933,965.44,695.702" style="stroke:#181818;stroke-width:1.0;"/><polygon fill="#181818" points="878.2,755.492,887.8848,753.7016,882.3238,752.6645,883.3608,747.1036,878.2,755.492" style="stroke:#181818;stroke-width:1.0;"/><text fill="#000000" font-family="sans-serif" font-size="13" lengthAdjust="spacing" textLength="7.436" x="883.4936" y="743.5482">1</text></g><!--link PolyhedralSystemBuilder to PolyhedralSystemSymbolTable--><g id="link_PolyhedralSystemBuilder_PolyhedralSystemSymbolTable"><path codeLine="113" d="M460.6867,646.6578 C469.0467,686.6278 473.9503,710.0394 482.1903,749.3894 " fill="none" id="PolyhedralSystemBuilder-PolyhedralSystemSymbolTable" style="stroke:#181818;stroke-width:1.0;"/><polygon fill="none" points="458.23,634.912,455.5431,641.6038,460.6867,646.6578,463.3736,639.966,458.23,634.912" style="stroke:#181818;stroke-width:1.0;"/><polygon fill="#181818" points="483.42,755.262,485.4905,745.6332,482.3952,750.3681,477.6603,747.2729,483.42,755.262" style="stroke:#181818;stroke-width:1.0;"/><text fill="#000000" font-family="sans-serif" font-size="13" lengthAdjust="spacing" textLength="21.84" x="460.4678" y="744.0794">0..1</text></g><!--SRC=[lLZVJzim47xdh_1uY5eWQEmnAf7esAHA6qC2xRLo4mFMd3Z43gX3x6-VdPzsOpj9GV16xkwxy_dkktCp6Fs1zmYmBUCe0Iy7GFn51386BZXDLYb7UPOZ3ZccQIsMVxuVGmv1Wf8DofdlTu9aZNMZ05pJPw64kAgKKhuQrlCZcZAU5n6dcfVZVd2pKhN5y80UnjnfsrfDCtExF05z-HFCCKpvdj6S04tqLh0zmwlC-e9fkJFOls_otQdo_QfsmLsHHj90AoyTQpPNYjFhj7erR57qVPgX7ExKSFlnqpaOdTEpvjQ6LR_8O3QKahx7ym_tk5Y06UDn453HpWWc7g057uyiWOKv20BG09G-NWyKmhgcPFk0uXoI6vNDXkZgZj3dyjh8LlqiV7ytIzWssL1o2pS4rLBLwqqdrKcnBa4B7oOunGd-YxwMX0V5yTclWcS5xwKqMST8L5v3ccLMYvJcCSfHl4vWjf3vF35aDHn1hBl7cSqTijqFdgSqM4_RIZST4v6j1-HzD5-c7Cu3NLvKHClbU42vHrVO9XuvgM9jWfqKfXwdAq9RY4xgkaVy9eCHkiG9IbbBIjS_WY1kFgtvDaEQYIprcht4kJJHTTK85gaIRwjXEuzck6foQMDNeNChqaHa3bcf99fY1q8Zt_8MH57Zz7xzXD4p4CIJp9iMePbKWcHXuvoZgcP2bukwAZFAW-2Evab1eFTcD-BONTTNJV-pPeDu9djVWZzH77SL4D54Q27rQdG5dqblaRb4NYhXAzWKc8YIDLxSifAD7M9YelJO07WcOEMA-_Een-6UhPKhS8qQMxmmhASDheQ5H37RrqC5gqF5ERY60Z9DgNS7T8wz-kAcJR-QmV1ZWTOPpnSIDBGFFPEwfUj3snJiOrGK40wDkjR2Ihijr3uJRzaqHQVoRrZ7JSfbendRhDFfZZgp3Z-5ufHJgXF5qSgUqTTuBzFToEAQxSxs2QRAa1rdrTQNVTcO2cHyHep2K5fcDc8ToUp2wVxSQyLRNVbbFVTNHLTzLpQNNU7DxSih6DXU1UsXd7TOAtP5-LL1Y64ILhfoJ0vhjJl9iAgIic7bsmV8BmXfLp9saQDlZmNSiN3Ikk9m9BMtwnuRM025hjnXf5grsiZ_S2IUG3HRxxnJSBpSwlkb-HeD_kezkI8MZUNBh8k3BRUhs0odKvB4_btRx4Fnsj8wai9X7CkQj6-PupRV6eRL-qcAEOP4R7hvceWbPB6B7fRmR19-avb-g3ZU2sXyi3Xcanu1KrygueAvs9AP-oRqfR2n6KgBRZNm-e3jPtV7I9mXn_gxmLBSAj0LJDg9ecfxe6caFgovzOmx_N7_Xwcnx-YpgG_lB_Ob_loZlTVqsrl3Ztm_F3mwD8maX_xPuU0lGxR5dKhxpwUd0n2l_m40]--></g></svg>